<svg width="483" height="587" viewBox="0 0 483 587" fill="none" xmlns="http://www.w3.org/2000/svg">
<path fill-rule="evenodd" clip-rule="evenodd" d="M232.126 -337.82C231.998 -328.78 232.258 -325.513 232.975 -327.157C233.823 -329.104 234.01 -328.927 234.024 -326.165C234.049 -320.788 236.551 -318.926 243.154 -319.368C246.48 -319.591 250.379 -319.275 251.817 -318.666C253.254 -318.057 259.607 -318.198 265.934 -318.978L277.437 -320.397L265.081 -320.618C258.285 -320.74 251.877 -321.525 250.842 -322.362C249.59 -323.373 247.873 -323.264 245.72 -322.036C243.485 -320.762 241.577 -320.668 239.567 -321.736C236.513 -323.359 236.004 -325.548 234.532 -343.348C233.566 -355.036 232.326 -352.191 232.126 -337.82ZM465.144 -342.164C465.144 -337.385 465.496 -333.476 465.928 -333.477C466.36 -333.477 466.549 -329.923 466.35 -325.579C466.139 -320.988 466.427 -317.68 467.037 -317.68C467.613 -317.68 467.839 -316.255 467.537 -314.513C466.668 -309.491 469.076 -306.623 474.16 -306.623C477.533 -306.623 478.738 -307.247 478.738 -308.992C478.738 -310.295 478.24 -311.361 477.631 -311.361C477.022 -311.361 476.814 -310.651 477.17 -309.782C478.22 -307.215 472.847 -307.972 471.407 -310.592C470.658 -311.955 469.768 -320.354 469.335 -330.127C468.918 -339.557 468.247 -348.078 467.844 -349.062C466.203 -353.072 465.144 -350.367 465.144 -342.164ZM0.00139666 -345.323C0.0223111 -342.717 0.256553 -341.841 0.522166 -343.378C0.78778 -344.915 0.770003 -347.048 0.483475 -348.117C0.196947 -349.187 -0.0195178 -347.929 0.00139666 -345.323ZM281.097 -346.809C281.097 -345.456 281.575 -344.794 282.159 -345.339C282.744 -345.885 282.952 -346.993 282.62 -347.801C281.724 -349.992 281.097 -349.585 281.097 -346.809ZM351.243 -346.771C351.293 -344.931 351.541 -344.557 351.874 -345.816C352.177 -346.956 352.139 -348.319 351.792 -348.844C351.445 -349.368 351.198 -348.436 351.243 -346.771ZM111.422 -343.743C111.008 -341.137 111.039 -335.45 111.491 -331.106C112.564 -320.817 113.491 -327.383 112.718 -339.794C112.24 -347.454 112.087 -347.921 111.422 -343.743ZM226.796 -340.584C226.82 -337.109 227.214 -331.422 227.672 -327.947C228.438 -322.123 228.511 -322.438 228.592 -331.963C228.64 -337.646 228.246 -343.333 227.716 -344.599C227.036 -346.222 226.764 -345.034 226.796 -340.584ZM347.262 -338.215C347.262 -334.305 347.466 -332.705 347.716 -334.661C347.964 -336.616 347.964 -339.813 347.716 -341.769C347.466 -343.724 347.262 -342.124 347.262 -338.215ZM352.49 -335.055C352.49 -331.146 352.694 -329.546 352.944 -331.501C353.193 -333.457 353.193 -336.654 352.944 -338.61C352.694 -340.565 352.49 -338.965 352.49 -335.055ZM461.309 -337.425C461.309 -336.122 461.701 -335.055 462.181 -335.055C462.66 -335.055 463.052 -336.122 463.052 -337.425C463.052 -338.728 462.66 -339.794 462.181 -339.794C461.701 -339.794 461.309 -338.728 461.309 -337.425ZM470.573 -331.778C470.779 -330.844 471.395 -330.08 471.941 -330.08C472.487 -330.08 473.103 -330.844 473.309 -331.778C473.515 -332.711 472.9 -333.476 471.941 -333.476C470.982 -333.476 470.367 -332.711 470.573 -331.778ZM198.063 -330.563C197.701 -329.678 197.915 -328.48 198.537 -327.898C200.145 -326.398 201.183 -328.453 199.84 -330.481C199.089 -331.615 198.505 -331.642 198.063 -330.563ZM347.143 -322.419C347.143 -320.247 347.38 -319.357 347.67 -320.444C347.96 -321.529 347.96 -323.306 347.67 -324.393C347.38 -325.478 347.143 -324.591 347.143 -322.419ZM162.407 -322.419C162.052 -321.55 162.26 -320.839 162.868 -320.839C163.477 -320.839 163.976 -321.55 163.976 -322.419C163.976 -323.287 163.769 -323.998 163.515 -323.998C163.261 -323.998 162.763 -323.287 162.407 -322.419ZM104.893 -319.135C97.2661 -316.689 55.1047 -314.356 27.2466 -314.837C9.27382 -315.146 -0.0843526 -314.765 0.141523 -313.731C0.712488 -311.129 14.9584 -310.984 55.7436 -313.164C77.0241 -314.303 97.2588 -315.25 100.71 -315.273C105.266 -315.299 107.485 -316.067 108.814 -318.075C109.821 -319.594 110.291 -320.757 109.86 -320.657C109.429 -320.558 107.193 -319.872 104.893 -319.135ZM174.433 -319.237C173.33 -318.144 173.95 -317.985 176.525 -318.699C181.035 -319.948 181.885 -320.847 178.529 -320.815C177.139 -320.801 175.296 -320.092 174.433 -319.237ZM226.719 -319.166C226.719 -318.247 227.19 -317.933 227.765 -318.47C228.34 -319.007 228.811 -319.759 228.811 -320.142C228.811 -320.526 228.34 -320.839 227.765 -320.839C227.19 -320.839 226.719 -320.086 226.719 -319.166ZM297.305 -319.259L286.848 -318.291L299.597 -317.986C307.195 -317.803 312.607 -318.318 312.991 -319.259C313.373 -320.191 312.434 -320.714 310.7 -320.533C309.085 -320.365 303.057 -319.792 297.305 -319.259ZM320.168 -317.329C319.606 -315.953 342.776 -317.367 343.814 -318.771C344.087 -319.141 339.009 -319.286 332.53 -319.095C326.049 -318.904 320.487 -318.109 320.168 -317.329ZM355.082 -316.634C355.801 -316.195 356.978 -316.195 357.696 -316.634C358.415 -317.072 357.827 -317.43 356.389 -317.43C354.951 -317.43 354.363 -317.072 355.082 -316.634ZM364.559 -316.601C365.313 -316.144 366.215 -316.201 366.563 -316.726C366.91 -317.25 366.293 -317.623 365.191 -317.555C363.972 -317.479 363.725 -317.105 364.559 -316.601ZM392.466 -316.231C387.401 -315.595 393.303 -314.911 411.632 -314.014C429.199 -313.153 439.763 -311.962 443.004 -310.477C448.771 -307.833 455.732 -307.504 455.732 -309.875C455.732 -310.794 455.302 -311.147 454.776 -310.655C454.25 -310.164 453.639 -310.58 453.418 -311.579C453.146 -312.812 446.292 -313.803 432.153 -314.655C420.678 -315.347 408.701 -316.192 405.538 -316.531C402.374 -316.873 396.492 -316.738 392.466 -316.231ZM377.585 -315.006C378.602 -314.604 380.014 -314.631 380.722 -315.064C381.43 -315.497 380.597 -315.824 378.872 -315.792C377.146 -315.761 376.567 -315.407 377.585 -315.006ZM234.23 -311.756L287.228 -311.333L287.68 -307.793C288.065 -304.776 288.153 -304.895 288.275 -308.597L288.417 -312.941L234.824 -312.56L181.23 -312.181L234.23 -311.756ZM293.927 -310.967C292.314 -307.847 290.7 -296.074 291.586 -293.905C292.029 -292.825 292.725 -284.219 293.133 -274.783C293.541 -265.348 294.341 -257.192 294.909 -256.661C295.478 -256.131 310.837 -255.11 329.041 -254.395C347.246 -253.679 371.787 -252.679 383.578 -252.175C396.551 -251.619 404.189 -251.817 402.923 -252.674C401.773 -253.453 381.538 -254.63 357.957 -255.289C334.376 -255.947 310.612 -256.927 305.148 -257.465C295.478 -258.419 295.21 -258.549 295.057 -262.394C293.392 -304.182 293.371 -306.591 294.66 -308.935C296.238 -311.807 308.54 -312.339 313.079 -309.731C315.571 -308.3 315.755 -308.397 314.587 -310.521C312.866 -313.655 295.509 -314.028 293.927 -310.967ZM319.266 -311.361C317.494 -310.211 317.654 -310.016 320.311 -310.08C322.037 -310.121 324.86 -310.698 326.586 -311.361C329.584 -312.515 329.538 -312.57 325.54 -312.642C323.239 -312.685 320.416 -312.109 319.266 -311.361ZM139.179 -310.193C142.506 -309.878 147.682 -309.881 150.682 -310.199C153.68 -310.516 150.957 -310.774 144.63 -310.771C138.303 -310.767 135.85 -310.507 139.179 -310.193ZM173.436 -309.079C172.717 -307.773 172.016 -300.172 171.796 -291.308C171.365 -273.982 172.018 -275.621 173.158 -294.733C173.833 -306.027 174.18 -307.531 176.525 -309.321C178.955 -311.173 178.982 -311.317 176.914 -311.338C175.69 -311.35 174.125 -310.335 173.436 -309.079ZM337.866 -310.193C341.193 -309.878 346.37 -309.881 349.369 -310.199C352.367 -310.516 349.644 -310.774 343.317 -310.771C336.991 -310.767 334.537 -310.507 337.866 -310.193ZM366.846 -309.782C364.613 -308.701 364.872 -308.494 368.614 -308.36C371.025 -308.273 373.288 -308.913 373.643 -309.782C374.396 -311.624 370.651 -311.624 366.846 -309.782ZM64.6323 -308.014C59.1684 -307.193 53.8739 -306.392 52.8679 -306.234C51.8619 -306.074 51.0379 -305.245 51.0379 -304.389C51.0379 -303.533 50.4732 -303.685 49.783 -304.727C49.0928 -305.77 47.5629 -306.601 46.3844 -306.575C44.2543 -306.526 44.2543 -306.515 46.3321 -304.789C51.4593 -300.53 52.0355 -297.586 52.0606 -275.522L52.0836 -254.69L56.7235 -253.638C59.2761 -253.06 61.9824 -252.96 62.7364 -253.417C63.4914 -253.873 62.8462 -254.303 61.3016 -254.371C59.7571 -254.439 57.239 -255.216 55.7049 -256.097L52.917 -257.699L53.6511 -279.397C54.175 -294.851 54.8182 -301.776 55.8869 -303.463C57.0895 -305.364 61.7827 -306.011 79.5715 -306.732C91.7729 -307.226 99.4025 -307.763 96.5268 -307.926C93.6511 -308.088 87.5336 -308.51 82.9324 -308.864C78.3312 -309.218 70.0962 -308.836 64.6323 -308.014ZM105.154 -308.64C107.023 -308.289 110.082 -308.289 111.951 -308.64C113.82 -308.989 112.291 -309.276 108.553 -309.276C104.814 -309.276 103.285 -308.989 105.154 -308.64ZM163.976 -308.589C163.976 -307.72 164.682 -306.125 165.544 -305.043C166.42 -303.947 167.113 -303.775 167.113 -304.656C167.113 -305.525 166.407 -307.12 165.544 -308.202C164.669 -309.298 163.976 -309.471 163.976 -308.589ZM390.113 -308.632C392.271 -308.291 395.8 -308.291 397.956 -308.632C400.114 -308.971 398.348 -309.251 394.035 -309.251C389.721 -309.251 387.957 -308.971 390.113 -308.632ZM403.251 -307.123C404.005 -306.667 404.907 -306.724 405.254 -307.248C405.602 -307.773 404.985 -308.145 403.882 -308.077C402.664 -308.002 402.416 -307.627 403.251 -307.123ZM410.622 -307.018C410.237 -303.871 410.939 -261.046 411.439 -257.148C411.85 -253.948 412.466 -252.957 413.627 -253.63C414.516 -254.145 416.383 -253.441 417.775 -252.063C419.167 -250.686 420.826 -249.82 421.464 -250.141C422.101 -250.461 420.492 -252.61 417.888 -254.914C413.6 -258.71 413.09 -259.803 412.483 -266.499C412.114 -270.565 411.812 -281.213 411.812 -290.162V-306.431L415.734 -307.052L419.655 -307.671L415.211 -307.937C412.767 -308.082 410.702 -307.67 410.622 -307.018ZM5.02609 -304.988C2.43793 -304.351 5.73196 -304.196 12.3461 -304.647C18.9603 -305.095 24.5675 -305.724 24.808 -306.043C25.5557 -307.038 9.9734 -306.207 5.02609 -304.988ZM30.3849 -305.534C31.3908 -305.136 33.0389 -305.136 34.0449 -305.534C35.0509 -305.931 34.2279 -306.256 32.2149 -306.256C30.2019 -306.256 29.3789 -305.931 30.3849 -305.534ZM432.988 -305.534C433.994 -305.136 435.642 -305.136 436.648 -305.534C437.654 -305.931 436.831 -306.256 434.818 -306.256C432.805 -306.256 431.982 -305.931 432.988 -305.534ZM167.427 -275.031C167.427 -270.252 167.622 -268.297 167.862 -270.687C168.101 -273.077 168.101 -276.985 167.862 -279.374C167.622 -281.764 167.427 -279.809 167.427 -275.031ZM406.883 -271.082C406.891 -266.738 407.094 -265.149 407.334 -267.55C407.574 -269.951 407.568 -273.505 407.32 -275.448C407.072 -277.391 406.875 -275.425 406.883 -271.082ZM287.392 -271.082C286.874 -266.133 286.647 -263.424 286.48 -260.184C286.334 -257.356 285.628 -257.247 274.038 -258.265C267.28 -258.859 258.337 -259.282 254.163 -259.206C248.875 -259.11 245.874 -259.811 244.258 -261.52C241.325 -264.624 239.268 -264.659 239.268 -261.604C239.268 -257.712 232.331 -258.431 231.645 -262.394C231.344 -264.131 230.526 -265.553 229.826 -265.553C228.865 -265.553 228.846 -265.022 229.751 -263.376C231.718 -259.795 228.034 -259.279 200.315 -259.257L174.433 -259.235L174.417 -263.578C174.408 -265.968 173.945 -268.989 173.387 -270.292C172.652 -272.01 172.369 -270.649 172.357 -265.338L172.342 -258.014L176.887 -256.984C187.828 -254.505 238.599 -256.587 241.098 -259.617C241.956 -260.658 242.405 -260.663 242.405 -259.633C242.405 -257.687 254.217 -256.206 272.645 -255.842C286.539 -255.567 286.686 -255.601 287.597 -259.32C288.102 -261.384 288.337 -265.588 288.12 -268.658C287.901 -271.728 287.574 -272.819 287.392 -271.082ZM272.731 -267.911C272.731 -266.521 274.698 -265.643 278.744 -265.226C285.877 -264.491 286.594 -264.867 282.549 -267.223C277.847 -269.96 272.731 -270.319 272.731 -267.911ZM92.8668 -260.814C92.8668 -259.077 93.5183 -257.655 94.313 -257.655C95.1088 -257.655 96.006 -259.077 96.3072 -260.814C96.7129 -263.157 96.3386 -263.973 94.8599 -263.973C93.5643 -263.973 92.8668 -262.869 92.8668 -260.814ZM47.5975 -257.655C47.2973 -255.917 47.4772 -254.496 47.999 -254.496C48.5198 -254.496 48.9464 -255.917 48.9464 -257.655C48.9464 -259.393 48.7655 -260.814 48.5459 -260.814C48.3253 -260.814 47.8986 -259.393 47.5975 -257.655ZM167.337 -258.941C165.542 -256.23 125.517 -254.93 122.365 -257.48C120.929 -258.641 119.96 -258.702 119.535 -257.66C119.175 -256.781 113.905 -255.988 107.707 -255.881C101.558 -255.775 91.5858 -255.124 85.5467 -254.436C78.0876 -253.586 81.7758 -253.452 97.0497 -254.02C109.415 -254.482 120.474 -254.831 121.624 -254.799C166.714 -253.54 170.216 -253.861 169.048 -259.156C168.769 -260.415 168.272 -260.353 167.337 -258.941ZM424.361 -251.337C426.448 -249.299 431.991 -249.299 431.158 -251.337C430.802 -252.205 428.775 -252.905 426.652 -252.892C423.775 -252.873 423.192 -252.479 424.361 -251.337ZM12.3461 -249.727C12.3461 -248.771 13.5142 -248.541 15.2219 -249.16C19.3274 -250.646 19.4654 -251.337 15.658 -251.337C13.8363 -251.337 12.3461 -250.612 12.3461 -249.727ZM437.76 -250.258C438.514 -249.801 439.416 -249.858 439.763 -250.382C440.11 -250.907 439.493 -251.28 438.391 -251.212C437.173 -251.136 436.925 -250.762 437.76 -250.258ZM1.62749 -248.711C2.34695 -248.272 3.52339 -248.272 4.2418 -248.711C4.96126 -249.149 4.37252 -249.507 2.93465 -249.507C1.49678 -249.507 0.909084 -249.149 1.62749 -248.711ZM182.276 -248.177L167.636 -247.252L180.707 -247.111C187.897 -247.034 200.132 -247.476 207.896 -248.094L222.013 -249.215L209.465 -249.16C202.563 -249.128 190.328 -248.686 182.276 -248.177ZM236.847 -248.65C236.563 -247.956 259.613 -247.579 288.072 -247.811C321.516 -248.086 341.242 -247.655 343.854 -246.593C347.334 -245.176 347.952 -244.243 348.314 -239.85L348.734 -234.751L348.886 -239.49C349.205 -249.473 352.344 -248.921 292.21 -249.439C262.044 -249.7 237.13 -249.345 236.847 -248.65ZM463.424 -247.359C462.605 -244.137 464.687 -241.857 468.281 -242.041C470.568 -242.157 470.633 -242.303 468.804 -243.202C467.654 -243.766 466.713 -245.236 466.713 -246.467C466.713 -249.768 464.208 -250.447 463.424 -247.359ZM88.161 -247.078C82.9847 -246.748 62.75 -245.847 43.195 -245.078L7.6404 -243.677L55.7436 -244.386C82.2004 -244.775 105.921 -245.541 108.456 -246.088L113.065 -247.081L112.328 -225.981C111.922 -214.375 111.119 -204.024 110.544 -202.975C109.841 -201.698 109.858 -200.734 110.593 -200.047C111.196 -199.485 111.69 -197.677 111.69 -196.032C111.69 -191.74 106.056 -189.814 92.3439 -189.416L80.841 -189.083L90.2525 -188.517C100.432 -187.908 109.253 -189.037 111.631 -191.256C112.65 -192.207 113.153 -195.818 113.219 -202.642C113.553 -237.485 113.724 -240.076 115.881 -243.112C117.579 -245.502 119.127 -245.928 123.985 -245.347C127.288 -244.95 129.722 -245.059 129.396 -245.587C128.627 -246.832 100.341 -247.854 88.161 -247.078ZM138.879 -246.598C134.594 -245.945 133.241 -245.356 135.219 -245.001C138.805 -244.359 141.083 -244.584 149.859 -246.446L156.133 -247.776L150.904 -247.705C148.029 -247.664 142.617 -247.166 138.879 -246.598ZM230.902 -245.205C230.902 -244.336 231.373 -243.186 231.948 -242.649C232.523 -242.112 232.994 -242.383 232.994 -243.252C232.994 -244.121 232.523 -245.271 231.948 -245.808C231.373 -246.345 230.902 -246.073 230.902 -245.205ZM357.957 -245.018L353.775 -244.228V-217.509C353.775 -197.538 353.444 -190.623 352.467 -190.129C348.607 -188.179 352.778 -187.347 367.107 -187.209C396.734 -186.925 409.303 -186.236 406.061 -185.079L402.923 -183.957L405.707 -181.916C408.077 -180.177 408.553 -178.672 408.913 -171.772C409.146 -167.314 409.011 -162.958 408.612 -162.089C408.214 -161.22 408.267 -159.088 408.73 -157.35C409.195 -155.613 409.607 -151.408 409.647 -148.004C409.687 -144.601 410.025 -142.278 410.397 -142.84C410.77 -143.401 411.008 -151.841 410.927 -161.593C410.804 -176.547 410.501 -179.564 408.991 -180.84C407.34 -182.237 407.359 -182.449 409.244 -183.562C410.369 -184.227 416.936 -184.921 423.838 -185.102L436.387 -185.436L425.406 -186.652C419.367 -187.322 402.191 -188.682 387.238 -189.672C372.284 -190.664 359.049 -191.849 357.827 -192.305C355.073 -193.334 354.297 -200.41 354.297 -224.483V-241.418L359.787 -242.415C368.59 -244.012 380.44 -243.639 380.44 -241.766C380.44 -240.846 380.996 -240.611 381.673 -241.244C382.351 -241.876 393.763 -242.387 407.032 -242.375C426.095 -242.36 429.167 -242.619 421.67 -243.606C410.288 -245.103 363.864 -246.133 357.957 -245.018ZM2.30826 -242.23C0.699939 -240.606 -0.591528 -192.201 0.864118 -188.092C1.8471 -185.32 2.97752 -185.026 11.5985 -185.303C20.301 -185.582 20.5258 -185.66 13.9147 -186.099C0.806603 -186.973 1.88683 -184.688 1.90357 -211.482C1.91925 -238.123 2.29362 -241.429 5.39419 -242.345C7.45112 -242.952 7.46367 -243.025 5.54895 -243.2C4.39866 -243.304 2.93988 -242.868 2.30826 -242.23ZM338.612 -241.859C338.612 -240.99 339.054 -240.279 339.596 -240.279C340.137 -240.279 340.87 -240.99 341.226 -241.859C341.581 -242.728 341.138 -243.439 340.242 -243.439C339.346 -243.439 338.612 -242.728 338.612 -241.859ZM468.979 -237.646C467.449 -235.337 468.792 -218.165 470.503 -218.165C471.932 -218.165 471.577 -225.712 470.111 -226.515C469.065 -227.087 469.065 -227.898 470.111 -230.574C471.746 -234.755 471.773 -236.059 470.195 -234.585C469.372 -233.817 469.19 -234.304 469.639 -236.071C470.346 -238.855 470.126 -239.381 468.979 -237.646ZM205.282 -233.961C204.926 -233.092 205.134 -232.381 205.743 -232.381C206.352 -232.381 206.851 -233.092 206.851 -233.961C206.851 -234.83 206.643 -235.541 206.389 -235.541C206.135 -235.541 205.637 -234.83 205.282 -233.961ZM232.33 -218.955C232.333 -210.267 232.508 -206.915 232.72 -211.505C232.932 -216.094 232.93 -223.202 232.715 -227.301C232.5 -231.399 232.327 -227.643 232.33 -218.955ZM251.817 -232.332C251.817 -231.49 252.522 -230.802 253.385 -230.802C254.248 -230.802 254.954 -231.081 254.954 -231.423C254.954 -231.764 254.248 -232.452 253.385 -232.953C252.522 -233.452 251.817 -233.173 251.817 -232.332ZM235.783 -229.748C235.399 -229.17 235.085 -224.076 235.085 -218.429C235.085 -212.782 235.27 -208.457 235.495 -208.818C235.898 -209.464 237.034 -230.802 236.667 -230.802C236.564 -230.802 236.165 -230.328 235.783 -229.748ZM20.7119 -211.846C20.7119 -210.978 21.1825 -210.267 21.7577 -210.267C22.3328 -210.267 22.8034 -210.978 22.8034 -211.846C22.8034 -212.715 22.3328 -213.426 21.7577 -213.426C21.1825 -213.426 20.7119 -212.715 20.7119 -211.846ZM305.148 -210.218C305.148 -209.376 305.854 -208.687 306.717 -208.687C307.58 -208.687 308.286 -208.967 308.286 -209.308C308.286 -209.649 307.58 -210.338 306.717 -210.839C305.854 -211.338 305.148 -211.058 305.148 -210.218ZM115.809 -198.42C115.499 -193.207 115.352 -188.699 115.481 -188.404C115.609 -188.107 120.574 -188.942 126.513 -190.261L137.31 -192.657L127.173 -191.803L117.036 -190.95L116.704 -199.423L116.373 -207.897L115.809 -198.42ZM233.067 -199.036L232.994 -194.912L217.274 -193.782C198.31 -192.419 167.018 -191.179 149.859 -191.113C142.787 -191.086 138.679 -190.585 140.447 -189.967C142.173 -189.364 148.408 -188.928 154.303 -188.996C160.198 -189.064 165.022 -188.47 165.022 -187.675C165.022 -186.881 166.316 -186.729 167.897 -187.339C169.478 -187.949 175.949 -188.713 182.276 -189.037C188.603 -189.361 202.249 -190.102 212.602 -190.685C232.156 -191.786 235.977 -191.724 255.999 -189.986C262.614 -189.411 283.319 -189.317 302.011 -189.775C330.599 -190.476 332.661 -190.664 314.991 -190.959C303.438 -191.154 281.197 -191.781 265.567 -192.356L237.149 -193.4L236.211 -198.279C235.547 -201.735 235.225 -202.238 235.106 -199.999L234.938 -196.84L234.039 -199.999C233.228 -202.851 233.134 -202.757 233.067 -199.036ZM45.8114 -193.506C45.8103 -192.481 46.9052 -192.067 48.4393 -192.509C52.2342 -193.605 52.5646 -195.621 48.9172 -195.427C47.2105 -195.335 45.8134 -194.471 45.8114 -193.506ZM32.127 -189.231C29.7313 -187.756 29.817 -187.615 33.7835 -186.5C36.084 -185.854 38.0061 -185.429 38.0531 -185.554C38.1012 -185.68 37.3567 -186.909 36.3978 -188.285C35.0686 -190.192 34.0543 -190.416 32.127 -189.231ZM53.5957 -189.595C52.5186 -186.96 54.9416 -183.94 56.3847 -186.12C57.5914 -187.942 56.8364 -191.312 55.2208 -191.312C54.7136 -191.312 53.9826 -190.539 53.5957 -189.595ZM337.566 -189.127C337.566 -187.724 341.797 -186.991 342.332 -188.301C342.654 -189.088 341.713 -189.732 340.242 -189.732C338.77 -189.732 337.566 -189.459 337.566 -189.127ZM354.765 -185.128C355.09 -184.333 354.765 -183.324 354.042 -182.883C353.32 -182.444 354.376 -182.11 356.389 -182.142C358.402 -182.174 359.22 -182.528 358.206 -182.927C357.193 -183.327 356.632 -184.309 356.961 -185.113C357.289 -185.916 356.797 -186.573 355.866 -186.573C354.935 -186.573 354.44 -185.922 354.765 -185.128ZM441.615 -184.774C451.839 -182.237 464.312 -181.656 463.852 -183.739C463.55 -185.107 459.512 -185.725 449.907 -185.868C439.669 -186.022 437.656 -185.756 441.615 -184.774ZM191.165 -183.414C191.165 -181.599 224.683 -181.545 246.065 -183.327C256.906 -184.229 252.722 -184.513 225.412 -184.726C203.159 -184.9 191.165 -184.44 191.165 -183.414ZM274.627 -183.914C275.381 -183.458 276.283 -183.515 276.631 -184.039C276.978 -184.564 276.361 -184.936 275.259 -184.868C274.04 -184.793 273.792 -184.418 274.627 -183.914ZM298.351 -183.611C295.246 -182.614 295.213 -182.49 295.069 -171.557L294.923 -160.509L295.695 -170.407C296.12 -175.851 296.773 -180.766 297.147 -181.33C297.52 -181.894 302.179 -182.842 307.499 -183.436L317.174 -184.518L309.331 -184.568C305.018 -184.597 300.077 -184.166 298.351 -183.611ZM477.17 -182.777C478.895 -181.637 480.529 -180.995 480.799 -181.354C481.631 -182.453 478.34 -184.947 476.124 -184.898C474.539 -184.862 474.792 -184.349 477.17 -182.777ZM83.6132 -181.611C61.3445 -180.296 51.3045 -178.195 54.2294 -175.465C55.0315 -174.716 55.936 -174.68 56.2393 -175.386C57.4461 -178.199 62.3777 -178.697 96.0374 -179.4C115.286 -179.801 136.264 -180.604 142.656 -181.183C150.616 -181.905 154.497 -181.695 154.981 -180.517C155.46 -179.345 156.528 -179.28 158.33 -180.314C161.456 -182.11 167.131 -182.272 168.855 -180.615C169.526 -179.97 170.555 -172.694 171.142 -164.447L172.209 -149.452L171.892 -165.024C171.666 -176.146 171.162 -180.992 170.129 -181.981C168.334 -183.696 148.336 -183.674 133.65 -181.938C127.439 -181.205 122.238 -181.243 121.676 -182.028C120.57 -183.572 115.901 -183.521 83.6132 -181.611ZM178.897 -182.319C179.915 -181.918 181.327 -181.945 182.034 -182.377C182.742 -182.81 181.91 -183.137 180.185 -183.106C178.459 -183.074 177.88 -182.72 178.897 -182.319ZM288.185 -181.439C288.773 -180.352 289.722 -176.266 290.292 -172.356C291.009 -167.445 291.365 -166.529 291.442 -169.395C291.64 -176.715 290.32 -183.414 288.681 -183.414C287.555 -183.414 287.415 -182.859 288.185 -181.439ZM321.637 -182.268C323.517 -181.918 326.34 -181.924 327.912 -182.284C329.483 -182.646 327.945 -182.933 324.494 -182.924C321.043 -182.916 319.758 -182.621 321.637 -182.268ZM339.939 -182.319C340.956 -181.918 342.368 -181.945 343.076 -182.377C343.784 -182.81 342.951 -183.137 341.226 -183.106C339.5 -183.074 338.921 -182.72 339.939 -182.319ZM175.131 -180.78C174.747 -180.202 174.433 -174.042 174.433 -167.092C174.433 -160.141 174.698 -154.854 175.022 -155.343C175.467 -156.017 176.338 -181.844 175.915 -181.836C175.867 -181.834 175.513 -181.36 175.131 -180.78ZM362.414 -180.717C363.715 -180.34 365.597 -180.354 366.597 -180.749C367.597 -181.144 366.532 -181.453 364.232 -181.436C361.931 -181.419 361.113 -181.095 362.414 -180.717ZM376.519 -180.673C379.251 -180.348 383.721 -180.348 386.453 -180.673C389.186 -180.998 386.95 -181.265 381.486 -181.265C376.022 -181.265 373.786 -180.998 376.519 -180.673ZM24.0969 -178.657C11.8672 -178.065 1.51456 -177.056 1.09104 -176.413C0.667522 -175.77 11.1028 -175.452 24.282 -175.707C47.2492 -176.151 48.2772 -176.042 49.0447 -173.078C49.485 -171.379 49.9472 -161.457 50.0716 -151.032C50.2985 -132.137 50.3017 -132.115 51.1048 -143.924C52.1788 -159.728 51.2669 -175.74 49.1483 -178.28C48.2416 -179.365 47.2377 -180.138 46.9167 -179.994C46.5946 -179.85 36.3267 -179.248 24.0969 -178.657ZM415.209 -178.28C414.569 -177.067 414.462 -172.041 414.933 -165.248C415.554 -156.273 415.762 -155.38 416.035 -160.509C416.22 -163.985 416.265 -169.148 416.135 -171.985C415.949 -176.07 416.401 -177.448 418.301 -178.599C420.625 -180.008 420.631 -180.057 418.475 -180.155C417.252 -180.209 415.782 -179.365 415.209 -178.28ZM427.759 -177.587C428.765 -177.188 430.413 -177.188 431.419 -177.587C432.425 -177.983 431.602 -178.308 429.589 -178.308C427.576 -178.308 426.753 -177.983 427.759 -177.587ZM62.5408 -169.197C61.5986 -168.278 61.469 -167.657 62.2177 -167.641C62.9026 -167.629 63.7539 -168.328 64.1094 -169.197C64.9115 -171.159 64.5497 -171.159 62.5408 -169.197ZM108.553 -166.038C108.553 -165.169 108.995 -164.458 109.537 -164.458C110.078 -164.458 110.811 -165.169 111.167 -166.038C111.522 -166.907 111.079 -167.618 110.183 -167.618C109.287 -167.618 108.553 -166.907 108.553 -166.038ZM290.712 -157.35C290.733 -154.744 290.967 -153.869 291.233 -155.406C291.499 -156.943 291.481 -159.075 291.194 -160.145C290.908 -161.214 290.691 -159.957 290.712 -157.35ZM175.561 -141.423C175.612 -139.583 175.859 -139.208 176.193 -140.467C176.495 -141.608 176.458 -142.971 176.11 -143.496C175.763 -144.02 175.516 -143.088 175.561 -141.423ZM295.98 -139.185C295.98 -136.144 296.195 -134.899 296.457 -136.421C296.721 -137.942 296.721 -140.428 296.457 -141.949C296.195 -143.47 295.98 -142.226 295.98 -139.185ZM377.905 -140.956C377.58 -140.164 378.019 -139.109 378.878 -138.61C379.738 -138.112 380.44 -138.351 380.44 -139.141C380.44 -141.283 378.582 -142.613 377.905 -140.956ZM290.772 -135.236C290.783 -131.761 290.998 -130.525 291.248 -132.49C291.498 -134.455 291.488 -137.299 291.227 -138.809C290.965 -140.319 290.76 -138.711 290.772 -135.236ZM170.407 -129.707C169.036 -123.766 170.499 -123.46 172.287 -129.312L173.614 -133.656L175.198 -130.102C176.808 -126.485 182.799 -124.927 182.799 -128.128C182.799 -128.996 181.68 -129.707 180.312 -129.707C178.945 -129.707 177.241 -130.773 176.525 -132.077C174.385 -135.97 171.603 -134.893 170.407 -129.707ZM223.582 -128.128C222.287 -126.864 222.378 -126.611 224.105 -126.684C225.255 -126.731 227.138 -127.38 228.288 -128.128C230.204 -129.371 230.16 -129.492 227.765 -129.571C226.327 -129.62 224.445 -128.97 223.582 -128.128ZM47.8903 -125.062C46.4461 -123.431 41.9756 -121.353 37.9559 -120.443L30.6463 -118.789L38.9044 -119.509C43.447 -119.904 47.725 -120.934 48.4121 -121.795C49.0991 -122.656 49.9712 -122.894 50.3498 -122.323C50.7283 -121.751 51.0379 -122.823 51.0379 -124.705C51.0379 -128.788 51.1738 -128.772 47.8903 -125.062ZM202.542 -126.398C201.643 -125.537 203.86 -125.049 208.419 -125.104C218.47 -125.223 221.332 -127.379 211.732 -127.6C207.472 -127.698 203.336 -127.156 202.542 -126.398ZM304.706 -126.745C304.395 -125.986 305.3 -125.363 306.717 -125.363C308.134 -125.363 309.039 -125.986 308.728 -126.745C308.416 -127.505 307.512 -128.128 306.717 -128.128C305.922 -128.128 305.018 -127.505 304.706 -126.745ZM186.217 -125.453C187.235 -125.052 188.647 -125.079 189.355 -125.512C190.062 -125.945 189.23 -126.272 187.505 -126.24C185.779 -126.208 185.2 -125.855 186.217 -125.453ZM247.895 -125.368C255.229 -125.096 267.228 -125.096 274.561 -125.368C281.894 -125.64 275.894 -125.861 261.228 -125.861C246.562 -125.861 240.562 -125.64 247.895 -125.368ZM320.834 -124.889C336.295 -122.871 387.382 -120.865 399.263 -121.809C405.104 -122.274 393.253 -123.093 370.506 -123.799C349.226 -124.46 326.873 -125.299 320.834 -125.662L309.854 -126.322L320.834 -124.889ZM98.9403 -123.457C77.2615 -122.94 59.2018 -122.032 58.8086 -121.438C57.9438 -120.132 135.127 -121.675 153.519 -123.332L166.59 -124.51L152.473 -124.452C144.708 -124.42 120.618 -123.972 98.9403 -123.457ZM433.523 -122.272C434.824 -121.894 436.707 -121.909 437.706 -122.304C438.706 -122.699 437.641 -123.008 435.341 -122.991C433.04 -122.973 432.223 -122.65 433.523 -122.272ZM445.041 -120.651C447.501 -120.316 451.265 -120.321 453.407 -120.661C455.548 -121 453.536 -121.274 448.935 -121.267C444.334 -121.263 442.581 -120.985 445.041 -120.651ZM467.497 -120.721C468.503 -120.323 470.151 -120.323 471.157 -120.721C472.163 -121.117 471.34 -121.443 469.327 -121.443C467.314 -121.443 466.491 -121.117 467.497 -120.721ZM7.42289 -119.058C11.3287 -118.753 17.4461 -118.754 21.0173 -119.062C24.5874 -119.369 21.3916 -119.618 13.9147 -119.615C6.43782 -119.614 3.51607 -119.361 7.42289 -119.058ZM475.863 -119.141C476.869 -118.743 478.517 -118.743 479.523 -119.141C480.529 -119.538 479.706 -119.863 477.693 -119.863C475.68 -119.863 474.857 -119.538 475.863 -119.141ZM152.473 -116.947C138.738 -116.333 147.151 -116.156 174.094 -116.494C198.351 -116.797 221.094 -116.589 224.634 -116.031L231.07 -115.014L230.403 -105.38C229.925 -98.4832 230.045 -96.4187 230.826 -98.1151C232.323 -101.371 232.23 -114.432 230.693 -116.754C229.34 -118.798 195.675 -118.881 152.473 -116.947ZM238.737 -114.903C237.511 -112.077 236.95 -104.689 236.457 -84.8907L235.803 -58.6251L272.829 -58.9995L309.854 -59.3723L273.354 -59.8098L236.853 -60.2458L237.491 -84.9286C238.356 -118.359 237.347 -116.835 259.033 -117.47L275.345 -117.947L257.854 -118.298C240.483 -118.647 240.35 -118.625 238.737 -114.903ZM114.435 -112.134C114.075 -109.419 113.848 -97.5133 113.931 -85.6758L114.08 -64.1537L114.905 -82.3191C115.36 -92.3101 115.92 -104.217 116.15 -108.777C116.606 -117.832 115.481 -120.035 114.435 -112.134ZM278.061 -116.391C278.308 -116.017 288.387 -115.398 300.456 -115.015C312.527 -114.631 321.462 -114.887 320.311 -115.582C318.196 -116.863 277.23 -117.647 278.061 -116.391ZM344.886 -115.93C347.647 -115.586 350.132 -114.268 350.899 -112.745C352.065 -110.428 352.206 -110.417 352.206 -112.651C352.206 -115.905 349.928 -117.135 344.539 -116.794L340.18 -116.519L344.886 -115.93ZM71.9523 -113.891C98.5555 -112.548 108.191 -110.904 109.754 -107.441C110.536 -105.71 110.687 -105.892 110.439 -108.269C110.25 -110.084 108.854 -111.87 106.984 -112.692C105.259 -113.45 91.1413 -114.309 75.6124 -114.601L47.3778 -115.132L71.9523 -113.891ZM355.867 -113.914C354.696 -111.052 355.789 -110.602 360.152 -112.148C362.447 -112.96 363.239 -113.663 361.965 -113.753C360.717 -113.84 359 -114.316 358.149 -114.808C357.298 -115.303 356.271 -114.9 355.867 -113.914ZM366.597 -114.374C367.898 -113.996 369.78 -114.011 370.78 -114.406C371.78 -114.8 370.715 -115.11 368.415 -115.093C366.114 -115.075 365.296 -114.752 366.597 -114.374ZM2.68577 -112.794C3.98664 -112.417 5.86894 -112.431 6.86866 -112.826C7.86837 -113.221 6.80382 -113.53 4.50323 -113.513C2.20264 -113.496 1.38489 -113.172 2.68577 -112.794ZM17.8843 -112.736C22.3673 -112.439 29.4259 -112.441 33.5701 -112.739C37.7133 -113.039 34.0449 -113.281 25.4177 -113.279C16.7905 -113.278 13.4002 -113.033 17.8843 -112.736ZM475.34 -112.076C472.402 -110.455 471.398 -105.124 473.44 -101.985C473.976 -101.161 474.604 -97.6413 474.833 -94.1661C475.113 -89.9138 475.307 -91.3465 475.425 -98.5495C475.588 -108.398 475.809 -109.37 478.215 -110.752C479.653 -111.578 480.83 -112.627 480.83 -113.082C480.83 -114.292 478.623 -113.887 475.34 -112.076ZM466.19 -111.734C466.19 -111.407 467.014 -110.163 468.02 -108.97C469.678 -107.007 469.715 -107.062 468.415 -109.567C467.048 -112.199 466.19 -113.034 466.19 -111.734ZM469.409 -103.513C469.46 -101.672 469.707 -101.298 470.041 -102.557C470.343 -103.697 470.306 -105.061 469.958 -105.585C469.611 -106.11 469.364 -105.178 469.409 -103.513ZM470.716 -75.2109C470.721 -69.1295 470.909 -66.8359 471.136 -70.112C471.362 -73.3896 471.359 -78.3654 471.128 -81.1692C470.896 -83.9745 470.711 -81.2924 470.716 -75.2109ZM230.022 -79.1599C230.022 -76.988 230.259 -76.0987 230.549 -77.1854C230.839 -78.2706 230.839 -80.0477 230.549 -81.1344C230.259 -82.2196 230.022 -81.3319 230.022 -79.1599ZM474.622 -76.3956C474.509 -74.4401 474.385 -69.2842 474.346 -64.9372C474.281 -57.5984 474.543 -56.7596 477.997 -53.2181C481.16 -49.9752 481.81 -49.7698 482.338 -51.8454C483.053 -54.6619 481.216 -58.6251 479.195 -58.6251C477.174 -58.6251 476.427 -61.2014 475.584 -71.0913C475.169 -75.9644 474.736 -78.3512 474.622 -76.3956ZM106.49 -62.4967C102.437 -58.1733 102.571 -57.8416 107.351 -60.3595C109.162 -61.3136 110.644 -63.0906 110.644 -64.3085C110.644 -67.0539 110.848 -67.1439 106.49 -62.4967ZM54.6916 -60.1952C51.8964 -55.5291 53.3928 -54.7946 56.2707 -59.4212C57.6186 -61.59 58.2429 -63.3639 57.6562 -63.3639C57.0706 -63.3639 55.7363 -61.9375 54.6916 -60.1952ZM82.4095 -61.5379C80.9717 -60.5743 78.1482 -59.1906 76.1352 -58.464C73.4634 -57.4988 73.8869 -57.4277 77.7038 -58.1986C80.5795 -58.7799 86.697 -59.1795 91.2982 -59.0879C98.3725 -58.9457 99.0188 -59.1321 95.4811 -60.2884C87.0243 -63.0559 84.9684 -63.2517 82.4095 -61.5379ZM114.827 -60.9455C114.827 -59.0484 116.689 -58.6646 125.023 -58.8399L135.219 -59.0563L126.45 -60.3326C121.627 -61.0356 117.04 -61.9818 116.254 -62.4367C115.448 -62.9042 114.827 -62.2566 114.827 -60.9455ZM185.238 -60.2711C162.135 -59.8003 142.999 -59.0595 142.711 -58.6251C141.743 -57.1608 228.273 -58.8747 229.281 -60.3405C229.897 -61.2362 229.7 -61.6595 228.758 -61.4557C227.925 -61.2741 208.34 -60.7418 185.238 -60.2711ZM321.096 -59.1164C322.102 -58.7183 323.75 -58.7183 324.756 -59.1164C325.762 -59.5128 324.939 -59.8382 322.926 -59.8382C320.913 -59.8382 320.09 -59.5128 321.096 -59.1164ZM344.624 -57.5099C345.919 -57.134 348.036 -57.134 349.33 -57.5099C350.625 -57.8874 349.565 -58.1954 346.977 -58.1954C344.389 -58.1954 343.33 -57.8874 344.624 -57.5099ZM391.094 -56.946C391.345 -55.8071 392.169 -54.5623 392.924 -54.1817C393.709 -53.7868 394.101 -54.3791 393.839 -55.5638C393.587 -56.7043 392.763 -57.949 392.009 -58.3281C391.225 -58.723 390.833 -58.1307 391.094 -56.946ZM399.263 -57.0455C398.026 -55.8371 398.247 -55.5291 400.309 -55.5812C401.747 -55.6175 404.806 -56.2367 407.106 -56.9554L411.289 -58.2618L406.061 -58.4197C403.185 -58.5066 400.126 -57.8874 399.263 -57.0455ZM446.321 -56.9523C446.321 -56.033 446.792 -55.7186 447.367 -56.2557C447.942 -56.7928 448.412 -57.5446 448.412 -57.9285C448.412 -58.3123 447.942 -58.6251 447.367 -58.6251C446.792 -58.6251 446.321 -57.8716 446.321 -56.9523ZM65.4824 -55.9666C66.2364 -55.5101 67.1389 -55.567 67.486 -56.0914C67.8332 -56.6158 67.2162 -56.9886 66.1141 -56.9207C64.8958 -56.8449 64.6479 -56.4705 65.4824 -55.9666ZM376.258 -52.3067C376.258 -51.4379 376.963 -50.7271 377.826 -50.7271C378.689 -50.7271 379.395 -51.4379 379.395 -52.3067C379.395 -53.1755 378.689 -53.8863 377.826 -53.8863C376.963 -53.8863 376.258 -53.1755 376.258 -52.3067ZM180.912 -51.1804C179.567 -50.7918 178.067 -48.7494 177.514 -46.5538C175.186 -37.3052 177.09 -0.040802 180.268 7.3233L181.801 10.8774L212.887 10.5694L243.974 10.2614L214.171 9.29938C197.779 8.77023 183.59 7.79401 182.641 7.129C180.342 5.52097 179.876 2.45654 178.454 -20.3592C177.493 -35.7746 177.517 -40.5165 178.569 -43.4846C180.382 -48.6057 183.665 -50.5328 189.149 -49.6972C191.695 -49.3086 197.308 -49.6451 201.622 -50.4443C209.379 -51.8802 209.322 -51.896 196.393 -51.8865C189.204 -51.8818 182.237 -51.5627 180.912 -51.1804ZM240.575 -51.1757C242.156 -50.814 244.745 -50.814 246.327 -51.1757C247.908 -51.5374 246.614 -51.8328 243.451 -51.8328C240.287 -51.8328 238.994 -51.5374 240.575 -51.1757ZM258.894 -51.1615C260.773 -50.8108 263.597 -50.8171 265.168 -51.1773C266.74 -51.539 265.202 -51.8265 261.751 -51.817C258.3 -51.8091 257.015 -51.5137 258.894 -51.1615ZM279.281 -51.1725C280.871 -50.8108 283.224 -50.8203 284.51 -51.1946C285.796 -51.569 284.495 -51.866 281.62 -51.8549C278.744 -51.8423 277.692 -51.5358 279.281 -51.1725ZM63.5865 -49.7588C69.6245 -48.6167 90.5421 -48.4414 90.0935 -49.5361C89.8258 -50.1916 83.1635 -50.6212 75.2892 -50.4901C67.4149 -50.3606 62.1487 -50.0305 63.5865 -49.7588ZM94.9582 -49.1475L91.2982 -47.9833L95.4811 -47.947C97.7817 -47.9265 102.487 -48.4398 105.938 -49.0875L112.213 -50.2627L105.415 -50.2863C101.677 -50.3006 96.9712 -49.7872 94.9582 -49.1475ZM142.539 -49.089C155.192 -48.5283 166.721 -47.5947 168.159 -47.0118C170.28 -46.1541 170.18 -46.3911 167.636 -48.2692C165.142 -50.1095 159.89 -50.5359 142.016 -50.3448L119.533 -50.1063L142.539 -49.089ZM16.529 -47.5679C13.188 -45.9519 31.1451 -45.9093 40.5807 -47.511C46.1878 -48.4635 44.9068 -48.6799 33.2606 -48.7494C25.4961 -48.7952 17.9669 -48.2629 16.529 -47.5679ZM49.3333 -31.7719C49.3333 -22.6497 49.5059 -18.9186 49.7171 -23.4789C49.9284 -28.0392 49.9284 -35.5045 49.7171 -40.0648C49.5059 -44.6251 49.3333 -40.8941 49.3333 -31.7719ZM170.333 -40.3286C170.383 -38.4883 170.631 -38.114 170.964 -39.3729C171.267 -40.5134 171.229 -41.8766 170.882 -42.401C170.535 -42.9254 170.288 -41.9935 170.333 -40.3286ZM171.449 -17.5555C171.296 -12.7771 170.807 -5.52045 170.36 -1.43088C169.915 2.65872 169.91 6.88733 170.351 7.96463C171.739 11.3576 172.456 3.0726 172.08 -12.0268C171.836 -21.8282 171.64 -23.5453 171.449 -17.5555ZM53.2444 -10.0523C53.1753 -2.3028 53.5528 2.9794 54.175 2.9794C55.1089 2.9794 55.8137 -4.77646 55.2511 -8.86761C55.1319 -9.73642 54.6571 -13.2905 54.196 -16.7656C53.488 -22.1063 53.3406 -21.0669 53.2444 -10.0523ZM325.485 -20.2755C324.662 -17.0357 325.561 -12.8166 327.076 -12.8166C328.414 -12.8166 328.458 -17.546 327.148 -20.6704C326.315 -22.6623 326.076 -22.6054 325.485 -20.2755ZM298.071 -11.237C298.071 -8.19629 298.286 -6.95157 298.549 -8.47272C298.812 -9.9939 298.812 -12.4802 298.549 -14.0013C298.286 -15.5225 298.071 -14.2778 298.071 -11.237ZM48.9464 -3.44168C48.9464 -0.0234375 48.4727 4.77539 47.8944 7.22061C46.9135 11.3687 46.9491 11.4603 48.4173 8.6012C49.852 5.80688 50.743 -9.65744 49.4693 -9.65744C49.1817 -9.65744 48.9464 -6.85995 48.9464 -3.44168ZM294.774 -2.41812C294.824 -0.577881 295.072 -0.203491 295.405 -1.46243C295.708 -2.60291 295.67 -3.96613 295.323 -4.49054C294.976 -5.01498 294.729 -4.08301 294.774 -2.41812ZM292.972 4.23993C291.972 6.63617 289.393 6.92841 269.219 6.92841C251.812 6.92841 246.589 7.38489 246.589 8.90289C246.588 10.4114 251.096 10.8727 265.672 10.86C287.885 10.8395 292.26 10.0497 293.77 5.78635C295.144 1.90842 294.481 0.624207 292.972 4.23993ZM299.085 6.3139C299.469 8.05621 302.995 8.53485 316.214 8.64069L332.86 8.77496L317.174 7.85089C308.547 7.34384 300.839 6.29654 300.045 5.52411C299.028 4.53214 298.744 4.76434 299.085 6.3139ZM165.022 8.08942C163.286 9.25198 144.834 10.1476 110.121 10.7542C62.9403 11.5787 59.7927 11.7873 77.8868 12.8898C96.6345 14.0319 159.683 13.0809 164.645 11.5819C165.876 11.2091 167.155 9.8317 167.487 8.52222C167.821 7.21115 167.99 6.18442 167.865 6.23813C167.738 6.2934 166.459 7.12585 165.022 8.08942ZM419.132 7.17484C428.551 9.35782 429.13 9.63583 426.975 10.9548C425.268 11.9989 425.52 12.2548 428.344 12.3464C430.4 12.4112 431.542 11.8157 431.158 10.8774C430.802 10.0086 431.128 9.21564 431.881 9.11615C434.756 8.73389 424.679 6.32657 420.701 6.44504C418.285 6.51611 417.622 6.82416 419.132 7.17484ZM339.462 8.79706C340.216 9.25357 341.118 9.19672 341.465 8.67227C341.812 8.14786 341.195 7.77505 340.093 7.84299C338.875 7.91879 338.627 8.29318 339.462 8.79706ZM347.827 8.79706C348.581 9.25357 349.484 9.19672 349.831 8.67227C350.178 8.14786 349.561 7.77505 348.459 7.84299C347.241 7.91879 346.993 8.29318 347.827 8.79706ZM358.567 8.2916C358.808 8.60596 363.003 9.25043 367.892 9.7243C374.096 10.323 375.517 10.1776 372.598 9.24249C368.456 7.91406 357.727 7.18588 358.567 8.2916ZM444.491 8.80655C445.497 9.20459 447.145 9.20459 448.151 8.80655C449.157 8.41006 448.334 8.08466 446.321 8.08466C444.308 8.08466 443.485 8.41006 444.491 8.80655ZM470.895 8.88235C472.621 9.26147 474.971 11.0875 476.116 12.9388C477.974 15.9416 478.237 16.0111 478.546 13.5912C478.74 12.0637 479.887 10.8284 481.168 10.7668C486.456 10.5078 479.178 7.9425 473.51 8.0657C470.217 8.13837 469.099 8.48746 470.895 8.88235ZM325.867 13.5359C326.621 13.9924 327.524 13.9355 327.871 13.4111C328.218 12.8867 327.601 12.5139 326.499 12.5818C325.281 12.6576 325.033 13.032 325.867 13.5359ZM269.332 19.8211C270.052 20.2603 271.228 20.2603 271.947 19.8211C272.666 19.3836 272.077 19.025 270.64 19.025C269.202 19.025 268.614 19.3836 269.332 19.8211ZM124.761 21.9346L121.624 23.1399L125.284 23.2362C127.297 23.2883 130.826 22.7434 133.127 22.0247L137.31 20.7183L132.604 20.7231C130.016 20.7262 126.487 21.2712 124.761 21.9346ZM154.042 21.9946C152.781 22.8476 161.721 23.034 176.525 22.4638C190.041 21.9425 201.296 21.2554 201.535 20.9363C202.503 19.6442 155.979 20.6804 154.042 21.9946ZM228.5 21.4607C231.099 22.2221 231.941 25.2549 233.017 37.7307L233.765 46.4185L233.902 35.2823C234.053 23.0577 233.083 20.2302 228.863 20.5699C226.472 20.7625 226.435 20.8557 228.5 21.4607ZM236.828 21.4086C236.444 21.9868 236.145 28.9181 236.162 36.8098C236.187 47.7122 236.461 50.4638 237.305 48.2713C237.917 46.6838 238.256 40.2864 238.058 34.0549L237.699 22.7244L243.451 21.7972L249.202 20.87L243.364 20.6125C240.153 20.4703 237.211 20.8289 236.828 21.4086ZM353.334 22.8555C353.384 24.6957 353.632 25.0701 353.966 23.8112C354.268 22.6707 354.23 21.3075 353.883 20.7831C353.536 20.2587 353.289 21.1906 353.334 22.8555ZM40.3192 23.1146C47.9394 23.3847 60.4096 23.3847 68.0309 23.1146C75.651 22.846 69.4165 22.6249 54.175 22.6249C38.9336 22.6249 32.698 22.846 40.3192 23.1146ZM106.445 23.3278C109.721 24.2045 110.166 24.9453 110.83 30.6224C111.999 40.6166 111.836 78.4765 110.619 79.6138C110.03 80.1635 99.7957 81.0086 87.8745 81.4919C75.9543 81.9769 65.495 83.021 64.6323 83.814C63.0323 85.2862 107.367 84.0604 110.905 82.5345C112.546 81.8284 112.734 79.26 112.724 57.7647C112.718 44.5735 112.421 31.1169 112.064 27.8581C111.433 22.0847 111.306 21.9394 107.108 22.1431L102.801 22.3501L106.445 23.3278ZM117.128 23.8301C116.437 24.8727 115.936 27.539 116.015 29.7536L116.157 33.7816L116.638 29.8326C116.903 27.6607 117.602 24.9959 118.192 23.9091C119.562 21.3896 118.782 21.3312 117.128 23.8301ZM378.153 23.0135C378.907 23.47 379.81 23.4131 380.157 22.8887C380.504 22.3643 379.887 21.9915 378.785 22.0594C377.567 22.1352 377.319 22.5096 378.153 23.0135ZM358.563 48.2997C358.518 53.6783 358.87 58.4424 359.346 58.8878C359.823 59.3333 360.023 55.6433 359.791 50.6881C359.19 37.9076 358.659 36.8745 358.563 48.2997ZM233.209 64.1337C233.026 75.1498 232.688 77.3565 230.971 78.745C229.858 79.6438 222.211 80.4589 213.978 80.5568C205.744 80.6532 194.537 81.2866 189.073 81.9627C181.745 82.8709 186.052 83.1347 205.492 82.972C222.947 82.8235 232.229 82.168 232.985 81.0259C233.694 79.9534 233.993 73.9857 233.775 65.2299L233.423 51.1573L233.209 64.1337ZM82.4095 60.5038C82.4095 61.8796 83.1552 63.0043 84.0649 63.0043C85.9117 63.0043 85.5906 59.6034 83.6519 58.6272C82.968 58.2828 82.4095 59.1279 82.4095 60.5038ZM115.07 67.7431C115.07 70.7838 115.285 72.0269 115.547 70.5074C115.811 68.9878 115.811 66.4984 115.547 64.9788C115.285 63.4592 115.07 64.7023 115.07 67.7431ZM358.57 63.7941C358.679 66.7858 360.421 71.8248 360.482 69.3227C360.514 68.0195 360.083 65.8871 359.526 64.5839C358.969 63.2807 358.538 62.9253 358.57 63.7941ZM237.419 69.3227C237.419 72.3634 237.634 73.6066 237.897 72.087C238.16 70.5674 238.16 68.0779 237.897 66.5584C237.634 65.0388 237.419 66.282 237.419 69.3227ZM52.4371 78.4054L50.2902 82.7493L27.7392 83.5486C15.3359 83.9877 4.79813 84.9576 4.32232 85.7047C3.84129 86.4598 14.1166 86.5814 27.5091 85.978L51.5607 84.896L53.9084 80.6626L56.256 76.4309L56.2613 80.7748C56.2654 83.8076 56.8029 85.1187 58.0442 85.1187C59.4267 85.1187 59.5427 84.6969 58.5671 83.2231C57.8769 82.1806 57.3122 79.6927 57.3122 77.6945C57.3122 72.7836 55.0524 73.1137 52.4371 78.4054ZM238.222 76.7121C238.222 81.6641 240.857 81.9595 285.141 81.9595C309.565 81.9595 329.267 81.5346 328.924 81.0149C328.58 80.4968 308.809 79.9629 284.99 79.8302C249.997 79.6359 241.349 79.1731 239.952 77.4229C239 76.2303 238.222 75.9096 238.222 76.7121ZM352.677 77.0991C352.131 77.9015 350.271 78.8603 348.546 79.2315C346.05 79.7686 346.317 79.955 349.853 80.143C353.176 80.3199 354.297 79.7828 354.297 78.0105C354.297 75.2541 354.034 75.1072 352.677 77.0991ZM115.873 80.0118C115.873 82.6608 121.822 83.5502 137.702 83.269L152.996 83.0005L137.31 81.9406C128.683 81.3577 120.331 80.3356 118.748 79.6691C117.017 78.9393 115.873 79.0767 115.873 80.0118ZM164.063 80.9596C164.303 81.2787 166.381 82.0164 168.682 82.5977C171.679 83.3559 172.42 83.1995 171.296 82.0416C169.885 80.59 163.014 79.5632 164.063 80.9596ZM369.199 81.5298C371.356 81.871 374.886 81.871 377.042 81.5298C379.199 81.1902 377.434 80.9106 373.12 80.9106C368.807 80.9106 367.043 81.1902 369.199 81.5298ZM232.798 92.516C233.552 92.9725 234.454 92.9156 234.802 92.3912C235.149 91.8668 234.532 91.494 233.43 91.5619C232.211 91.6377 231.964 92.0121 232.798 92.516ZM302.861 92.516C303.615 92.9725 304.518 92.9156 304.865 92.3912C305.212 91.8668 304.595 91.494 303.493 91.5619C302.275 91.6377 302.027 92.0121 302.861 92.516ZM49.0405 99.73L49.1347 106.443L50.1166 101.31L51.0975 96.1759L80.6099 96.1522C100.05 96.1364 109.586 95.6057 108.553 94.5963C107.638 93.7023 94.8944 93.0547 77.9652 93.0404L48.9464 93.0167L49.0405 99.73ZM185.19 94.1856C188.518 94.4999 193.694 94.4968 196.693 94.1793C199.691 93.8618 196.968 93.6043 190.642 93.6075C184.315 93.6106 181.862 93.8712 185.19 94.1856ZM297.48 94.0703C296.515 95.5283 296.598 126.188 297.567 126.188C297.999 126.188 298.351 118.725 298.351 109.603C298.351 100.48 298.311 93.0167 298.264 93.0167C298.216 93.0167 297.863 93.4906 297.48 94.0703ZM8.96637 95.7415C10.8455 96.0922 13.669 96.0859 15.2407 95.7257C16.8124 95.364 15.2742 95.0765 11.8233 95.086C8.3724 95.0939 7.08721 95.3893 8.96637 95.7415ZM29.3705 95.7589C32.1197 96.0859 36.3549 96.0811 38.782 95.751C41.2091 95.4193 38.9598 95.1523 33.7835 95.1571C28.6071 95.1618 26.6213 95.4335 29.3705 95.7589ZM145.676 96.1949C157.179 96.7114 166.708 97.2753 166.852 97.4459C166.995 97.6165 167.12 107.173 167.129 118.685C167.138 131.104 167.604 140.579 168.274 141.984C169.212 143.956 169.298 143.867 168.78 141.46C168.438 139.869 168.159 128.673 168.159 116.581V94.5963L146.46 94.9249L124.761 95.255L145.676 96.1949ZM171.761 101.36C171.479 102.474 171.704 107.271 172.262 112.022C173.217 120.148 173.26 120.238 172.98 113.552C172.815 109.642 173.063 104.845 173.532 102.889C174.426 99.1472 172.702 97.6576 171.761 101.36ZM48.4591 118.924C48.7268 125.787 48.9464 136.295 48.9464 142.272C48.9464 149.619 49.3699 153.32 50.2536 153.694C50.973 153.999 53.5748 155.165 56.0364 156.283C59.2677 157.752 60.829 157.839 61.653 156.594C62.476 155.351 61.4355 154.564 57.9093 153.765C50.5788 152.105 50.011 150.568 49.8688 132C49.8008 123.155 49.3459 113.788 48.8586 111.182C48.2646 108.012 48.1329 110.576 48.4591 118.924ZM419.215 125.53C419.265 127.37 419.513 127.744 419.846 126.485C420.149 125.345 420.111 123.982 419.764 123.457C419.417 122.933 419.17 123.865 419.215 125.53ZM297.305 129.348C296.488 131.347 297.872 131.347 299.92 129.348C301.272 128.029 301.244 127.814 299.72 127.792C298.748 127.779 297.661 128.479 297.305 129.348ZM175.1 131.717C175.432 133.02 175.888 134.086 176.114 134.086C176.339 134.086 176.525 133.02 176.525 131.717C176.525 130.414 176.069 129.348 175.511 129.348C174.955 129.348 174.77 130.414 175.1 131.717ZM42.6721 146.602C42.6721 147.404 41.4538 150.247 39.9647 152.92C37.3975 157.529 38.1755 159.537 41.3493 156.493C42.7045 155.193 44.4551 145.144 43.3257 145.144C42.9659 145.144 42.6721 145.799 42.6721 146.602ZM165.502 149.988C165.122 150.914 165.063 152.051 165.37 152.516C166.12 153.647 168.159 151.653 168.159 149.789C168.159 147.77 166.354 147.905 165.502 149.988ZM349.592 149.972C347.291 150.691 343.33 151.321 340.79 151.37C338.25 151.421 336.453 151.887 336.797 152.407C337.759 153.861 357.435 151.276 357.435 149.694C357.435 148.078 355.427 148.15 349.592 149.972ZM359.526 150.102C359.526 150.849 360.702 151.462 362.14 151.462C363.578 151.462 364.755 151.189 364.755 150.857C364.755 150.524 363.578 149.911 362.14 149.495C360.702 149.08 359.526 149.353 359.526 150.102ZM27.0731 153.609C28.3227 155.236 33.2606 156.068 33.2606 154.651C33.2606 153.767 31.7704 153.042 29.9488 153.042C28.1282 153.042 26.8336 153.298 27.0731 153.609ZM68.2923 154.703C65.9917 155.28 73.0503 155.798 83.9781 155.852C94.9059 155.907 103.376 155.711 102.801 155.417C100.596 154.293 72.2702 153.707 68.2923 154.703ZM109.075 154.645C114.41 155.95 127.033 156.67 126.243 155.623C126.004 155.305 120.866 154.667 114.827 154.206C107.423 153.639 105.549 153.781 109.075 154.645ZM235.608 154.583C240.784 155.169 246.016 156.458 247.235 157.449C248.454 158.439 249.755 158.788 250.128 158.224C251.78 155.73 243.722 153.056 235.226 153.28L226.196 153.517L235.608 154.583ZM255.215 154.13C256.222 154.528 257.868 154.528 258.875 154.13C259.882 153.733 259.058 153.408 257.045 153.408C255.032 153.408 254.208 153.733 255.215 154.13ZM266.195 154.087C266.915 154.526 268.091 154.526 268.81 154.087C269.529 153.65 268.94 153.291 267.502 153.291C266.065 153.291 265.477 153.65 266.195 154.087ZM138.594 155.762C140.45 156.111 143.744 156.116 145.914 155.774C148.083 155.432 146.565 155.147 142.539 155.139C138.513 155.133 136.737 155.413 138.594 155.762ZM5.83757 157.359C8.29711 157.694 12.0617 157.689 14.2034 157.349C16.345 157.01 14.333 156.736 9.73184 156.743C5.13066 156.747 3.37803 157.025 5.83757 157.359ZM156.394 157.246C157.114 157.686 158.29 157.686 159.009 157.246C159.728 156.809 159.139 156.45 157.702 156.45C156.264 156.45 155.676 156.809 156.394 157.246ZM247.385 163.636C248.686 164.013 250.568 163.999 251.568 163.604C252.567 163.21 251.503 162.9 249.202 162.917C246.902 162.935 246.084 163.258 247.385 163.636ZM199.335 165.178C200.089 165.634 200.991 165.577 201.339 165.053C201.686 164.528 201.069 164.156 199.967 164.224C198.748 164.299 198.5 164.674 199.335 165.178ZM234.237 189.767C234.436 215.592 234.823 212.526 235.333 181.076C235.483 171.735 235.254 164.094 234.824 164.096C234.393 164.097 234.128 175.65 234.237 189.767ZM55.7436 167.234L102.801 168.048L103.324 177.525C103.803 186.205 103.913 186.554 104.631 181.672C105.063 178.74 105.415 173.941 105.415 171.01V165.678L57.0508 166.05L8.68612 166.419L55.7436 167.234ZM111.69 167.222C110.461 168.392 110.045 173.098 109.77 188.918C109.577 200.027 109.645 208.762 109.923 208.328C110.2 207.893 110.635 199.438 110.891 189.537C111.482 166.595 111.402 166.71 125.807 167.961C131.559 168.46 140.735 168.253 146.199 167.498C155.262 166.249 154.253 166.111 134.696 165.928C122.76 165.816 112.563 166.389 111.69 167.222ZM166.918 166.757C167.671 167.214 168.574 167.157 168.921 166.633C169.268 166.108 168.651 165.735 167.549 165.803C166.331 165.879 166.083 166.253 166.918 166.757ZM104.558 218.02L104.37 225.345L99.6431 226.416C97.0434 227.005 82.3374 227.412 66.9642 227.322C51.59 227.231 33.3652 227.844 26.4634 228.682L13.9147 230.207L29.6006 229.425C38.2278 228.995 58.5388 228.515 74.7371 228.359C90.9353 228.201 104.492 227.616 104.863 227.057C105.236 226.499 105.361 222.59 105.143 218.369L104.746 210.697L104.558 218.02ZM235.51 218.33C235.852 219.92 236.131 221.521 236.131 221.884C236.131 222.247 237.425 222.498 239.006 222.445L241.882 222.343L239.297 220.786C237.876 219.928 236.302 218.374 235.8 217.331C235.208 216.102 235.107 216.455 235.51 218.33ZM228.381 222.14C227.953 222.787 224.933 223.749 221.67 224.277L215.739 225.239L222.213 225.471C225.84 225.601 228.991 224.962 229.376 224.018C230.22 221.956 229.457 220.514 228.381 222.14ZM243.974 224.138C242.71 224.95 249.21 225.525 260.382 225.593C270.8 225.654 279.146 225.059 279.485 224.228C280.251 222.358 246.878 222.274 243.974 224.138ZM282.143 223.165C282.143 223.506 282.872 224.209 283.765 224.727C284.696 225.266 285.116 225 284.75 224.106C284.136 222.604 282.143 221.885 282.143 223.165ZM123.996 226.849C125.875 227.199 128.698 227.193 130.27 226.833C131.842 226.471 130.304 226.183 126.853 226.193C123.402 226.201 122.117 226.496 123.996 226.849ZM145.937 226.749C146.657 227.188 147.833 227.188 148.551 226.749C149.271 226.311 148.682 225.953 147.244 225.953C145.806 225.953 145.219 226.311 145.937 226.749ZM170.454 226.882C176.605 227.16 186.958 227.161 193.46 226.883C199.962 226.605 194.929 226.378 182.276 226.376C169.623 226.375 164.303 226.602 170.454 226.882ZM51.2993 241.035L47.9007 246.715V270.041C47.9007 282.871 48.1862 294.492 48.5355 295.866C49.0374 297.844 50.6206 298.302 56.1169 298.06L63.0637 297.757L56.6377 297.199C48.7864 296.52 48.9799 297.236 48.9611 268.863L48.9464 248.048L52.8449 243.194C56.6639 238.438 56.987 238.335 68.7921 238.1C79.8162 237.879 80.2627 237.76 74.0438 236.704C70.3053 236.07 64.4231 235.506 60.9722 235.453C55.0618 235.359 54.5013 235.683 51.2993 241.035ZM90.0716 236.223C90.8036 237.331 105.61 236.993 106.365 235.852C106.61 235.483 102.888 235.181 98.0954 235.181C93.3028 235.181 89.692 235.65 90.0716 236.223ZM174.433 236.76C173.57 237.602 173.335 238.291 173.91 238.291C174.485 238.291 175.662 237.602 176.525 236.76C177.387 235.919 177.623 235.23 177.047 235.23C176.472 235.23 175.296 235.919 174.433 236.76ZM201.622 236.854C201.622 237.773 202.092 238.087 202.668 237.55C203.243 237.013 203.713 236.261 203.713 235.878C203.713 235.494 203.243 235.181 202.668 235.181C202.092 235.181 201.622 235.934 201.622 236.854ZM42.8687 242.586C43.5003 246.014 43.7408 255.07 43.4271 263.614C43.0548 273.767 43.1929 277.382 43.8538 274.791C45.2665 269.254 44.5554 237.966 42.9994 237.185C42.0593 236.715 42.0279 238.023 42.8687 242.586ZM171.501 267.075C171.388 283.313 171.649 296.931 172.08 297.335C172.511 297.739 172.742 289.074 172.593 278.078C172.09 241.188 171.707 237.329 171.501 267.075ZM12.3461 270.591C12.3461 271.967 13.0917 273.091 14.0015 273.091C14.9124 273.091 15.4718 272.248 15.2438 271.216C14.5976 268.286 12.3461 267.801 12.3461 270.591ZM42.2308 285.333C41.7968 285.986 40.8013 288.827 40.0191 291.652L38.5959 296.785L27.301 297.018C17.0446 297.229 16.5834 297.359 22.2805 298.425C25.7314 299.073 31.052 299.679 34.1034 299.772L39.6521 299.945L41.7728 292.705C43.7795 285.851 43.9751 282.717 42.2308 285.333ZM162.833 293.013C162.063 294.413 160.477 296.146 159.307 296.861C157.373 298.046 157.427 298.174 159.886 298.266C161.797 298.335 162.945 297.202 163.786 294.416C165.16 289.862 164.83 289.377 162.833 293.013ZM129.728 297.874C130.736 298.272 132.381 298.272 133.389 297.874C134.396 297.477 133.572 297.152 131.559 297.152C129.545 297.152 128.721 297.477 129.728 297.874ZM205.543 297.831C206.263 298.27 207.439 298.27 208.158 297.831C208.877 297.393 208.288 297.035 206.851 297.035C205.413 297.035 204.825 297.393 205.543 297.831ZM255.247 297.948C257.996 298.275 262.231 298.27 264.658 297.94C267.085 297.608 264.836 297.341 259.659 297.346C254.483 297.351 252.497 297.623 255.247 297.948ZM211.884 304.183C212.638 304.639 213.54 304.582 213.887 304.058C214.234 303.533 213.617 303.161 212.515 303.229C211.297 303.304 211.049 303.679 211.884 304.183ZM5.54895 306.176C12.7247 308.571 56.6712 310.136 58.9655 308.078C60.5194 306.686 57.6698 306.364 46.3321 306.656C38.2801 306.863 24.8687 306.525 16.529 305.906C7.14159 305.209 2.95974 305.312 5.54895 306.176ZM66.4623 305.729C67.1817 306.168 68.3582 306.168 69.0766 305.729C69.796 305.292 69.2073 304.933 67.7694 304.933C66.3316 304.933 65.7439 305.292 66.4623 305.729ZM85.5467 307.61C85.5467 308.351 88.0167 308.651 91.0368 308.275C99.0972 307.272 99.5082 306.53 92.0825 306.388C88.4883 306.32 85.5467 306.87 85.5467 307.61ZM247.438 307.342C248.192 307.798 249.095 307.742 249.442 307.217C249.789 306.693 249.172 306.32 248.07 306.388C246.851 306.464 246.604 306.838 247.438 307.342ZM236.647 312.976C236.305 315.801 236.184 325.574 236.38 334.696L236.735 351.282L236.956 332.617C237.077 322.353 237.664 312.578 238.259 310.898C238.956 308.929 238.973 307.843 238.306 307.843C237.737 307.843 236.99 310.152 236.647 312.976ZM114.191 329.957C114.191 341.686 114.355 346.483 114.557 340.619C114.758 334.756 114.758 325.158 114.557 319.295C114.355 313.431 114.191 318.228 114.191 329.957ZM109.802 316.53C109.823 319.137 110.057 320.012 110.323 318.475C110.589 316.938 110.571 314.805 110.284 313.736C109.998 312.667 109.781 313.924 109.802 316.53ZM233.396 333.116C233.396 343.976 233.563 348.419 233.767 342.989C233.972 337.56 233.972 328.674 233.767 323.244C233.563 317.815 233.396 322.256 233.396 333.116ZM108.553 361.285C108.553 363.168 108.435 364.849 108.291 365.023C108.147 365.195 98.1477 365.756 86.0696 366.271L64.1094 367.204L86.3111 367.536L108.513 367.867L109.181 363.844C109.549 361.633 109.558 359.382 109.201 358.843C108.844 358.305 108.553 359.404 108.553 361.285ZM232.418 360.097C232.034 361.037 230.241 363.167 228.435 364.83C226.628 366.495 225.731 367.858 226.441 367.861C227.78 367.867 235.118 358.518 233.84 358.436C233.442 358.41 232.802 359.158 232.418 360.097ZM48.4236 364.814L40.0578 365.708L50.2536 365.999C55.8607 366.157 60.4494 366.015 60.4494 365.683C60.4494 364.277 56.2665 363.974 48.4236 364.814ZM114.827 366.01C114.827 368.496 119.044 369.414 129.467 369.198L139.401 368.991L128.207 367.776C122.05 367.108 116.52 366.103 115.92 365.542C115.318 364.982 114.827 365.192 114.827 366.01ZM17.3133 367.334C18.0328 367.773 19.2092 367.773 19.9276 367.334C20.6471 366.896 20.0584 366.537 18.6205 366.537C17.1826 366.537 16.5949 366.896 17.3133 367.334ZM181.558 367.367C182.312 367.823 183.214 367.766 183.561 367.242C183.908 366.718 183.291 366.345 182.189 366.413C180.971 366.489 180.723 366.863 181.558 367.367ZM147.506 368.956C148.513 369.354 150.159 369.354 151.166 368.956C152.173 368.559 151.349 368.234 149.336 368.234C147.323 368.234 146.499 368.559 147.506 368.956ZM7.37897 376.896C8.96115 377.258 11.5493 377.258 13.1304 376.896C14.7126 376.535 13.418 376.239 10.2547 376.239C7.09139 376.239 5.79784 376.535 7.37897 376.896ZM30.3849 376.854C31.3908 377.252 33.0389 377.252 34.0449 376.854C35.0509 376.457 34.2279 376.132 32.2149 376.132C30.2019 376.132 29.3789 376.457 30.3849 376.854ZM40.3318 376.882C41.6327 377.26 43.5149 377.246 44.5147 376.851C45.5144 376.456 44.4498 376.146 42.1492 376.164C39.8486 376.181 39.0309 376.505 40.3318 376.882ZM47.4186 379.024C47.7961 379.948 48.4581 391.498 48.8889 404.693L49.6722 428.682L49.8175 406.568C49.966 384.079 49.4818 377.345 47.7167 377.345C47.175 377.345 47.0411 378.1 47.4186 379.024ZM54.8589 378.53C54.5933 379.182 56.5645 379.503 59.2416 379.242C66.8785 378.501 67.805 377.729 61.2954 377.528C58.0223 377.427 55.1256 377.877 54.8589 378.53ZM53.3489 410.806C53.1063 438.22 52.4925 435.852 60.4494 438.226C62.4624 438.826 63.8459 438.897 63.5248 438.383C63.2028 437.868 61.0852 436.865 58.8191 436.155L54.6979 434.865L54.1332 410.449L53.5696 386.033L53.3489 410.806ZM48.2123 433.018C47.2461 436.22 46.0508 437.313 42.9858 437.795L39.0121 438.419L42.7338 438.684C47.175 439.002 50.3644 435.926 49.8416 431.83C49.5205 429.309 49.2779 429.486 48.2123 433.018ZM4.50323 435.79C0.936272 436.755 1.39848 436.934 7.6404 437.007C11.6664 437.054 17.3133 436.539 20.1891 435.863C25.037 434.723 24.808 434.634 17.0519 434.647C12.4507 434.653 6.80382 435.168 4.50323 435.79ZM34.1108 436.869C34.8647 437.326 35.7672 437.269 36.1144 436.744C36.4616 436.22 35.8446 435.847 34.7424 435.915C33.5241 435.991 33.2763 436.365 34.1108 436.869ZM142.866 436.869C143.62 437.326 144.522 437.269 144.87 436.744C145.217 436.22 144.6 435.847 143.498 435.915C142.279 435.991 142.031 436.365 142.866 436.869ZM75.9397 438.449C76.6936 438.905 77.5961 438.849 77.9433 438.324C78.2904 437.8 77.6735 437.427 76.5713 437.495C75.353 437.571 75.1052 437.945 75.9397 438.449ZM121.951 438.449C122.705 438.905 123.608 438.849 123.955 438.324C124.302 437.8 123.685 437.427 122.583 437.495C121.365 437.571 121.117 437.945 121.951 438.449ZM149.617 438.465C150.635 438.866 152.046 438.839 152.754 438.406C153.462 437.973 152.63 437.646 150.904 437.678C149.179 437.71 148.6 438.063 149.617 438.465ZM11.0798 441.7C14.6969 442.009 20.3438 442.008 23.6284 441.695C26.9131 441.382 23.9537 441.129 17.0519 441.133C10.1501 441.136 7.46263 441.392 11.0798 441.7ZM53.9795 443.188C54.7335 443.644 55.6359 443.587 55.9831 443.063C56.3303 442.538 55.7133 442.166 54.6111 442.234C53.3928 442.309 53.145 442.684 53.9795 443.188ZM69.612 443.226C70.9129 443.603 72.7952 443.589 73.7949 443.194C74.7946 442.799 73.73 442.49 71.4295 442.507C69.1289 442.524 68.3111 442.848 69.612 443.226ZM111.328 446.985C111.992 448.212 112.771 450.994 113.059 453.166C113.423 455.913 113.532 455.469 113.42 451.708C113.323 448.465 112.63 445.991 111.69 445.527C110.453 444.917 110.376 445.225 111.328 446.985ZM2.93465 500.431C1.8105 501.617 5.66189 502.093 16.529 502.108C24.8687 502.123 48.7823 502.909 69.6695 503.857C90.5568 504.806 108.792 505.148 110.191 504.618C111.671 504.056 112.729 502.51 112.72 500.919C112.706 498.698 112.528 498.603 111.767 500.418C110.973 502.312 104.275 502.491 67.646 501.589C43.8935 501.004 19.9695 500.134 14.4815 499.652C8.26888 499.109 3.91135 499.403 2.93465 500.431ZM134.977 504.808C135.994 505.209 137.406 505.182 138.114 504.75C138.822 504.317 137.99 503.99 136.264 504.021C134.539 504.053 133.959 504.407 134.977 504.808ZM150.186 504.792C150.94 505.249 151.842 505.192 152.19 504.667C152.537 504.143 151.92 503.77 150.818 503.838C149.599 503.914 149.351 504.288 150.186 504.792ZM0.843203 511.633C-0.260034 512.726 0.36008 512.886 2.93465 512.172C7.44485 510.923 8.29502 510.024 4.9393 510.055C3.54953 510.07 1.70592 510.779 0.843203 511.633ZM38.2403 511.148C39.5412 511.526 41.4235 511.512 42.4232 511.117C43.4229 510.722 42.3584 510.412 40.0578 510.43C37.7572 510.447 36.9394 510.771 38.2403 511.148ZM57.3948 513.005C55.4278 513.542 53.6041 515.047 53.3426 516.35C52.9746 518.186 53.1617 518.302 54.1719 516.868C54.8893 515.851 56.1556 515.412 56.987 515.894C57.8183 516.375 59.526 515.984 60.7809 515.023C62.0368 514.061 64.946 513.02 67.2466 512.709C70.8177 512.226 70.665 512.134 66.2009 512.085C63.3251 512.054 59.3629 512.467 57.3948 513.005ZM57.1167 567.976C57.8706 568.433 58.7731 568.376 59.1203 567.851C59.4674 567.327 58.8505 566.954 57.7483 567.022C56.53 567.098 56.2822 567.472 57.1167 567.976ZM8.9601 569.594C10.261 569.971 12.1433 569.957 13.143 569.562C14.1427 569.167 13.0782 568.858 10.7776 568.875C8.47698 568.892 7.65922 569.216 8.9601 569.594ZM21.0121 575.964C24.3395 576.279 29.5159 576.276 32.515 575.958C35.5131 575.641 32.79 575.383 26.4634 575.386C20.1368 575.389 17.6835 575.65 21.0121 575.964ZM43.8046 575.358C44.0451 575.667 45.8877 576.378 47.9007 576.936C50.4753 577.65 51.0954 577.49 49.9922 576.397C48.5742 574.993 42.7683 574.018 43.8046 575.358ZM58.6194 575.884C59.6253 576.282 61.2734 576.282 62.2794 575.884C63.2854 575.487 62.4624 575.162 60.4494 575.162C58.4364 575.162 57.6134 575.487 58.6194 575.884ZM3.98037 584.366C3.98037 586.154 4.45095 587.179 5.02609 586.642C6.38344 585.376 6.38344 581.114 5.02609 581.114C4.45095 581.114 3.98037 582.578 3.98037 584.366Z" fill="#A0A0A0"/>
</svg>
