<svg width="465" height="1192" fill="none" xmlns="http://www.w3.org/2000/svg"><path fill-rule="evenodd" clip-rule="evenodd" d="M223.475-41.544c-.123 12.053.128 16.409.817 14.216.817-2.594.997-2.358 1.01 1.323.024 7.17 2.434 9.652 8.79 9.063 3.203-.297 6.956.124 8.34.937 1.384.81 7.5.623 13.591-.417l11.075-1.891-11.896-.295c-6.542-.162-12.711-1.21-13.708-2.325-1.205-1.348-2.858-1.203-4.931.433-2.152 1.7-3.989 1.824-5.924.4-2.94-2.162-3.43-5.081-4.847-28.816-.931-15.583-2.124-11.79-2.317 7.372zm224.334-5.792c0 6.371.34 11.584.755 11.582.416 0 .599 4.738.406 10.53-.202 6.123.075 10.533.662 10.533.554 0 .772 1.9.481 4.223-.837 6.695 1.482 10.52 6.377 10.52 3.246 0 4.407-.832 4.407-3.16 0-1.737-.48-3.158-1.066-3.158-.586 0-.786.947-.444 2.106 1.011 3.422-4.162 2.413-5.548-1.08-.721-1.818-1.578-13.016-1.995-26.047-.401-12.574-1.048-23.934-1.435-25.246-1.58-5.348-2.6-1.74-2.6 9.197zM.001-51.548c.02 3.475.246 4.642.502 2.592.255-2.049.238-4.892-.038-6.318-.275-1.426-.484.25-.464 3.726zm270.62-1.982c0 1.805.46 2.687 1.023 1.96.563-.728.763-2.204.444-3.283-.863-2.921-1.467-2.378-1.467 1.323zm67.532.05c.048 2.454.287 2.953.608 1.275.291-1.521.255-3.339-.079-4.038-.335-.699-.572.544-.529 2.763zM107.27-49.442c-.399 3.475-.369 11.057.066 16.849 1.033 13.72 1.925 4.964 1.181-11.584-.46-10.212-.607-10.836-1.247-5.265zm111.074 4.212c.023 4.634.402 12.216.843 16.85.738 7.765.808 7.345.886-5.354.046-7.578-.333-15.16-.843-16.85-.655-2.163-.917-.579-.886 5.354zm115.976 3.16c0 5.212.197 7.346.437 4.738.24-2.607.24-6.87 0-9.477-.24-2.608-.437-.474-.437 4.738zm5.034 4.212c0 5.212.196 7.346.437 4.738.24-2.607.24-6.87 0-9.477-.241-2.608-.437-.474-.437 4.739zm104.764-3.16c0 1.738.377 3.16.839 3.16.461 0 .839-1.422.839-3.16 0-1.737-.378-3.159-.839-3.159-.462 0-.839 1.422-.839 3.16zm8.918 7.53c.199 1.245.792 2.264 1.317 2.264.526 0 1.119-1.02 1.317-2.264.198-1.245-.394-2.264-1.317-2.264-.923 0-1.515 1.02-1.317 2.264zm-262.354 1.62c-.348 1.179-.143 2.777.456 3.553 1.549 2 2.547-.74 1.255-3.444-.723-1.512-1.286-1.548-1.711-.11zM334.206-21.01c0 2.896.228 4.081.507 2.632.28-1.447.28-3.816 0-5.265-.279-1.447-.507-.263-.507 2.633zm-177.851 0c-.342 1.158-.142 2.106.444 2.106s1.066-.948 1.066-2.106c0-1.159-.199-2.106-.444-2.106s-.724.947-1.066 2.106zm-55.371 4.378c-7.343 3.26-47.933 6.372-74.753 5.731C8.928-11.313-.08-10.805.136-9.426c.55 3.47 14.265 3.663 53.53.757 20.488-1.519 39.968-2.783 43.29-2.812 4.387-.036 6.523-1.06 7.803-3.736.969-2.027 1.421-3.577 1.007-3.444-.415.133-2.568 1.047-4.782 2.03zm66.949-.136c-1.063 1.457-.466 1.67 2.013.718 4.342-1.666 5.161-2.865 1.93-2.823-1.338.02-3.113.965-3.943 2.105zm50.337.094c0 1.226.453 1.645 1.007.93.554-.717 1.007-1.72 1.007-2.231 0-.512-.453-.93-1.007-.93-.554 0-1.007 1.006-1.007 2.231zm67.956-.124l-10.068 1.291 12.274.407c7.315.244 12.525-.443 12.895-1.698.368-1.243-.537-1.94-2.206-1.697-1.555.223-7.358.987-12.895 1.697zm22.01 2.574c-.541 1.834 21.765-.05 22.765-1.923.263-.493-4.626-.687-10.864-.432-6.239.255-11.594 1.314-11.901 2.355zm33.613.926c.692.586 1.825.586 2.517 0 .692-.583.126-1.061-1.259-1.061-1.384 0-1.95.478-1.258 1.061zm9.124.045c.726.608 1.595.533 1.929-.167.334-.699-.26-1.196-1.321-1.105-1.173.1-1.411.6-.608 1.272zm26.867.493c-4.877.848.806 1.76 18.452 2.956 16.912 1.148 27.083 2.736 30.202 4.716 5.553 3.526 12.255 3.964 12.255.803 0-1.226-.415-1.696-.922-1.04-.506.654-1.094.1-1.306-1.233-.262-1.643-6.861-2.965-20.473-4.1-11.048-.923-22.578-2.05-25.623-2.503-3.046-.455-8.709-.276-12.585.4zm-14.327 1.634c.98.535 2.339.499 3.02-.078.682-.577-.119-1.013-1.781-.971-1.661.042-2.218.514-1.239 1.049zM225.501-6.793l51.023.565.435 4.72c.371 4.022.456 3.864.573-1.073l.136-5.791-51.596.507-51.596.506 51.025.566zm57.472 1.053c-1.552 4.16-3.107 19.857-2.253 22.749.426 1.44 1.096 12.914 1.489 25.496.393 12.58 1.163 23.454 1.709 24.162.548.708 15.335 2.068 32.861 3.022a13939.4 13939.4 0 0152.504 2.96c12.49.74 19.843.478 18.625-.666-1.108-1.038-20.588-2.607-43.291-3.486-22.702-.878-45.58-2.184-50.841-2.902-9.31-1.272-9.568-1.445-9.715-6.571-1.602-55.718-1.623-58.93-.382-62.055 1.519-3.83 13.362-4.539 17.733-1.062 2.399 1.908 2.576 1.78 1.451-1.053-1.657-4.178-18.367-4.675-19.89-.594zm24.395-.526c-1.706 1.533-1.552 1.794 1.006 1.708 1.661-.055 4.38-.824 6.041-1.708 2.886-1.538 2.842-1.611-1.007-1.708-2.215-.057-4.933.712-6.04 1.708zM133.992-4.708c3.203.42 8.187.415 11.074-.008 2.887-.424.265-.767-5.826-.763-6.091.005-8.453.352-5.248.771zm32.98 1.485c-.692 1.742-1.366 11.877-1.579 23.694-.414 23.102.214 20.916 1.312-4.566.65-15.059.984-17.064 3.241-19.45 2.34-2.47 2.366-2.662.375-2.69-1.178-.017-2.685 1.338-3.349 3.012zm158.303-1.485c3.203.42 8.187.415 11.074-.008 2.886-.424.265-.767-5.826-.763-6.091.005-8.453.352-5.248.771zm27.9.548c-2.15 1.44-1.901 1.716 1.702 1.895 2.321.116 4.499-.737 4.842-1.895.725-2.456-2.881-2.456-6.544 0zM62.224-1.803A2819.674 2819.674 0 0050.898.57c-.969.213-1.762 1.319-1.762 2.46 0 1.142-.544.94-1.208-.45C47.263 1.19 45.79.081 44.656.114c-2.051.066-2.051.08-.05 2.382 4.936 5.678 5.49 9.604 5.514 39.023l.023 27.776 4.467 1.402c2.457.771 5.063.904 5.788.295.727-.609.106-1.181-1.38-1.272-1.488-.09-3.912-1.127-5.389-2.302l-2.684-2.136.707-28.93c.504-20.606 1.123-29.84 2.152-32.089C54.962 1.731 59.48.867 76.606-.093 88.353-.753 95.698-1.47 92.93-1.685c-2.769-.217-8.659-.78-13.088-1.252-4.43-.471-12.358.038-17.618 1.134zm39.011-.834c1.799.467 4.745.467 6.544 0 1.799-.466.327-.85-3.272-.85-3.599 0-5.07.384-3.272.85zm56.63.067c0 1.158.68 3.286 1.51 4.728.843 1.462 1.51 1.691 1.51.516 0-1.158-.679-3.285-1.51-4.728-.843-1.462-1.51-1.691-1.51-.516zm217.71-.057c2.077.455 5.475.455 7.551 0 2.077-.453.377-.826-3.776-.826s-5.851.373-3.775.826zm12.648 2.011c.726.61 1.595.533 1.929-.166.334-.7-.26-1.196-1.321-1.106-1.173.101-1.412.6-.608 1.272zm7.096.142c-.37 4.195.305 61.295.787 66.492.395 4.267.988 5.588 2.107 4.69.856-.686 2.653.254 3.993 2.09 1.34 1.837 2.937 2.99 3.551 2.563.614-.427-.936-3.292-3.443-6.365-4.127-5.06-4.619-6.518-5.203-15.446-.355-5.421-.646-19.619-.646-31.55V.307l3.775-.828 3.776-.825-4.279-.354c-2.353-.194-4.341.356-4.418 1.226zM4.839 2.232c-2.492.849.68 1.055 7.047.455C18.254 2.089 23.652 1.25 23.884.825 24.604-.502 9.602.606 4.838 2.232zm24.413-.729c.969.531 2.556.531 3.524 0 .969-.528.176-.962-1.762-.962s-2.73.434-1.761.962zm387.6 0c.968.531 2.555.531 3.523 0 .969-.528.177-.962-1.761-.962s-2.731.434-1.762.962zM161.187 42.175c0 6.37.189 8.978.419 5.792.231-3.187.231-8.398 0-11.584-.23-3.187-.419-.58-.419 5.792zm230.532 5.265c.008 5.792.204 7.91.435 4.71.231-3.202.225-7.94-.014-10.531-.239-2.59-.428.03-.421 5.821zm-115.037 0c-.499 6.599-.717 10.21-.878 14.53-.141 3.77-.821 3.916-11.978 2.56-6.507-.793-15.117-1.357-19.135-1.256-5.091.129-7.98-.806-9.536-3.085-2.824-4.139-4.804-4.185-4.804-.112 0 5.19-6.679 4.231-7.339-1.053-.289-2.317-1.077-4.212-1.751-4.212-.925 0-.943.707-.072 2.902 1.893 4.775-1.653 5.463-28.339 5.493l-24.917.03-.016-5.793c-.009-3.186-.455-7.213-.991-8.95-.708-2.292-.981-.477-.992 6.604l-.015 9.766 4.376 1.373c10.533 3.305 59.412.53 61.818-3.51.826-1.388 1.258-1.395 1.258-.021 0 2.594 11.372 4.568 29.114 5.054 13.375.367 13.517.32 14.394-4.638.486-2.752.713-8.357.504-12.451-.211-4.092-.526-5.548-.701-3.23zm-14.115 4.227c0 1.854 1.894 3.025 5.789 3.58 6.867.98 7.558.479 3.664-2.661-4.528-3.65-9.453-4.129-9.453-.919zM89.406 61.13c0 2.317.627 4.212 1.392 4.212.766 0 1.63-1.895 1.92-4.212.39-3.123.03-4.212-1.393-4.212-1.248 0-1.92 1.472-1.92 4.212zm-43.582 4.212c-.29 2.317-.116 4.213.386 4.213s.912-1.896.912-4.213c0-2.316-.174-4.212-.385-4.212-.213 0-.623 1.896-.913 4.212zM161.1 63.628c-1.728 3.614-40.261 5.347-43.297 1.948-1.382-1.548-2.314-1.63-2.724-.24-.346 1.171-5.42 2.228-11.387 2.371-5.92.142-15.52 1.01-21.334 1.928-7.181 1.133-3.63 1.312 11.074.554 11.905-.615 22.551-1.08 23.659-1.039 43.409 1.679 46.78 1.251 45.656-5.809-.268-1.678-.747-1.596-1.647.287zm247.445 10.139c2.01 2.717 7.346 2.717 6.544 0-.342-1.158-2.294-2.091-4.338-2.075-2.77.026-3.331.552-2.206 2.075zm-396.66 2.146c0 1.274 1.125 1.582 2.769.756 3.952-1.982 4.085-2.902.42-2.902-1.754 0-3.189.967-3.189 2.146zm409.56-.708c.725.609 1.594.533 1.929-.166.334-.7-.26-1.196-1.321-1.106-1.173.101-1.412.6-.608 1.272zM1.566 77.267c.693.586 1.826.586 2.518 0 .692-.583.126-1.061-1.259-1.061-1.384 0-1.95.478-1.258 1.061zm173.917.712l-14.094 1.234 12.584.188c6.921.103 18.7-.487 26.176-1.31l13.591-1.496-12.081.074c-6.645.042-18.424.632-26.176 1.31zm52.537-.63c-.273.925 21.918 1.428 49.316 1.119 32.198-.367 51.188.208 53.703 1.624 3.351 1.889 3.946 3.133 4.294 8.99l.405 6.8.146-6.32c.307-13.31 3.329-12.575-54.564-13.266-29.042-.347-53.027.127-53.3 1.053zm218.133 1.721c-.788 4.297 1.216 7.336 4.677 7.092 2.201-.156 2.264-.35.503-1.549-1.107-.751-2.013-2.712-2.013-4.353 0-4.402-2.412-5.307-3.167-1.19zm-361.278.375c-4.983.44-24.464 1.64-43.29 2.666L7.355 83.98l46.311-.945c25.471-.518 48.307-1.54 50.749-2.268l4.436-1.325-.709 28.134c-.391 15.473-1.164 29.275-1.718 30.673-.677 1.704-.66 2.989.047 3.905.581.75 1.056 3.159 1.056 5.354 0 5.722-5.423 8.29-18.624 8.82l-11.075.445 9.061.754c9.8.813 18.293-.693 20.582-3.652.981-1.268 1.465-6.083 1.528-15.181.322-46.457.487-49.912 2.563-53.96 1.635-3.186 3.125-3.755 7.803-2.98 3.179.529 5.523.384 5.209-.32-.74-1.66-27.973-3.022-39.698-1.988zm48.828.64c-4.125.87-5.427 1.656-3.524 2.13 3.453.855 5.646.556 14.095-1.928l6.04-1.773-5.033.095c-2.769.055-7.979.718-11.578 1.476zm88.594 1.858c0 1.158.453 2.692 1.007 3.408.554.716 1.007.353 1.007-.805s-.453-2.692-1.007-3.408c-.554-.716-1.007-.354-1.007.805zm122.32.248l-4.027 1.053v35.626c0 26.628-.318 35.848-1.258 36.508-3.717 2.599.299 3.708 14.094 3.892 28.523.379 40.624 1.297 37.502 2.841l-3.02 1.495 2.68 2.721c2.281 2.319 2.739 4.326 3.086 13.526.224 5.943.094 11.752-.29 12.911-.383 1.158-.332 4.001.114 6.318.447 2.317.844 7.923.883 12.462.038 4.537.364 7.635.722 6.885.358-.748.588-12.001.51-25.004-.118-19.939-.41-23.962-1.864-25.663-1.59-1.862-1.571-2.144.244-3.629 1.083-.887 7.405-1.812 14.05-2.054l12.081-.444-10.571-1.622c-5.814-.893-22.35-2.706-36.747-4.027-14.396-1.322-27.138-2.902-28.314-3.511-2.651-1.371-3.398-10.806-3.398-42.904v-22.58l5.285-1.329c8.475-2.129 19.884-1.632 19.884.866 0 1.226.534 1.54 1.186.695.653-.843 11.64-1.523 24.414-1.508 18.352.021 21.31-.324 14.093-1.64-10.958-1.997-55.652-3.37-61.339-1.884zM2.222 85.91C.674 88.074-.569 152.614.832 158.092c.946 3.697 2.035 4.088 10.334 3.72 8.378-.373 8.595-.476 2.23-1.062-12.62-1.164-11.58 1.881-11.563-33.843.015-35.522.375-39.93 3.36-41.152 1.98-.809 1.993-.906.15-1.14-1.108-.138-2.513.443-3.12 1.294zm323.77.495c0 1.158.426 2.106.948 2.106.521 0 1.227-.948 1.569-2.106.343-1.159-.084-2.106-.947-2.106s-1.57.947-1.57 2.106zm125.509 5.617c-1.473 3.079-.179 25.975 1.468 25.975 1.375 0 1.034-10.063-.378-11.133-1.006-.763-1.006-1.845 0-5.413 1.574-5.575 1.6-7.313.081-5.348-.792 1.024-.967.375-.535-1.981.681-3.711.469-4.413-.636-2.1zm-253.869 4.913c-.343 1.159-.142 2.106.444 2.106s1.066-.947 1.066-2.106c0-1.158-.2-2.106-.444-2.106-.245 0-.724.948-1.066 2.106zm26.039 20.009c.003 11.583.172 16.053.376 9.932.204-6.118.202-15.596-.004-21.061-.208-5.463-.374-.455-.372 11.129zm18.761-17.837c0 1.122.68 2.041 1.51 2.041.831 0 1.51-.373 1.51-.828 0-.455-.679-1.373-1.51-2.04-.83-.666-1.51-.294-1.51.827zm-15.436 3.445c-.37.771-.672 7.564-.672 15.093s.178 13.296.395 12.814c.387-.862 1.482-29.311 1.128-29.311-.099 0-.483.631-.851 1.404zM19.94 126.42c0 1.159.453 2.106 1.007 2.106.553 0 1.007-.947 1.007-2.106 0-1.158-.454-2.106-1.007-2.106-.554 0-1.007.948-1.007 2.106zm273.836 2.172c0 1.122.68 2.041 1.511 2.041.83 0 1.51-.373 1.51-.828 0-.455-.68-1.373-1.51-2.041-.831-.666-1.511-.293-1.511.828zm-182.283 15.73c-.298 6.951-.44 12.962-.316 13.355.124.396 4.904-.718 10.621-2.476l10.395-3.195-9.76 1.139-9.759 1.137-.319-11.297-.319-11.299-.543 12.636zm112.888-.821l-.07 5.499-15.134 1.506c-18.257 1.818-48.383 3.471-64.903 3.559-6.808.036-10.763.704-9.061 1.527 1.661.805 7.664 1.386 13.34 1.296 5.675-.091 10.319.701 10.319 1.76 0 1.06 1.246 1.262 2.768.449 1.523-.813 7.752-1.832 13.843-2.264 6.091-.432 19.229-1.42 29.196-2.197 18.825-1.468 22.504-1.386 41.78.931 6.368.767 26.301.893 44.297.282 27.523-.935 29.508-1.185 12.496-1.579-11.123-.259-32.534-1.095-47.582-1.862l-27.359-1.392-.903-6.506c-.639-4.608-.949-5.278-1.064-2.294l-.162 4.213-.865-4.213c-.781-3.801-.871-3.677-.936 1.285zm-180.277 7.374c0 1.367 1.053 1.918 2.53 1.329 3.654-1.462 3.972-4.149.46-3.89-1.643.122-2.988 1.274-2.99 2.561zm-13.174 5.699c-2.307 1.967-2.224 2.154 1.594 3.641 2.215.862 4.066 1.428 4.111 1.262.046-.169-.67-1.807-1.594-3.642-1.28-2.542-2.256-2.841-4.111-1.261zm20.668-.485c-1.037 3.513 1.296 7.54 2.685 4.634 1.162-2.431.435-6.923-1.12-6.923-.488 0-1.192 1.03-1.565 2.289zm273.388.624c0 1.87 4.073 2.847 4.589 1.101.31-1.049-.596-1.908-2.013-1.908-1.416 0-2.576.365-2.576.807zm16.558 5.333c.313 1.059 0 2.405-.696 2.992-.696.586.321 1.03 2.259.988 1.938-.042 2.726-.514 1.75-1.047-.976-.532-1.515-1.842-1.199-2.914.316-1.07-.158-1.947-1.054-1.947s-1.373.868-1.06 1.928zm83.614.471c9.843 3.383 21.85 4.158 21.408 1.38-.291-1.824-4.179-2.648-13.426-2.839-9.856-.204-11.794.149-7.982 1.459zm-241.117 1.814c0 2.42 32.269 2.491 52.854.116 10.437-1.203 6.409-1.582-19.883-1.866-21.424-.232-32.971.381-32.971 1.75zm80.351-.668c.726.609 1.595.533 1.929-.166.335-.7-.259-1.197-1.321-1.106-1.172.101-1.411.6-.608 1.272zm22.841.404c-2.99 1.329-3.022 1.496-3.161 16.072l-.14 14.731.743-13.197c.409-7.258 1.038-13.812 1.398-14.564.359-.752 4.844-2.016 9.967-2.808l9.314-1.442-7.551-.068c-4.152-.038-8.909.537-10.57 1.276zm172.154 1.113c1.661 1.52 3.234 2.375 3.495 1.897.8-1.466-2.368-4.791-4.502-4.726-1.526.048-1.282.733 1.007 2.829zm-378.89 1.554c-21.439 1.754-31.104 4.555-28.288 8.195.772.998 1.642 1.047 1.934.105 1.162-3.751 5.91-4.414 38.315-5.352 18.532-.535 38.728-1.604 44.881-2.377 7.664-.963 11.401-.683 11.866.888.461 1.563 1.49 1.649 3.225.27 3.009-2.395 8.472-2.61 10.132-.4.646.859 1.636 10.56 2.202 21.556l1.027 19.994-.305-20.763c-.217-14.829-.703-21.291-1.697-22.609-1.728-2.287-20.981-2.258-35.12.057-5.979.977-10.986.927-11.527-.12-1.065-2.058-5.56-1.99-36.645.556zm91.733-.944c.98.535 2.339.499 3.021-.078.681-.577-.12-1.013-1.781-.971-1.661.043-2.219.514-1.24 1.049zm105.215 1.173c.567 1.449 1.48 6.898 2.029 12.111.69 6.548 1.032 7.769 1.107 3.949.19-9.76-1.08-18.692-2.658-18.692-1.084 0-1.219.739-.478 2.632zm32.206-1.105c1.809.467 4.527.459 6.04-.021 1.514-.483.033-.866-3.29-.853-3.322.01-4.559.404-2.75.874zm17.619-.068c.98.535 2.339.499 3.02-.078.682-.577-.119-1.013-1.781-.971-1.661.043-2.219.514-1.239 1.049zm-158.666 2.052c-.369.771-.671 8.984-.671 18.251 0 9.267.254 16.317.566 15.666.429-.899 1.268-35.335.86-35.324-.046.002-.386.634-.755 1.407zm180.304.084c1.253.503 3.065.484 4.027-.042.963-.527-.062-.94-2.277-.916-2.215.023-3.002.455-1.75.958zm13.579.059c2.631.434 6.934.434 9.564 0 2.631-.434.479-.79-4.782-.79-5.26 0-7.412.356-4.782.79zm-339.288 2.687c-11.774.79-21.74 2.136-22.149 2.993-.407.857 9.639 1.281 22.327.942 22.111-.592 23.101-.447 23.84 3.504.424 2.266.869 15.495.989 29.396.218 25.193.221 25.223.994 9.477 1.034-21.072.156-42.422-1.883-45.808-.873-1.447-1.84-2.477-2.149-2.285-.31.191-10.195.994-21.97 1.781zm376.536.504c-.616 1.617-.719 8.319-.266 17.375.598 11.967.799 13.157 1.061 6.319.179-4.634.222-11.519.097-15.301-.179-5.447.256-7.283 2.085-8.819 2.238-1.878 2.243-1.944.168-2.074-1.178-.072-2.593 1.053-3.145 2.5zm12.083.924c.969.531 2.555.531 3.524 0 .968-.528.176-.962-1.762-.962s-2.73.434-1.762.962zM60.21 183.286c-.907 1.226-1.032 2.053-.311 2.075.66.016 1.479-.917 1.821-2.075.772-2.616.424-2.616-1.51 0zm44.297 4.212c0 1.159.426 2.106.948 2.106.521 0 1.227-.947 1.569-2.106.342-1.158-.085-2.106-.947-2.106-.863 0-1.57.948-1.57 2.106zm175.371 11.584c.02 3.475.246 4.642.502 2.593.255-2.05.238-4.893-.038-6.319-.276-1.426-.484.251-.464 3.726zm-110.859 21.236c.048 2.454.287 2.953.608 1.274.291-1.52.255-3.338-.08-4.037-.334-.699-.571.543-.528 2.763zm115.93 2.985c0 4.054.208 5.714.46 3.685.254-2.028.254-5.343 0-7.371-.252-2.028-.46-.369-.46 3.686zm78.872-2.361c-.312 1.055.11 2.462.937 3.127.828.664 1.505.346 1.505-.707 0-2.856-1.789-4.63-2.442-2.42zm-83.885 7.626c.011 4.633.217 6.28.458 3.66.24-2.62.231-6.411-.02-8.424-.252-2.014-.449.13-.438 4.764zm-115.879 7.371c-1.32 7.922.088 8.33 1.81.527l1.277-5.792 1.524 4.739c1.551 4.823 7.319 6.9 7.319 2.633 0-1.159-1.078-2.107-2.395-2.107-1.315 0-2.956-1.421-3.646-3.159-2.06-5.191-4.738-3.755-5.889 3.159zm51.193 2.107c-1.247 1.684-1.159 2.021.503 1.925 1.108-.064 2.92-.929 4.027-1.925 1.845-1.658 1.802-1.82-.503-1.926-1.384-.065-3.197.803-4.027 1.926zm-169.144 4.088c-1.39 2.173-5.695 4.945-9.565 6.158l-7.037 2.205 7.95-.96c4.374-.527 8.492-1.9 9.154-3.048.661-1.148 1.501-1.466 1.865-.703.365.762.663-.668.663-3.176 0-5.445.13-5.424-3.03-.476zm148.888-1.782c-.866 1.148 1.268 1.798 5.658 1.725 9.676-.158 12.431-3.033 3.189-3.328-4.101-.131-8.083.592-8.847 1.603zm98.357-.464c-.299 1.013.571 1.843 1.936 1.843 1.364 0 2.235-.83 1.936-1.843-.3-1.013-1.171-1.842-1.936-1.842-.766 0-1.636.829-1.936 1.842zm-114.073 1.723c.979.535 2.338.499 3.02-.078.681-.577-.12-1.013-1.781-.971-1.661.042-2.219.514-1.239 1.049zm59.379.114c7.06.362 18.613.362 25.672 0 7.059-.362 1.284-.657-12.836-.657-14.12 0-19.896.295-12.836.657zm70.221.638c14.885 2.692 64.067 5.367 75.506 4.107 5.623-.619-5.787-1.712-27.686-2.654-20.487-.88-42.006-1.998-47.82-2.483l-10.571-.88 10.571 1.91zm-213.625 1.91c-20.87.689-38.257 1.9-38.636 2.692-.833 1.742 73.474-.316 91.18-2.525l12.585-1.571-13.591.077c-7.475.043-30.668.641-51.538 1.327zm322.114 1.58c1.253.503 3.065.484 4.027-.042.963-.527-.062-.94-2.277-.916-2.215.023-3.002.455-1.75.958zm11.089 2.161c2.367.446 5.992.44 8.054-.013 2.061-.453.124-.817-4.305-.809-4.43.007-6.117.377-3.749.822zm21.619-.093c.968.531 2.555.531 3.523 0 .969-.528.176-.962-1.762-.962s-2.73.434-1.761.962zM7.146 250.139c3.76.406 9.65.404 13.088-.006 3.437-.409.36-.742-6.838-.738-7.198.003-10.011.34-6.25.744zm450.983-.112c.968.531 2.555.531 3.523 0 .969-.528.176-.962-1.762-.962s-2.73.434-1.761.962zm-311.338 2.926c-13.223.819-5.124 1.055 20.815.604 23.353-.404 45.249-.126 48.657.617l6.196 1.357-.642 12.845c-.46 9.195-.345 11.948.407 9.686 1.441-4.341 1.352-21.756-.128-24.852-1.303-2.726-33.713-2.835-75.305-.257zm83.049 2.725c-1.18 3.768-1.721 13.618-2.195 40.017l-.629 35.021 35.646-.5 35.645-.497-35.14-.583-35.14-.581.614-32.911c.832-44.574-.139-42.542 20.739-43.388l15.704-.636-16.84-.468c-16.723-.465-16.851-.436-18.404 4.526zm-119.67 3.692c-.346 3.621-.565 19.495-.485 35.278l.144 28.696.794-24.221c.438-13.321.977-29.197 1.198-35.277.439-12.073-.644-15.011-1.651-4.476zm157.529-5.676c.237.499 9.94 1.325 21.56 1.835 11.621.511 20.223.17 19.115-.757-2.036-1.708-41.476-2.752-40.675-1.078zm64.334.615c2.658.459 5.051 2.216 5.789 4.246 1.122 3.09 1.258 3.105 1.258.126 0-4.338-2.192-5.979-7.381-5.524l-4.196.366 4.53.786zm-262.762 2.719c25.612 1.79 34.888 3.983 36.393 8.599.753 2.309.898 2.067.659-1.103-.182-2.42-1.526-4.802-3.326-5.897-1.661-1.011-15.252-2.157-30.203-2.547l-27.182-.707 23.659 1.655zm273.334-.031c-1.128 3.816-.076 4.416 4.126 2.354 2.208-1.082 2.971-2.02 1.744-2.14-1.201-.115-2.854-.749-3.673-1.407-.82-.659-1.809-.122-2.197 1.193zm10.33-.613c1.253.503 3.065.484 4.027-.043.963-.526-.062-.939-2.277-.916-2.215.024-3.002.455-1.75.959zM2.585 258.49c1.253.503 3.065.484 4.028-.042.962-.527-.063-.94-2.278-.917-2.214.024-3.002.455-1.75.959zm14.633.078c4.316.396 11.111.394 15.101-.004 3.989-.401.457-.723-7.849-.721-8.305.002-11.57.329-7.252.725zm440.407.88c-2.828 2.161-3.794 9.269-1.829 13.454.516 1.099 1.121 5.792 1.341 10.425.27 5.67.457 3.76.571-5.844.156-13.132.369-14.427 2.686-16.27 1.384-1.102 2.517-2.5 2.517-3.107 0-1.613-2.125-1.074-5.286 1.342zm-8.809.455c0 .436.793 2.096 1.762 3.686 1.597 2.618 1.632 2.544.381-.796-1.316-3.509-2.143-4.623-2.143-2.89zm3.1 10.962c.048 2.454.287 2.953.608 1.275.291-1.521.255-3.339-.08-4.038-.334-.699-.571.544-.528 2.763zm1.257 37.736c.005 8.109.187 11.167.405 6.799.218-4.371.215-11.005-.008-14.743-.222-3.741-.401-.165-.397 7.944zm-231.724-5.265c0 2.896.229 4.081.508 2.632.28-1.447.28-3.816 0-5.265-.279-1.447-.508-.263-.508 2.633zm235.486 3.685c-.109 2.608-.229 9.482-.266 15.278-.063 9.785.189 10.904 3.514 15.626 3.046 4.324 3.671 4.598 4.179 1.83.689-3.755-1.08-9.039-3.025-9.039-1.946 0-2.665-3.436-3.476-16.622-.4-6.498-.817-9.68-.926-7.073zm-354.413 18.532c-3.902 5.765-3.773 6.207.828 2.85 1.744-1.272 3.171-3.642 3.171-5.265 0-3.661.196-3.781-3.999 2.415zm-49.869 3.069c-2.69 6.222-1.25 7.201 1.52 1.032 1.298-2.892 1.9-5.257 1.335-5.257-.564 0-1.849 1.902-2.855 4.225zm26.685-1.79c-1.384 1.285-4.102 3.13-6.04 4.098-2.572 1.287-2.165 1.382 1.51.354 2.769-.775 8.658-1.308 13.088-1.186 6.81.19 7.433-.059 4.027-1.6-8.142-3.69-10.121-3.951-12.585-1.666zm31.21.79c0 2.529 1.793 3.041 9.816 2.807l9.815-.288-8.441-1.702c-4.643-.937-9.06-2.199-9.816-2.806-.776-.623-1.374.241-1.374 1.989zm67.786.899c-22.241.628-40.664 1.615-40.941 2.195-.933 1.952 82.373-.333 83.344-2.288.593-1.194.402-1.758-.504-1.487-.802.243-19.658.952-41.899 1.58zm130.795 1.539c.969.531 2.556.531 3.524 0 .969-.528.176-.962-1.762-.962s-2.73.434-1.762.962zm22.652 2.142c1.247.502 3.284.502 4.531 0 1.246-.503.226-.914-2.265-.914-2.492 0-3.512.411-2.266.914zm44.738.752c.242 1.519 1.035 3.179 1.762 3.686.755.527 1.133-.263.881-1.843-.243-1.52-1.036-3.18-1.762-3.686-.755-.526-1.132.264-.881 1.843zm7.865-.132c-1.191 1.611-.978 2.022 1.007 1.952 1.384-.048 4.329-.874 6.544-1.832l4.027-1.742-5.034-.211c-2.769-.116-5.713.71-6.544 1.833zm45.304.124c0 1.226.453 1.645 1.007.929.553-.716 1.006-1.719 1.006-2.231 0-.511-.453-.928-1.006-.928-.554 0-1.007 1.004-1.007 2.23zM63.042 334.26c.726.609 1.595.533 1.929-.166.334-.699-.26-1.197-1.32-1.106-1.174.101-1.412.6-.609 1.272zm299.194 4.88c0 1.158.679 2.106 1.51 2.106.83 0 1.51-.948 1.51-2.106s-.68-2.106-1.51-2.106c-.831 0-1.51.948-1.51 2.106zm-188.066 1.502c-1.295.518-2.739 3.241-3.272 6.169-2.241 12.331-.407 62.017 2.652 71.836l1.476 4.738 29.928-.41 29.927-.411-28.692-1.283c-15.781-.705-29.44-2.007-30.354-2.893-2.213-2.144-2.662-6.23-4.032-36.651-.925-20.554-.902-26.877.111-30.834 1.746-6.828 4.906-9.398 10.186-8.284 2.451.518 7.855.07 12.008-.996 7.468-1.914 7.413-1.935-5.034-1.923-6.921.007-13.628.432-14.904.942zm57.44.006c1.522.482 4.014.482 5.537 0 1.522-.482.277-.876-2.769-.876-3.045 0-4.291.394-2.768.876zm17.636.019c1.809.468 4.527.459 6.04-.021 1.513-.482.033-.866-3.29-.853-3.322.01-4.559.404-2.75.874zm19.627-.015c1.531.483 3.796.47 5.034-.029 1.239-.499-.014-.895-2.782-.881-2.769.017-3.782.426-2.252.91zm-207.656 1.885c5.813 1.523 25.95 1.757 25.519.297-.258-.874-6.672-1.447-14.253-1.272-7.58.173-12.65.613-11.266.975zm30.202.815l-3.523 1.553 4.027.048c2.215.027 6.745-.657 10.067-1.521l6.041-1.567-6.544-.031c-3.6-.019-8.13.665-10.068 1.518zm45.808.078c12.181.748 23.281 1.993 24.665 2.77 2.042 1.143 1.946.828-.503-1.677-2.401-2.453-7.457-3.022-24.666-2.767l-21.645.318 22.149 1.356zm-121.314 2.028c-3.216 2.155 14.071 2.212 23.155.076 5.399-1.27 4.165-1.558-7.047-1.651-7.475-.061-14.724.649-16.108 1.575zm31.582 21.062c0 12.163.166 17.137.37 11.057.203-6.08.203-16.034 0-22.114-.204-6.081-.37-1.106-.37 11.057zm116.49-11.409c.048 2.454.287 2.953.608 1.274.291-1.521.255-3.338-.079-4.037-.335-.7-.572.543-.529 2.763zm1.074 30.364c-.147 6.371-.618 16.047-1.048 21.499-.429 5.453-.433 11.091-.009 12.528 1.337 4.524 2.027-6.523 1.665-26.655-.235-13.069-.424-15.358-.608-7.372zM51.26 395.479c-.066 10.333.297 17.376.896 17.376.9 0 1.578-10.341 1.036-15.796-.115-1.159-.572-5.897-1.016-10.531-.681-7.121-.823-5.735-.916 8.951zm262.095-13.631c-.793 4.32.073 9.945 1.532 9.945 1.288 0 1.33-6.305.069-10.471-.802-2.656-1.031-2.58-1.601.526zM286.963 393.9c0 4.054.207 5.714.46 3.685.254-2.028.254-5.343 0-7.371-.253-2.028-.46-.369-.46 3.686zm-239.84 10.393c0 4.558-.457 10.956-1.013 14.217-.945 5.53-.91 5.653.503 1.841 1.381-3.726 2.239-24.345 1.013-24.345-.277 0-.504 3.73-.504 8.287zm236.665 1.365c.049 2.454.287 2.953.609 1.274.291-1.52.254-3.338-.08-4.037-.334-.699-.572.543-.529 2.763zm-1.734 8.878c-.963 3.195-3.446 3.584-22.868 3.584-16.758 0-21.787.609-21.787 2.633-.001 2.011 4.339 2.626 18.373 2.609 21.384-.027 25.596-1.08 27.05-6.765 1.323-5.17.685-6.882-.768-2.061zm5.885 2.765c.37 2.323 3.765 2.961 16.491 3.102l16.025.179-15.101-1.232c-8.306-.676-15.726-2.072-16.491-3.102-.979-1.323-1.252-1.013-.924 1.053zm-129.067 2.367c-1.671 1.55-19.436 2.744-52.855 3.553-45.422 1.1-48.453 1.378-31.033 2.848 18.05 1.522 78.748.255 83.525-1.744 1.185-.497 2.417-2.334 2.737-4.08.321-1.748.484-3.117.363-3.045-.122.073-1.353 1.183-2.737 2.468zm244.64-1.219c9.068 2.91 9.626 3.281 7.551 5.04-1.643 1.392-1.4 1.733 1.318 1.855 1.979.087 3.078-.707 2.709-1.959-.342-1.158-.029-2.215.696-2.348 2.768-.51-6.934-3.719-10.764-3.561-2.325.094-2.963.505-1.51.973zm-76.701 2.163c.726.608 1.595.533 1.929-.167.334-.699-.26-1.196-1.321-1.105-1.173.101-1.411.6-.608 1.272zm8.054 0c.726.608 1.595.533 1.929-.167.334-.699-.26-1.196-1.321-1.105-1.173.101-1.411.6-.608 1.272zm10.339-.674c.232.419 4.271 1.278 8.978 1.91 5.973.798 7.341.604 4.53-.642-3.987-1.772-14.316-2.743-13.508-1.268zm82.722.686c.969.531 2.555.531 3.524 0 .968-.528.176-.962-1.762-.962s-2.73.434-1.762.962zm25.421.101c1.661.506 3.923 2.941 5.025 5.409 1.789 4.004 2.043 4.096 2.34.87.187-2.037 1.291-3.684 2.524-3.766 5.091-.345-1.916-3.766-7.373-3.601-3.17.096-4.246.562-2.516 1.088zm-139.624 6.205c.726.609 1.595.533 1.929-.166.334-.699-.26-1.197-1.321-1.106-1.173.101-1.411.6-.608 1.272zm-54.428 8.38c.693.586 1.825.586 2.517 0 .693-.583.126-1.061-1.258-1.061-1.385 0-1.95.478-1.259 1.061zm-139.183 2.818l-3.02 1.607 3.523.129c1.938.069 5.336-.657 7.551-1.615l4.027-1.742-4.531.006c-2.491.004-5.889.731-7.55 1.615zm28.189.08c-1.213 1.138 7.393 1.386 21.645.626 13.012-.695 23.848-1.611 24.079-2.037.932-1.722-43.859-.341-45.724 1.411zm71.684-.711c2.501 1.015 3.312 5.059 4.348 21.693l.721 11.584.131-14.849c.145-16.299-.788-20.069-4.851-19.616-2.301.257-2.338.381-.349 1.188zm8.017-.07c-.369.771-.657 10.013-.641 20.535.024 14.537.288 18.205 1.1 15.282.589-2.117.916-10.646.725-18.955l-.345-15.107 5.537-1.237 5.537-1.236-5.62-.343c-3.092-.19-5.924.288-6.293 1.061zm112.165 1.929c.048 2.454.286 2.953.608 1.275.291-1.521.254-3.339-.08-4.038-.334-.699-.572.543-.528 2.763zm-301.35.346c7.336.36 19.341.36 26.679 0 7.336-.358 1.334-.653-13.34-.653-14.673 0-20.677.295-13.34.653zm63.662.284c3.153 1.169 3.582 2.157 4.221 9.726 1.125 13.326.968 63.806-.203 65.322-.567.733-10.42 1.86-21.897 2.504-11.476.647-21.546 2.039-22.376 3.096-1.54 1.963 41.142.329 44.548-1.706 1.58-.941 1.761-4.366 1.751-33.026-.006-17.588-.292-35.531-.635-39.876-.608-7.697-.73-7.891-4.771-7.62l-4.147.276 3.509 1.304zm10.284.67c-.665 1.39-1.147 4.945-1.072 7.898l.137 5.37.463-5.265c.255-2.896.929-6.449 1.496-7.898 1.319-3.359.568-3.437-1.024-.105zm251.298-1.089c.726.609 1.594.533 1.929-.166.334-.7-.26-1.197-1.321-1.106-1.173.101-1.412.6-.608 1.272zM345.2 473.282c-.043 7.171.296 13.523.754 14.117.459.594.652-4.326.428-10.933-.578-17.04-1.089-18.418-1.182-3.184zm-120.682 21.112c-.176 14.688-.501 17.63-2.154 19.482-1.072 1.198-8.434 2.285-16.36 2.415-7.927.129-18.717.973-23.977 1.875-7.055 1.211-2.908 1.563 15.807 1.346 16.805-.198 25.741-1.072 26.469-2.595.682-1.43.97-9.387.76-21.061l-.339-18.764-.206 17.302zm-145.18-4.84c0 1.834.718 3.334 1.594 3.334 1.778 0 1.469-4.534-.398-5.836-.658-.459-1.196.668-1.196 2.502zm31.443 9.652c0 4.055.208 5.712.46 3.686.254-2.026.254-5.345 0-7.371-.252-2.026-.46-.369-.46 3.685zm234.426-5.265c.105 3.989 1.782 10.708 1.841 7.372.031-1.738-.384-4.581-.92-6.319-.537-1.737-.952-2.211-.921-1.053zm-116.636 7.372c0 4.054.208 5.711.46 3.685.254-2.026.254-5.345 0-7.371-.252-2.026-.46-.369-.46 3.686zm-178.088 12.11l-2.067 5.792-21.71 1.065c-11.942.586-22.087 1.879-22.545 2.875-.463 1.007 9.43 1.169 22.323.365l23.155-1.443 2.26-5.645 2.26-5.642.006 5.792c.004 4.044.521 5.792 1.716 5.792 1.331 0 1.443-.562.504-2.528-.665-1.39-1.209-4.707-1.209-7.371 0-6.548-2.175-6.108-4.693.948zm178.861-2.258c0 6.603 2.537 6.997 45.17 6.997 23.514 0 42.482-.567 42.152-1.26-.331-.691-19.365-1.402-42.297-1.579-33.689-.259-42.014-.877-43.359-3.21-.917-1.59-1.666-2.018-1.666-.948zm110.189.516c-.525 1.07-2.315 2.348-3.976 2.843-2.403.716-2.146.965 1.258 1.216 3.2.235 4.279-.481 4.279-2.844 0-3.675-.254-3.871-1.561-1.215zm-227.979 3.884c0 3.532 5.728 4.718 21.016 4.343l14.724-.358-15.101-1.414c-8.306-.777-16.347-2.139-17.87-3.028-1.667-.973-2.769-.79-2.769.457zm46.395 1.263c.231.426 2.232 1.409 4.446 2.185 2.886 1.01 3.6.802 2.517-.742-1.358-1.935-7.973-3.304-6.963-1.443zm197.491.761c2.077.455 5.475.455 7.551 0 2.077-.453.377-.826-3.776-.826s-5.851.373-3.775.826zm-131.318 14.648c.726.609 1.595.533 1.929-.166.335-.7-.259-1.197-1.321-1.106-1.172.101-1.411.6-.608 1.272zm67.453 0c.726.609 1.594.533 1.929-.166.334-.7-.26-1.197-1.321-1.106-1.173.101-1.412.6-.608 1.272zm-244.362 9.619l.09 8.951.946-6.845.944-6.845 28.413-.032c18.715-.021 27.896-.728 26.901-2.074-.881-1.192-13.149-2.056-29.447-2.075l-27.938-.031.091 8.951zm131.076-7.393c3.203.419 8.187.415 11.074-.008 2.887-.424.265-.767-5.826-.763-6.091.004-8.453.352-5.248.771zm108.105-.154c-.929 1.944-.85 42.824.084 42.824.415 0 .755-9.951.755-22.114s-.039-22.114-.084-22.114c-.046 0-.387.631-.755 1.404zM8.632 536.538c1.81.467 4.528.459 6.04-.021 1.514-.483.033-.866-3.29-.853-3.322.01-4.559.404-2.75.874zm19.644.023c2.647.436 6.724.429 9.06-.011 2.337-.442.172-.798-4.812-.792-4.983.007-6.895.369-4.248.803zm111.971.581c11.074.689 20.249 1.441 20.387 1.668.137.228.258 12.97.266 28.319.009 16.559.457 29.191 1.103 31.066.903 2.628.985 2.51.487-.699-.329-2.121-.598-17.05-.598-33.172v-29.313l-20.89.438-20.89.44 20.135 1.253zm25.113 6.887c-.272 1.485-.055 7.881.482 14.217.92 10.834.961 10.954.691 2.038-.158-5.212.081-11.609.532-14.216.86-4.99-.799-6.976-1.705-2.039zM46.653 567.447c.258 9.152.47 23.162.47 31.131 0 9.796.407 14.73 1.258 15.23.692.406 3.197 1.96 5.567 3.452 3.111 1.958 4.614 2.074 5.407.414.793-1.657-.209-2.706-3.604-3.772-7.057-2.213-7.604-4.262-7.74-29.02-.066-11.792-.504-24.282-.973-27.757-.572-4.227-.699-.809-.385 10.322zm356.939 8.808c.048 2.454.287 2.953.608 1.274.291-1.52.255-3.338-.08-4.037-.334-.699-.571.543-.528 2.763zm-117.366 5.091c-.787 2.666.545 2.666 2.517 0 1.301-1.759 1.274-2.045-.193-2.075-.936-.017-1.982.916-2.324 2.075zm-117.651 3.159c.319 1.737.758 3.159.975 3.159.218 0 .396-1.422.396-3.159 0-1.738-.439-3.159-.976-3.159-.535 0-.713 1.421-.395 3.159zM41.082 604.351c0 1.07-1.173 4.861-2.607 8.425-2.471 6.145-1.722 8.822 1.333 4.764 1.305-1.734 2.99-15.133 1.903-15.133-.346 0-.63.874-.63 1.944zm118.252 4.516c-.366 1.234-.422 2.75-.127 3.369.722 1.508 2.685-1.15 2.685-3.635 0-2.691-1.738-2.512-2.558.266zm177.229-.021c-2.214.958-6.028 1.798-8.473 1.863-2.446.068-4.175.689-3.844 1.382.926 1.94 19.868-1.508 19.868-3.616 0-2.155-1.933-2.06-7.551.371zm9.565.172c0 .996 1.132 1.814 2.516 1.814 1.385 0 2.517-.365 2.517-.807 0-.444-1.132-1.262-2.517-1.815-1.384-.554-2.516-.19-2.516.808zm-320.064 4.676c1.203 2.169 5.957 3.279 5.957 1.39 0-1.179-1.434-2.146-3.188-2.146-1.753 0-3 .341-2.769.756zm39.683 1.459c-2.215.769 4.581 1.46 15.102 1.532 10.52.073 18.675-.188 18.121-.58-2.123-1.499-29.393-2.281-33.223-.952zm39.264-.077c5.135 1.739 17.287 2.7 16.527 1.303-.23-.423-5.176-1.274-10.99-1.889-7.128-.756-8.932-.567-5.537.586zm121.816-.083c4.984.782 10.021 2.5 11.195 3.821 1.172 1.32 2.426 1.786 2.784 1.034 1.591-3.326-6.167-6.891-14.346-6.592l-8.693.316 9.06 1.421zm18.877-.604c.97.531 2.554.531 3.524 0 .969-.529.176-.963-1.762-.963s-2.731.434-1.762.963zm10.571-.057c.693.586 1.825.586 2.517 0 .692-.583.126-1.061-1.259-1.061-1.384 0-1.95.478-1.258 1.061zm-122.846 2.233c1.787.465 4.958.471 7.047.016 2.088-.457.627-.836-3.249-.846-3.876-.009-5.586.364-3.798.83zM5.62 618.694c2.368.446 5.992.44 8.054-.013 2.062-.453.125-.817-4.305-.809-4.43.007-6.117.377-3.749.822zm144.946-.15c.693.586 1.825.586 2.517 0 .693-.583.126-1.061-1.259-1.061-1.384 0-1.95.478-1.258 1.061zm87.599 8.52c1.253.503 3.065.484 4.028-.042.962-.527-.063-.94-2.278-.917-2.215.024-3.002.455-1.75.959zm-46.259 2.055c.726.609 1.595.533 1.929-.166.334-.699-.26-1.196-1.321-1.106-1.172.101-1.411.6-.608 1.272zm33.602 32.786c.191 34.434.563 30.346 1.055-11.588.145-12.455-.076-22.643-.491-22.641-.414.003-.669 15.407-.564 34.229zM53.666 631.861l45.304 1.085.503 12.637c.462 11.573.567 12.039 1.259 5.529.416-3.909.755-10.308.755-14.217v-7.108l-46.562.495-46.563.493 45.304 1.086zm53.861-.016c-1.183 1.56-1.583 7.834-1.848 28.927-.185 14.813-.12 26.46.147 25.881.267-.58.686-11.854.932-25.055.569-30.59.493-30.436 14.361-28.768 5.537.666 14.371.39 19.631-.617 8.726-1.666 7.754-1.849-11.074-2.093-11.491-.15-21.308.615-22.149 1.725zm53.17-.62c.726.609 1.595.533 1.929-.166.334-.699-.26-1.196-1.321-1.106-1.173.101-1.411.601-.608 1.272zm-60.036 68.351l-.181 9.766-4.55 1.428c-2.503.785-16.661 1.329-31.461 1.209-14.802-.122-32.347.695-38.992 1.813l-12.08 2.033 15.1-1.043c8.306-.573 27.86-1.213 43.455-1.422 15.594-.21 28.646-.989 29.003-1.735.359-.743.48-5.956.269-11.584l-.381-10.229-.182 9.764zm126.072.413c.329 2.12.598 4.254.598 4.738 0 .485 1.246.82 2.768.748l2.769-.135-2.489-2.076c-1.368-1.144-2.883-3.216-3.366-4.606-.57-1.639-.668-1.169-.28 1.331zm-6.863 5.08c-.412.863-3.319 2.146-6.461 2.849l-5.71 1.283 6.233.309c3.491.173 6.525-.678 6.896-1.937.813-2.749.078-4.672-.958-2.504zm15.011 2.664c-1.216 1.082 5.041 1.849 15.797 1.94 10.03.082 18.065-.712 18.392-1.82.737-2.494-31.393-2.605-34.189-.12zm36.747-1.298c0 .455.703 1.393 1.562 2.083.896.719 1.3.365.948-.827-.591-2.003-2.51-2.962-2.51-1.256zm-152.253 4.912c1.809.468 4.527.459 6.04-.021 1.514-.482.033-.866-3.29-.853-3.322.01-4.559.404-2.75.874zm21.124-.133c.692.586 1.825.586 2.516 0 .693-.583.126-1.061-1.258-1.061s-1.95.478-1.258 1.061zm23.603.177c5.922.371 15.888.373 22.148.002 6.26-.37 1.415-.674-10.767-.676-12.182-.002-17.303.301-11.381.674zM49.387 730.262l-3.271 7.574v31.101c0 17.106.274 32.601.61 34.433.484 2.637 2.008 3.248 7.3 2.926l6.688-.405-6.187-.743c-7.559-.906-7.372.048-7.39-37.782l-.015-27.753 3.754-6.472c3.676-6.341 3.987-6.478 15.352-6.792 10.614-.295 11.044-.453 5.056-1.862-3.599-.844-9.262-1.596-12.584-1.668-5.69-.124-6.23.308-9.313 7.443zm37.328-6.415c.705 1.476 14.959 1.026 15.686-.495.236-.493-3.347-.895-7.961-.895-4.614 0-8.09.625-7.725 1.39zm81.218.716c-.831 1.123-1.058 2.041-.504 2.041s1.686-.918 2.517-2.041c.831-1.123 1.057-2.041.503-2.041-.553 0-1.686.918-2.516 2.041zm26.175.124c0 1.226.453 1.645 1.007.929.554-.716 1.007-1.719 1.007-2.23 0-.512-.453-.929-1.007-.929-.554 0-1.007 1.004-1.007 2.23zM41.271 732.33c.608 4.571.84 16.645.538 28.037-.359 13.539-.226 18.357.41 14.903 1.36-7.382.676-49.1-.822-50.14-.905-.628-.935 1.116-.126 7.2zm123.839 32.652c-.109 21.651.143 39.808.557 40.347.415.539.638-11.015.494-25.676-.485-49.186-.853-54.332-1.051-14.671zM11.886 769.67c0 1.835.718 3.334 1.594 3.334.877 0 1.415-1.125 1.196-2.5-.622-3.907-2.79-4.553-2.79-.834zm28.771 19.657c-.418.87-1.376 4.658-2.13 8.424l-1.37 6.845-10.873.31c-9.875.282-10.319.455-4.834 1.876 3.323.864 8.445 1.673 11.383 1.797l5.341.229 2.042-9.652c1.932-9.139 2.12-13.317.441-9.829zm116.108 10.24c-.741 1.866-2.269 4.176-3.395 5.13-1.862 1.58-1.81 1.751.558 1.873 1.839.092 2.944-1.418 3.754-5.133 1.323-6.072 1.006-6.719-.917-1.87zm-31.871 6.48c.969.531 2.554.531 3.524 0 .969-.528.176-.962-1.762-.962s-2.732.434-1.762.962zm72.989-.057c.693.586 1.826.586 2.517 0 .693-.583.126-1.061-1.258-1.061s-1.95.478-1.259 1.061zm47.851.156c2.647.436 6.724.43 9.061-.01 2.337-.443.171-.798-4.812-.792-4.984.006-6.895.368-4.249.802zm-41.747 8.313c.726.609 1.595.533 1.929-.166.334-.699-.259-1.196-1.321-1.106-1.172.101-1.411.6-.608 1.272zM5.342 817.117c6.909 3.193 49.217 5.28 51.426 2.536 1.496-1.856-1.247-2.285-12.163-1.896-7.752.276-20.663-.174-28.692-1-9.038-.929-13.064-.792-10.57.36zm58.643-.596c.693.586 1.826.586 2.517 0 .693-.583.126-1.061-1.258-1.061s-1.95.478-1.259 1.061zm18.374 2.509c0 .987 2.378 1.387 5.285.886 7.76-1.337 8.156-2.327 1.007-2.517-3.46-.09-6.292.643-6.292 1.631zm155.858-.358c.726.608 1.595.532 1.929-.167.334-.699-.26-1.196-1.321-1.106-1.173.101-1.412.601-.608 1.273zm-10.389 7.512c-.329 3.766-.446 16.797-.258 28.959l.343 22.115.212-24.886c.117-13.686.682-26.719 1.255-28.96.671-2.624.687-4.073.045-4.073-.548 0-1.267 3.079-1.597 6.845zm-117.892 22.641c0 15.638.158 22.034.352 14.216.193-7.817.193-20.614 0-28.432-.194-7.818-.352-1.422-.352 14.216zm-4.226-17.902c.02 3.475.246 4.642.502 2.593.255-2.05.238-4.893-.038-6.319-.275-1.426-.484.251-.464 3.726zm118.988 22.114c0 14.48.161 20.405.358 13.164.197-7.239.197-19.086 0-26.327-.197-7.239-.358-1.316-.358 13.163zm-120.191 37.559c0 2.511-.113 4.751-.252 4.983-.138.23-9.765.977-21.393 1.664l-21.142 1.245 21.375.442 21.374.442.643-5.364c.355-2.949.363-5.95.019-6.668-.343-.718-.624.748-.624 3.256zm119.25-1.584c-.371 1.253-2.096 4.092-3.835 6.31-1.739 2.22-2.603 4.038-1.92 4.042 1.289.008 8.354-12.458 7.123-12.567-.383-.034-.999.962-1.368 2.215zm-177.138 6.289l-8.054 1.192 9.816.388c5.398.21 9.816.021 9.816-.421 0-1.875-4.027-2.279-11.578-1.159zm63.929 1.595c0 3.315 4.06 4.538 14.094 4.25l9.564-.276-10.777-1.62c-5.928-.891-11.251-2.23-11.829-2.978-.579-.748-1.052-.467-1.052.624zm-93.88 1.764c.693.586 1.825.586 2.517 0 .693-.583.126-1.061-1.258-1.061-1.385 0-1.95.478-1.259 1.061zm158.124.045c.725.608 1.594.533 1.928-.167.335-.699-.259-1.196-1.32-1.105-1.173.101-1.412.6-.608 1.272zm-32.783 2.118c.969.531 2.554.531 3.523 0 .97-.528.176-.962-1.762-.962s-2.731.434-1.761.962zM7.104 911.411c1.523.482 4.015.482 5.537 0 1.523-.482.277-.876-2.768-.876-3.046 0-4.291.394-2.769.876zm22.149-.057c.968.531 2.555.531 3.523 0 .969-.529.176-.962-1.762-.962s-2.73.433-1.761.962zm9.576.038c1.252.503 3.064.484 4.027-.042.962-.527-.063-.939-2.278-.916-2.214.023-3.002.455-1.75.958zm6.822 2.856c.364 1.232 1.001 16.632 1.416 34.225l.754 31.986.14-29.486c.143-29.985-.323-38.964-2.023-38.964-.521 0-.65 1.007-.287 2.239zm7.163-.659c-.255.87 1.642 1.297 4.22.95 7.352-.988 8.244-2.018 1.977-2.286-3.151-.134-5.94.466-6.197 1.336zm-1.453 43.034c-.234 36.552-.825 33.395 6.836 36.561 1.938.8 3.27.895 2.96.208-.31-.686-2.348-2.024-4.53-2.969l-3.968-1.721-.543-32.555-.543-32.554-.212 33.03zm-4.945 29.617c-.93 4.269-2.081 5.726-5.032 6.369l-3.826.832 3.583.354c4.276.423 7.346-3.678 6.843-9.139-.309-3.361-.543-3.125-1.568 1.584zm-42.08 3.696c-3.435 1.287-2.99 1.525 3.02 1.622 3.876.063 9.312-.623 12.08-1.525 4.668-1.521 4.448-1.639-3.02-1.622-4.43.009-9.866.695-12.08 1.525zm28.504 1.439c.725.608 1.594.533 1.928-.167.335-.699-.26-1.196-1.32-1.105-1.173.101-1.412.6-.608 1.272zm104.702 0c.726.608 1.594.533 1.929-.167.334-.699-.26-1.196-1.321-1.105-1.173.101-1.412.6-.608 1.272zm-64.432 2.106c.725.609 1.594.533 1.929-.167.334-.699-.26-1.196-1.321-1.105-1.173.101-1.412.6-.608 1.272zm44.297 0c.726.609 1.594.533 1.929-.167.334-.699-.26-1.196-1.321-1.105-1.173.101-1.412.6-.608 1.272zm26.634.021c.98.535 2.339.499 3.021-.078.681-.577-.12-1.013-1.781-.971-1.662.042-2.219.514-1.24 1.049zm-133.374 4.313c3.482.413 8.919.411 12.08-.006 3.163-.417.314-.754-6.33-.75-6.645.004-9.232.345-5.75.756zm41.3 1.984c.727.611 1.596.531 1.93-.166.334-.699-.26-1.196-1.321-1.106-1.173.101-1.412.6-.608 1.272zm15.05.051c1.253.5 3.065.48 4.028-.042.962-.527-.063-.94-2.278-.916-2.214.023-3.002.454-1.75.958zm40.162 5.01c.639 1.64 1.389 5.35 1.666 8.24.351 3.67.456 3.07.349-1.94-.094-4.32-.761-7.62-1.667-8.24-1.191-.81-1.264-.4-.348 1.94zM2.825 1076.12c-1.082 1.59 2.626 2.22 13.088 2.24 8.029.02 31.051 1.07 51.16 2.33 20.109 1.27 37.665 1.72 39.012 1.02 1.424-.75 2.443-2.81 2.434-4.94-.013-2.96-.184-3.08-.917-.66-.764 2.52-7.213 2.76-42.477 1.56-22.867-.78-45.9-1.94-51.183-2.58-5.981-.73-10.176-.34-11.117 1.03zm127.122 5.84c.979.53 2.338.5 3.02-.08.682-.58-.12-1.01-1.781-.97-1.661.04-2.219.51-1.239 1.05zm14.642-.02c.726.61 1.595.53 1.929-.17.334-.7-.26-1.19-1.321-1.1-1.173.1-1.411.6-.608 1.27zM.812 1091.06c-1.062 1.46-.465 1.67 2.013.72 4.342-1.67 5.16-2.87 1.93-2.82-1.338.02-3.113.96-3.943 2.1zm36.003-.65c1.253.51 3.065.49 4.027-.04.963-.52-.062-.94-2.277-.91-2.215.02-3.002.45-1.75.95zm18.44 2.48c-1.893.71-3.649 2.72-3.9 4.46-.355 2.45-.174 2.6.798.69.69-1.36 1.91-1.94 2.71-1.3.8.64 2.445.12 3.653-1.16 1.209-1.28 4.01-2.67 6.224-3.09 3.439-.64 3.292-.76-1.006-.83-2.769-.04-6.583.51-8.478 1.23zm-.267 73.29c.726.61 1.595.54 1.929-.16.334-.7-.26-1.2-1.32-1.11-1.174.1-1.412.6-.609 1.27zm-46.362 2.16c1.253.5 3.065.49 4.027-.04.963-.53-.062-.94-2.277-.92-2.215.03-3.002.46-1.75.96zm11.603 8.49c3.204.42 8.187.42 11.074 0 2.887-.43.265-.77-5.826-.77-6.09.01-8.453.36-5.248.77zm21.943-.8c.232.41 2.006 1.36 3.944 2.1 2.478.95 3.075.74 2.013-.72-1.365-1.87-6.954-3.17-5.957-1.38zm14.263.7c.968.53 2.555.53 3.523 0 .969-.53.177-.97-1.761-.97s-2.73.44-1.762.97zm-52.603 11.31c0 2.38.453 3.75 1.007 3.03 1.307-1.69 1.307-7.37 0-7.37-.554 0-1.007 1.95-1.007 4.34z" fill="#A0A0A0"/></svg>