<svg width="483" height="587" fill="none" xmlns="http://www.w3.org/2000/svg"><path fill-rule="evenodd" clip-rule="evenodd" d="M232.126-337.82c-.128 9.04.132 12.307.849 10.663.848-1.947 1.035-1.77 1.049.992.025 5.377 2.527 7.239 9.13 6.797 3.326-.223 7.225.093 8.663.702 1.437.609 7.79.468 14.117-.312l11.503-1.419-12.356-.221c-6.796-.122-13.204-.907-14.239-1.744-1.252-1.011-2.969-.902-5.122.326-2.235 1.274-4.143 1.368-6.153.3-3.054-1.623-3.563-3.812-5.035-21.612-.966-11.688-2.206-8.843-2.406 5.528zm233.018-4.344c0 4.779.352 8.688.784 8.687.432 0 .621 3.554.422 7.898-.211 4.591.077 7.899.687 7.899.576 0 .802 1.425.5 3.167-.869 5.022 1.539 7.89 6.623 7.89 3.373 0 4.578-.624 4.578-2.369 0-1.303-.498-2.369-1.107-2.369s-.817.71-.461 1.579c1.05 2.567-4.323 1.81-5.763-.81-.749-1.363-1.639-9.762-2.072-19.535-.417-9.43-1.088-17.951-1.491-18.935-1.641-4.01-2.7-1.305-2.7 6.898zM.001-345.323c.021 2.606.256 3.482.521 1.945.266-1.537.248-3.67-.039-4.739-.286-1.07-.503.188-.482 2.794zm281.096-1.486c0 1.353.478 2.015 1.062 1.47.585-.546.793-1.654.461-2.462-.896-2.191-1.523-1.784-1.523.992zm70.146.038c.05 1.84.298 2.214.631.955.303-1.14.265-2.503-.082-3.028-.347-.524-.594.408-.549 2.073zm-239.821 3.028c-.414 2.606-.383 8.293.069 12.637 1.073 10.289 2 3.723 1.227-8.688-.478-7.66-.631-8.127-1.296-3.949zm115.374 3.159c.024 3.475.418 9.162.876 12.637.766 5.824.839 5.509.92-4.016.048-5.683-.346-11.37-.876-12.636-.68-1.623-.952-.435-.92 4.015zm120.466 2.369c0 3.91.204 5.51.454 3.554.248-1.955.248-5.152 0-7.108-.25-1.955-.454-.355-.454 3.554zm5.228 3.16c0 3.909.204 5.509.454 3.554.249-1.956.249-5.153 0-7.109-.25-1.955-.454-.355-.454 3.555zm108.819-2.37c0 1.303.392 2.37.872 2.37.479 0 .871-1.067.871-2.37 0-1.303-.392-2.369-.871-2.369-.48 0-.872 1.066-.872 2.369zm9.264 5.647c.206.934.822 1.698 1.368 1.698.546 0 1.162-.764 1.368-1.698.206-.933-.409-1.698-1.368-1.698-.959 0-1.574.765-1.368 1.698zm-272.51 1.215c-.362.885-.148 2.083.474 2.665 1.608 1.5 2.646-.555 1.303-2.583-.751-1.134-1.335-1.161-1.777-.082zm149.08 8.144c0 2.172.237 3.062.527 1.975.29-1.085.29-2.862 0-3.949-.29-1.085-.527-.198-.527 1.974zm-184.736 0c-.355.869-.147 1.58.461 1.58.609 0 1.108-.711 1.108-1.58 0-.868-.207-1.579-.461-1.579s-.752.711-1.108 1.579zm-57.514 3.284c-7.627 2.446-49.788 4.779-77.646 4.298-17.973-.309-27.331.072-27.105 1.106.57 2.602 14.816 2.747 55.602.567 21.28-1.139 41.515-2.086 44.966-2.109 4.556-.026 6.775-.794 8.104-2.802 1.007-1.519 1.477-2.682 1.046-2.582-.431.099-2.667.785-4.967 1.522zm69.54-.102c-1.103 1.093-.483 1.252 2.092.538 4.51-1.249 5.36-2.148 2.004-2.116-1.39.014-3.233.723-4.096 1.578zm52.286.071c0 .919.471 1.233 1.046.696.575-.537 1.046-1.289 1.046-1.672 0-.384-.471-.697-1.046-.697-.575 0-1.046.753-1.046 1.673zm70.586-.093l-10.457.968 12.749.305c7.598.183 13.01-.332 13.394-1.273.382-.932-.557-1.455-2.291-1.274-1.615.168-7.643.741-13.395 1.274zm22.863 1.93c-.562 1.376 22.608-.038 23.646-1.442.273-.37-4.805-.515-11.284-.324-6.481.191-12.043.986-12.362 1.766zm34.914.695c.719.439 1.896.439 2.614 0 .719-.438.131-.796-1.307-.796s-2.026.358-1.307.796zm9.477.033c.754.457 1.656.4 2.004-.125.347-.524-.27-.897-1.372-.829-1.219.076-1.466.45-.632.954zm27.907.37c-5.065.636.837 1.32 19.166 2.217 17.567.861 28.131 2.052 31.372 3.537 5.767 2.644 12.728 2.973 12.728.602 0-.919-.43-1.272-.956-.78-.526.491-1.137.075-1.358-.924-.272-1.233-7.126-2.224-21.265-3.076-11.475-.692-23.452-1.537-26.615-1.876-3.164-.342-9.046-.207-13.072.3zm-14.881 1.225c1.017.402 2.429.375 3.137-.058.708-.433-.125-.76-1.85-.728-1.726.031-2.305.385-1.287.786zm-143.355 3.25l52.998.423.452 3.54c.385 3.017.473 2.898.595-.804l.142-4.344-53.593.381-53.594.379 53 .425zm59.697.789c-1.613 3.12-3.227 14.893-2.341 17.062.443 1.08 1.139 9.686 1.547 19.122.408 9.435 1.208 17.591 1.776 18.122.569.53 15.928 1.551 34.132 2.266 18.205.716 42.746 1.716 54.537 2.22 12.973.556 20.611.358 19.345-.499-1.15-.779-21.385-1.956-44.966-2.615-23.581-.658-47.345-1.638-52.809-2.176-9.67-.954-9.938-1.084-10.091-4.929-1.665-41.788-1.686-44.197-.397-46.541 1.578-2.872 13.88-3.404 18.419-.796 2.492 1.431 2.676 1.334 1.508-.79-1.721-3.134-19.078-3.507-20.66-.446zm25.339-.394c-1.772 1.15-1.612 1.345 1.045 1.281 1.726-.041 4.549-.618 6.275-1.281 2.998-1.154 2.952-1.209-1.046-1.281-2.301-.043-5.124.533-6.274 1.281zm-180.087 1.168c3.327.315 8.503.312 11.503-.006 2.998-.317.275-.575-6.052-.572-6.327.004-8.78.264-5.451.578zm34.257 1.114c-.719 1.306-1.42 8.907-1.64 17.771-.431 17.326.222 15.687 1.362-3.425.675-11.294 1.022-12.798 3.367-14.588 2.43-1.852 2.457-1.996.389-2.017-1.224-.012-2.789 1.003-3.478 2.259zm164.43-1.114c3.327.315 8.504.312 11.503-.006 2.998-.317.275-.575-6.052-.572-6.326.004-8.78.264-5.451.578zm28.98.411c-2.233 1.081-1.974 1.288 1.768 1.422 2.411.087 4.674-.553 5.029-1.422.753-1.842-2.992-1.842-6.797 0zm-302.214 1.768a3815.95 3815.95 0 00-11.764 1.78c-1.006.16-1.83.989-1.83 1.845s-.565.704-1.255-.338c-.69-1.043-2.22-1.874-3.399-1.848-2.13.049-2.13.06-.052 1.786 5.127 4.259 5.703 7.203 5.729 29.267l.023 20.832 4.64 1.052c2.552.578 5.258.678 6.012.221.755-.456.11-.886-1.434-.954-1.545-.068-4.063-.845-5.597-1.726l-2.788-1.602.734-21.698c.524-15.454 1.167-22.379 2.236-24.066 1.203-1.901 5.896-2.548 23.684-3.269 12.202-.494 19.832-1.031 16.956-1.194-2.876-.162-8.993-.584-13.595-.938-4.6-.354-12.836.028-18.3.85zm40.522-.626c1.869.351 4.928.351 6.797 0 1.869-.349.34-.636-3.398-.636-3.739 0-5.268.287-3.399.636zm58.822.051c0 .869.706 2.464 1.568 3.546.876 1.096 1.569 1.268 1.569.387 0-.869-.706-2.464-1.569-3.546-.875-1.096-1.568-1.269-1.568-.387zm226.137-.043c2.158.341 5.687.341 7.843 0 2.158-.339.392-.619-3.921-.619-4.314 0-6.078.28-3.922.619zm13.138 1.509c.754.456 1.656.399 2.003-.125.348-.525-.269-.897-1.372-.829-1.218.075-1.466.45-.631.954zm7.371.105c-.385 3.147.317 45.972.817 49.87.411 3.2 1.027 4.191 2.188 3.518.889-.515 2.756.189 4.148 1.567 1.392 1.377 3.051 2.243 3.689 1.922.637-.32-.972-2.469-3.576-4.773-4.288-3.796-4.798-4.889-5.405-11.585-.369-4.066-.671-14.714-.671-23.663v-16.269l3.922-.621 3.921-.619-4.444-.266c-2.444-.145-4.509.267-4.589.919zm-405.596 2.03c-2.588.637.706.792 7.32.341 6.614-.448 12.221-1.077 12.462-1.396.748-.995-14.835-.164-19.782 1.055zm25.359-.546c1.006.398 2.654.398 3.66 0 1.006-.397.183-.722-1.83-.722s-2.836.325-1.83.722zm402.603 0c1.006.398 2.654.398 3.66 0 1.006-.397.183-.722-1.83-.722s-2.836.325-1.83.722zm-265.561 30.503c0 4.779.195 6.734.435 4.344.239-2.39.239-6.298 0-8.687-.24-2.39-.435-.435-.435 4.343zm239.456 3.949c.008 4.344.211 5.933.451 3.532.24-2.401.234-5.955-.014-7.898-.248-1.943-.445.023-.437 4.366zm-119.491 0c-.518 4.949-.745 7.658-.912 10.898-.146 2.828-.852 2.937-12.442 1.919-6.758-.594-15.701-1.017-19.875-.941-5.288.096-8.289-.605-9.905-2.314-2.933-3.104-4.99-3.139-4.99-.084 0 3.892-6.937 3.173-7.623-.79-.301-1.737-1.119-3.159-1.819-3.159-.961 0-.98.531-.075 2.177 1.967 3.581-1.717 4.097-29.436 4.119l-25.882.022-.016-4.343c-.009-2.39-.472-5.411-1.03-6.714-.735-1.718-1.018-.357-1.03 4.954l-.015 7.324 4.545 1.03c10.941 2.479 61.712.397 64.211-2.633.858-1.041 1.307-1.046 1.307-.016 0 1.946 11.812 3.427 30.24 3.791 13.894.275 14.041.241 14.952-3.478.505-2.064.74-6.268.523-9.338-.219-3.07-.546-4.161-.728-2.424zm-14.661 3.171c0 1.39 1.967 2.268 6.013 2.685 7.133.735 7.85.359 3.805-1.997-4.702-2.737-9.818-3.096-9.818-.688zm-179.864 7.097c0 1.737.651 3.159 1.446 3.159.796 0 1.693-1.422 1.994-3.159.406-2.343.032-3.159-1.447-3.159-1.296 0-1.993 1.104-1.993 3.159zm-45.27 3.159c-.3 1.738-.12 3.159.402 3.159.52 0 .947-1.421.947-3.159 0-1.738-.18-3.159-.4-3.159-.22 0-.647 1.421-.949 3.159zm119.74-1.286c-1.795 2.711-41.82 4.011-44.972 1.461-1.436-1.161-2.405-1.222-2.83-.18-.36.879-5.63 1.672-11.828 1.779-6.149.106-16.121.757-22.16 1.445-7.46.85-3.771.984 11.503.416 12.365-.462 23.424-.811 24.574-.779 45.09 1.259 48.592.938 47.424-4.357-.279-1.259-.776-1.197-1.711.215zm257.024 7.604c2.087 2.038 7.63 2.038 6.797 0-.356-.868-2.383-1.568-4.506-1.555-2.877.019-3.46.413-2.291 1.555zm-412.015 1.61c0 .956 1.168 1.186 2.876.567 4.105-1.486 4.243-2.177.436-2.177-1.822 0-3.312.725-3.312 1.61zm425.414-.531c.754.457 1.656.4 2.003-.124.347-.525-.27-.898-1.372-.83-1.218.076-1.466.45-.631.954zM1.627-248.711c.72.439 1.896.439 2.615 0 .72-.438.13-.796-1.307-.796-1.438 0-2.026.358-1.308.796zm180.649.534l-14.64.925 13.071.141c7.19.077 19.425-.365 27.189-.983l14.117-1.121-12.548.055c-6.902.032-19.137.474-27.189.983zm54.571-.473c-.284.694 22.766 1.071 51.225.839 33.444-.275 53.17.156 55.782 1.218 3.48 1.417 4.098 2.35 4.46 6.743l.42 5.099.152-4.739c.319-9.983 3.458-9.431-56.676-9.949-30.166-.261-55.08.094-55.363.789zm226.577 1.291c-.819 3.222 1.263 5.502 4.857 5.318 2.287-.116 2.352-.262.523-1.161-1.15-.564-2.091-2.034-2.091-3.265 0-3.301-2.505-3.98-3.289-.892zm-375.263.281c-5.176.33-25.411 1.231-44.966 2L7.64-243.677l48.104-.709c26.456-.389 50.177-1.155 52.712-1.702l4.609-.993-.737 21.1c-.406 11.606-1.209 21.957-1.784 23.006-.703 1.277-.686 2.241.049 2.928.603.562 1.097 2.37 1.097 4.015 0 4.292-5.634 6.218-19.346 6.616l-11.503.333 9.412.566c10.179.609 19-.52 21.378-2.739 1.019-.951 1.522-4.562 1.588-11.386.334-34.843.505-37.434 2.662-40.47 1.698-2.39 3.246-2.816 8.104-2.235 3.303.397 5.737.288 5.411-.24-.769-1.245-29.055-2.267-41.235-1.491zm50.718.48c-4.285.653-5.638 1.242-3.66 1.597 3.586.642 5.864.417 14.64-1.445l6.274-1.33-5.229.071c-2.875.041-8.287.539-12.025 1.107zm92.023 1.393c0 .869.471 2.019 1.046 2.556.575.537 1.046.266 1.046-.603s-.471-2.019-1.046-2.556c-.575-.537-1.046-.265-1.046.603zm127.055.187l-4.182.79v26.719c0 19.971-.331 26.886-1.308 27.38-3.86 1.95.311 2.782 14.64 2.92 29.627.284 42.196.973 38.954 2.13l-3.138 1.122 2.784 2.041c2.37 1.739 2.846 3.244 3.206 10.144.233 4.458.098 8.814-.301 9.683-.398.869-.345 3.001.118 4.739.465 1.737.877 5.942.917 9.346.04 3.403.378 5.726.75 5.164.373-.561.611-9.001.53-18.753-.123-14.954-.426-17.971-1.936-19.247-1.651-1.397-1.632-1.609.253-2.722 1.125-.665 7.692-1.359 14.594-1.54l12.549-.334-10.981-1.216c-6.039-.67-23.215-2.03-38.168-3.02-14.954-.992-28.189-2.177-29.411-2.633-2.754-1.029-3.53-8.105-3.53-32.178v-16.935l5.49-.997c8.803-1.597 20.653-1.224 20.653.649 0 .92.556 1.155 1.233.522.678-.632 12.09-1.143 25.359-1.131 19.063.015 22.135-.244 14.638-1.231-11.382-1.497-57.806-2.527-63.713-1.412zM2.308-242.23C.7-240.606-.592-192.201.864-188.092c.983 2.772 2.114 3.066 10.735 2.789 8.702-.279 8.927-.357 2.316-.796-13.108-.874-12.028 1.411-12.011-25.383.015-26.641.39-29.947 3.49-30.863 2.057-.607 2.07-.68.155-.855-1.15-.104-2.61.332-3.24.97zm336.304.371c0 .869.442 1.58.984 1.58.541 0 1.274-.711 1.63-1.58.355-.869-.088-1.58-.984-1.58s-1.63.711-1.63 1.58zm130.367 4.213c-1.53 2.309-.187 19.481 1.524 19.481 1.429 0 1.074-7.547-.392-8.35-1.046-.572-1.046-1.383 0-4.059 1.635-4.181 1.662-5.485.084-4.011-.823.768-1.005.281-.556-1.486.707-2.784.487-3.31-.66-1.575zm-263.697 3.685c-.356.869-.148 1.58.461 1.58s1.108-.711 1.108-1.58c0-.869-.208-1.58-.462-1.58s-.752.711-1.107 1.58zm27.048 15.006c.003 8.688.178 12.04.39 7.45.212-4.589.21-11.697-.005-15.796-.215-4.098-.388-.342-.385 8.346zm19.487-13.377c0 .842.705 1.53 1.568 1.53.863 0 1.569-.279 1.569-.621 0-.341-.706-1.029-1.569-1.53-.863-.499-1.568-.22-1.568.621zm-16.034 2.584c-.384.578-.698 5.672-.698 11.319 0 5.647.185 9.972.41 9.611.403-.646 1.539-21.984 1.172-21.984-.103 0-.502.474-.884 1.054zM20.712-211.846c0 .868.47 1.579 1.046 1.579.575 0 1.045-.711 1.045-1.579 0-.869-.47-1.58-1.045-1.58s-1.046.711-1.046 1.58zm284.436 1.628c0 .842.706 1.531 1.569 1.531s1.569-.28 1.569-.621c0-.341-.706-1.03-1.569-1.531-.863-.499-1.569-.219-1.569.621zM115.809-198.42c-.31 5.213-.457 9.721-.328 10.016.128.297 5.093-.538 11.032-1.857l10.797-2.396-10.137.854-10.137.853-.332-8.473-.331-8.474-.564 9.477zm117.258-.616l-.073 4.124-15.72 1.13c-18.964 1.363-50.256 2.603-67.415 2.669-7.072.027-11.18.528-9.412 1.146 1.726.603 7.961 1.039 13.856.971 5.895-.068 10.719.526 10.719 1.321 0 .794 1.294.946 2.875.336 1.581-.61 8.052-1.374 14.379-1.698 6.327-.324 19.973-1.065 30.326-1.648 19.554-1.101 23.375-1.039 43.397.699 6.615.575 27.32.669 46.012.211 28.588-.701 30.65-.889 12.98-1.184-11.553-.195-33.794-.822-49.424-1.397l-28.418-1.044-.938-4.879c-.664-3.456-.986-3.959-1.105-1.72l-.168 3.159-.899-3.159c-.811-2.852-.905-2.758-.972.963zm-187.256 5.53c0 1.025 1.094 1.439 2.628.997 3.795-1.096 4.126-3.112.478-2.918-1.706.092-3.104.956-3.106 1.921zm-13.684 4.275c-2.396 1.475-2.31 1.616 1.656 2.731 2.301.646 4.223 1.071 4.27.946.048-.126-.696-1.355-1.655-2.731-1.33-1.907-2.344-2.131-4.271-.946zm21.469-.364c-1.077 2.635 1.346 5.655 2.789 3.475 1.206-1.822.451-5.192-1.164-5.192-.507 0-1.238.773-1.625 1.717zm283.97.468c0 1.403 4.231 2.136 4.766.826.322-.787-.619-1.431-2.09-1.431-1.472 0-2.676.273-2.676.605zm17.199 3.999c.325.795 0 1.804-.723 2.245-.722.439.334.773 2.347.741 2.013-.032 2.831-.386 1.817-.785-1.013-.4-1.574-1.382-1.245-2.186.328-.803-.164-1.46-1.095-1.46-.931 0-1.426.651-1.101 1.445zm86.85.354c10.224 2.537 22.697 3.118 22.237 1.035-.302-1.368-4.34-1.986-13.945-2.129-10.238-.154-12.251.112-8.292 1.094zm-250.45 1.36c0 1.815 33.518 1.869 54.9.087 10.841-.902 6.657-1.186-20.653-1.399-22.253-.174-34.247.286-34.247 1.312zm83.462-.5c.754.456 1.656.399 2.004-.125.347-.525-.27-.897-1.372-.829-1.219.075-1.467.45-.632.954zm23.724.303c-3.105.997-3.138 1.121-3.282 12.054l-.146 11.048.772-9.898c.425-5.444 1.078-10.359 1.452-10.923.373-.564 5.032-1.512 10.352-2.106l9.675-1.082-7.843-.05c-4.313-.029-9.254.402-10.98.957zm178.819.834c1.725 1.14 3.359 1.782 3.629 1.423.832-1.099-2.459-3.593-4.675-3.544-1.585.036-1.332.549 1.046 2.121zm-393.557 1.166c-22.269 1.315-32.309 3.416-29.384 6.146.803.749 1.707.785 2.01.079 1.207-2.813 6.139-3.311 39.798-4.014 19.249-.401 40.227-1.204 46.619-1.783 7.96-.722 11.841-.512 12.325.666.479 1.172 1.547 1.237 3.349.203 3.126-1.796 8.801-1.958 10.525-.301.671.645 1.7 7.921 2.287 16.168l1.067 14.995-.317-15.572c-.226-11.122-.73-15.968-1.763-16.957-1.795-1.715-21.793-1.693-36.479.043-6.211.733-11.412.695-11.974-.09-1.106-1.544-5.775-1.493-38.063.417zm95.284-.708c1.018.401 2.43.374 3.137-.058.708-.433-.124-.76-1.849-.729-1.726.032-2.305.386-1.288.787zm109.288.88c.588 1.087 1.537 5.173 2.107 9.083.717 4.911 1.073 5.827 1.15 2.961.198-7.32-1.122-14.019-2.761-14.019-1.126 0-1.266.555-.496 1.975zm33.452-.829c1.88.35 4.703.344 6.275-.016 1.571-.362.033-.649-3.418-.64-3.451.008-4.736.303-2.857.656zm18.302-.051c1.017.401 2.429.374 3.137-.058.708-.433-.125-.76-1.85-.729-1.726.032-2.305.386-1.287.787zm-164.808 1.539c-.384.578-.698 6.738-.698 13.688 0 6.951.265 12.238.589 11.749.445-.674 1.316-26.501.893-26.493-.048.002-.402.476-.784 1.056zm187.283.063c1.301.377 3.183.363 4.183-.032s-.065-.704-2.365-.687c-2.301.017-3.119.341-1.818.719zm14.105.044c2.732.325 7.202.325 9.934 0 2.733-.325.497-.592-4.967-.592-5.464 0-7.7.267-4.967.592zm-352.422 2.016c-12.23.592-22.582 1.601-23.006 2.244-.423.643 10.012.961 23.191.706 22.967-.444 23.995-.335 24.763 2.629.44 1.699.902 11.621 1.027 22.046.226 18.895.23 18.917 1.033 7.108 1.074-15.804.162-31.816-1.957-34.356-.906-1.085-1.91-1.858-2.231-1.714-.322.144-10.59.746-22.82 1.337zm391.112.377c-.64 1.213-.747 6.239-.276 13.032.621 8.975.829 9.868 1.102 4.739.185-3.476.23-8.639.1-11.476-.186-4.085.266-5.463 2.166-6.614 2.324-1.409 2.33-1.458.174-1.556-1.223-.054-2.693.79-3.266 1.875zm12.55.693c1.006.399 2.654.399 3.66 0 1.006-.396.183-.721-1.83-.721s-2.836.325-1.83.721zm-365.218 8.39c-.942.919-1.072 1.54-.323 1.556.685.012 1.536-.687 1.891-1.556.803-1.962.44-1.962-1.568 0zm46.012 3.159c0 .869.442 1.58.984 1.58.541 0 1.274-.711 1.63-1.58.355-.869-.088-1.58-.984-1.58s-1.63.711-1.63 1.58zm182.159 8.688c.021 2.606.255 3.481.521 1.944s.248-3.669-.039-4.739c-.286-1.069-.503.188-.482 2.795zm-115.151 15.927c.051 1.84.298 2.215.632.956.302-1.141.265-2.504-.083-3.029-.347-.524-.594.408-.549 2.073zm120.419 2.238c0 3.041.215 4.286.477 2.764.264-1.521.264-4.007 0-5.528-.262-1.521-.477-.277-.477 2.764zm81.925-1.771c-.325.792.114 1.847.973 2.346.86.498 1.562.259 1.562-.531 0-2.142-1.858-3.472-2.535-1.815zm-87.133 5.72c.011 3.475.226 4.711.476 2.746.25-1.965.24-4.809-.021-6.319-.262-1.51-.467.098-.455 3.573zm-120.365 5.529c-1.371 5.941.092 6.247 1.88.395l1.327-4.344 1.584 3.554c1.61 3.617 7.601 5.175 7.601 1.974 0-.868-1.119-1.579-2.487-1.579-1.367 0-3.071-1.066-3.787-2.37-2.14-3.893-4.922-2.816-6.118 2.37zm53.175 1.579c-1.295 1.264-1.204 1.517.523 1.444 1.15-.047 3.033-.696 4.183-1.444 1.916-1.243 1.872-1.364-.523-1.443-1.438-.049-3.32.601-4.183 1.443zM47.89-125.062c-1.444 1.631-5.914 3.709-9.934 4.619l-7.31 1.654 8.258-.72c4.543-.395 8.821-1.425 9.508-2.286.687-.861 1.56-1.099 1.938-.528.378.572.688-.5.688-2.382 0-4.083.136-4.067-3.148-.357zm154.652-1.336c-.899.861 1.318 1.349 5.877 1.294 10.051-.119 12.913-2.275 3.313-2.496-4.26-.098-8.396.444-9.19 1.202zm102.164-.347c-.311.759.594 1.382 2.011 1.382 1.417 0 2.322-.623 2.011-1.382-.312-.76-1.216-1.383-2.011-1.383-.795 0-1.699.623-2.011 1.383zm-118.489 1.292c1.018.401 2.43.374 3.138-.059.707-.433-.125-.76-1.85-.728-1.726.032-2.305.385-1.288.787zm61.678.085c7.334.272 19.333.272 26.666 0 7.333-.272 1.333-.493-13.333-.493s-20.666.221-13.333.493zm72.939.479c15.461 2.018 66.548 4.024 78.429 3.08 5.841-.465-6.01-1.284-28.757-1.99-21.28-.661-43.633-1.5-49.672-1.863l-10.98-.66 10.98 1.433zM98.94-123.457c-21.678.517-39.738 1.425-40.131 2.019-.865 1.306 76.318-.237 94.71-1.894l13.071-1.178-14.117.058c-7.765.032-31.855.48-53.533.995zm334.583 1.185c1.301.378 3.184.363 4.183-.032 1-.395-.065-.704-2.365-.687-2.301.018-3.118.341-1.818.719zm11.518 1.621c2.46.335 6.224.33 8.366-.01 2.141-.339.129-.613-4.472-.606-4.601.004-6.354.282-3.894.616zm22.456-.07c1.006.398 2.654.398 3.66 0 1.006-.396.183-.722-1.83-.722s-2.836.326-1.83.722zM7.423-119.058c3.906.305 10.023.304 13.594-.004 3.57-.307.375-.556-7.102-.553-7.477.001-10.399.254-6.492.557zm468.44-.083c1.006.398 2.654.398 3.66 0 1.006-.397.183-.722-1.83-.722s-2.836.325-1.83.722zm-323.39 2.194c-13.735.614-5.322.791 21.621.453 24.257-.303 47-.095 50.54.463l6.436 1.017-.667 9.634c-.478 6.897-.358 8.961.423 7.265 1.497-3.256 1.404-16.317-.133-18.639-1.353-2.044-35.018-2.127-78.22-.193zm86.264 2.044c-1.226 2.826-1.787 10.214-2.28 30.012l-.654 26.266L272.829-59l37.025-.373-36.5-.438-36.501-.436.638-24.683c.865-33.43-.144-31.906 21.542-32.541l16.312-.477-17.491-.351c-17.371-.349-17.504-.327-19.117 3.395zm-124.302 2.769c-.36 2.715-.587 14.62-.504 26.458l.149 21.522.825-18.165a7479.25 7479.25 0 011.245-26.458c.456-9.055-.669-11.258-1.715-3.357zm163.626-4.257c.247.374 10.326.993 22.395 1.376 12.071.384 21.006.128 19.855-.567-2.115-1.281-43.081-2.065-42.25-.809zm66.825.461c2.761.344 5.246 1.662 6.013 3.185 1.166 2.317 1.307 2.328 1.307.094 0-3.254-2.278-4.484-7.667-4.143l-4.359.275 4.706.589zm-272.934 2.039c26.603 1.343 36.239 2.987 37.802 6.45.782 1.731.933 1.549.685-.828-.189-1.815-1.585-3.601-3.455-4.423-1.725-.758-15.843-1.617-31.372-1.909l-28.234-.531 24.574 1.241zm283.915-.023c-1.171 2.862-.078 3.312 4.285 1.766 2.295-.812 3.087-1.515 1.813-1.605-1.248-.087-2.965-.563-3.816-1.055-.851-.495-1.878-.092-2.282.894zm10.73-.46c1.301.378 3.183.363 4.183-.032 1-.394-.065-.704-2.365-.687-2.301.018-3.119.341-1.818.719zm-363.911 1.58c1.3.377 3.183.363 4.183-.032s-.065-.704-2.366-.687c-2.3.017-3.118.341-1.817.719zm15.198.058c4.483.297 11.542.295 15.686-.003 4.143-.3.475-.542-8.152-.54-8.627.001-12.018.246-7.534.543zm457.456.66c-2.938 1.621-3.942 6.952-1.9 10.091.536.824 1.164 4.344 1.393 7.819.28 4.252.474 2.82.592-4.383.163-9.849.384-10.821 2.79-12.203 1.438-.826 2.615-1.875 2.615-2.33 0-1.21-2.207-.805-5.49 1.006zm-9.15.342c0 .327.824 1.571 1.83 2.764 1.658 1.963 1.695 1.908.395-.597-1.367-2.632-2.225-3.467-2.225-2.167zm3.219 8.221c.051 1.841.298 2.215.632.956.302-1.14.265-2.504-.083-3.028-.347-.525-.594.407-.549 2.072zm1.307 28.302c.005 6.082.193 8.375.42 5.099.226-3.278.223-8.253-.008-11.057-.232-2.806-.417-.123-.412 5.958zM230.022-79.16c0 2.172.237 3.061.527 1.975.29-1.086.29-2.863 0-3.95-.29-1.085-.527-.197-.527 1.975zm244.6 2.764c-.113 1.956-.237 7.112-.276 11.459-.065 7.339.197 8.177 3.651 11.719 3.163 3.243 3.813 3.448 4.341 1.373.715-2.817-1.122-6.78-3.143-6.78s-2.768-2.576-3.611-12.466c-.415-4.873-.848-7.26-.962-5.305zm-368.132 13.9c-4.053 4.323-3.919 4.654.861 2.137 1.811-.955 3.293-2.732 3.293-3.95 0-2.745.204-2.835-4.154 1.812zm-51.798 2.3c-2.796 4.667-1.3 5.401 1.579.775 1.348-2.169 1.972-3.943 1.385-3.943-.585 0-1.92 1.426-2.964 3.169zm27.717-1.342c-1.437.964-4.26 2.347-6.274 3.074-2.672.965-2.248 1.036 1.569.265 2.876-.58 8.993-.98 13.594-.889 7.075.142 7.72-.044 4.183-1.2-8.457-2.768-10.513-2.964-13.072-1.25zm32.418.592c0 1.898 1.862 2.281 10.196 2.106l10.196-.216-8.769-1.277c-4.823-.703-9.41-1.649-10.196-2.104-.806-.467-1.427.18-1.427 1.491zm70.411.675c-23.103.47-42.239 1.212-42.527 1.646-.968 1.464 85.562-.25 86.57-1.715.616-.896.419-1.32-.523-1.116-.833.182-20.418.714-43.52 1.185zm135.858 1.155c1.006.398 2.654.398 3.66 0 1.006-.397.183-.722-1.83-.722s-2.836.325-1.83.722zm23.528 1.606c1.295.376 3.412.376 4.706 0 1.295-.377.235-.685-2.353-.685s-3.647.308-2.353.685zm46.47.564c.251 1.139 1.075 2.384 1.83 2.764.785.395 1.177-.197.915-1.382-.252-1.14-1.076-2.385-1.83-2.764-.784-.395-1.176.197-.915 1.382zm8.169-.1c-1.237 1.209-1.016 1.517 1.046 1.465 1.438-.036 4.497-.656 6.797-1.374l4.183-1.307-5.228-.158c-2.876-.087-5.935.533-6.798 1.375zm47.058.094c0 .919.471 1.233 1.046.696.575-.537 1.045-1.289 1.045-1.672 0-.384-.47-.697-1.045-.697s-1.046.753-1.046 1.673zm-380.839.985c.754.457 1.657.4 2.004-.124.347-.525-.27-.898-1.372-.83-1.218.076-1.466.45-.632.954zm310.776 3.66c0 .87.705 1.58 1.568 1.58a1.58 1.58 0 000-3.16c-.863 0-1.568.712-1.568 1.58zM180.912-51.18c-1.345.388-2.845 2.43-3.398 4.626-2.328 9.249-.424 46.513 2.754 53.877l1.533 3.554 31.086-.308 31.087-.308-29.803-.962c-16.392-.529-30.581-1.505-31.53-2.17-2.299-1.608-2.765-4.672-4.187-27.488-.961-15.416-.937-20.157.115-23.126 1.813-5.12 5.096-7.048 10.58-6.212 2.546.388 8.159.052 12.473-.747 7.757-1.436 7.7-1.452-5.229-1.442-7.189.004-14.156.323-15.481.706zm59.663.004c1.581.362 4.17.362 5.752 0 1.581-.361.287-.657-2.876-.657-3.164 0-4.457.296-2.876.657zm18.319.015c1.879.35 4.703.344 6.274-.016 1.572-.362.034-.65-3.417-.64-3.451.008-4.736.303-2.857.656zm20.387-.011c1.59.361 3.943.352 5.229-.023 1.286-.374-.015-.671-2.89-.66-2.876.013-3.928.32-2.339.682zM63.586-49.76c6.038 1.142 26.956 1.318 26.508.223-.268-.656-6.93-1.085-14.805-.954-7.874.13-13.14.46-11.703.731zm31.372.611l-3.66 1.165 4.183.036c2.3.02 7.006-.493 10.457-1.14l6.275-1.176-6.798-.023c-3.738-.015-8.444.499-10.457 1.139zm47.581.059c12.653.56 24.182 1.494 25.62 2.077 2.121.858 2.021.62-.523-1.257-2.494-1.84-7.746-2.267-25.62-2.076l-22.483.239 23.006 1.017zm-126.01 1.521c-3.341 1.616 14.616 1.659 24.052.057 5.607-.953 4.326-1.169-7.32-1.238-7.765-.046-15.294.486-16.732 1.181zm32.804 15.796c0 9.122.173 12.853.384 8.293.211-4.56.211-12.026 0-16.586-.211-4.56-.384-.83-.384 8.293zm121-8.557c.05 1.84.298 2.215.631.956.303-1.14.265-2.504-.082-3.028-.347-.524-.594.408-.549 2.072zm1.116 22.774c-.153 4.778-.642 12.035-1.089 16.124-.445 4.09-.45 8.318-.009 9.396 1.388 3.393 2.105-4.892 1.729-19.992-.244-9.801-.44-11.518-.631-5.528zM53.244-10.052c-.069 7.75.309 13.031.931 13.031.934 0 1.639-7.755 1.076-11.847-.12-.868-.594-4.422-1.055-7.898-.708-5.34-.855-4.3-.952 6.714zm272.241-10.224c-.823 3.24.076 7.46 1.591 7.46 1.338 0 1.382-4.73.072-7.854-.833-1.992-1.072-1.935-1.663.395zm-27.414 9.039c0 3.04.215 4.285.478 2.764.263-1.52.263-4.007 0-5.528-.263-1.522-.478-.277-.478 2.764zM48.946-3.442c0 3.419-.473 8.217-1.052 10.663-.98 4.148-.945 4.24.523 1.38 1.435-2.794 2.326-18.258 1.052-18.258-.287 0-.523 2.797-.523 6.215zm245.828 1.024c.05 1.84.298 2.215.631.956.303-1.14.265-2.504-.082-3.029-.347-.524-.594.408-.549 2.073zm-1.802 6.658c-1 2.396-3.579 2.688-23.753 2.688-17.407 0-22.63.457-22.63 1.975-.001 1.508 4.507 1.97 19.083 1.957 22.213-.02 26.588-.81 28.098-5.074 1.374-3.878.711-5.162-.798-1.546zm6.113 2.074c.384 1.742 3.91 2.22 17.129 2.327l16.646.134-15.686-.924c-8.627-.507-16.335-1.554-17.129-2.327-1.017-.992-1.301-.76-.96.79zM165.022 8.089c-1.736 1.163-20.188 2.059-54.901 2.665-47.18.825-50.328 1.033-32.234 2.136 18.748 1.142 81.796.19 86.758-1.308 1.231-.373 2.51-1.75 2.842-3.06.334-1.31.503-2.338.378-2.284-.127.055-1.406.888-2.843 1.851zm254.11-.914c9.419 2.183 9.998 2.46 7.843 3.78-1.707 1.044-1.455 1.3 1.369 1.391 2.056.065 3.198-.53 2.814-1.469-.356-.868-.03-1.661.723-1.76 2.875-.383-7.202-2.79-11.18-2.672-2.416.071-3.079.38-1.569.73zm-79.67 1.622c.754.457 1.656.4 2.003-.125.347-.524-.27-.897-1.372-.829-1.218.076-1.466.45-.631.954zm8.365 0c.754.457 1.657.4 2.004-.125.347-.524-.27-.897-1.372-.829-1.218.076-1.466.45-.632.954zm10.74-.505c.241.314 4.436.958 9.325 1.432 6.204.599 7.625.454 4.706-.482-4.142-1.328-14.871-2.056-14.031-.95zm85.924.515c1.006.398 2.654.398 3.66 0 1.006-.397.183-.722-1.83-.722s-2.836.325-1.83.722zm26.404.075c1.726.38 4.076 2.206 5.221 4.057 1.858 3.003 2.121 3.072 2.43.652.194-1.527 1.341-2.763 2.622-2.824 5.288-.26-1.99-2.824-7.658-2.701-3.293.072-4.411.421-2.615.816zm-145.028 4.654c.754.456 1.657.4 2.004-.125.347-.524-.27-.897-1.372-.83-1.218.077-1.466.451-.632.955zm-56.535 6.285c.72.44 1.896.44 2.615 0 .719-.437.13-.796-1.307-.796-1.438 0-2.026.359-1.308.796zm-144.571 2.114l-3.137 1.205 3.66.096c2.013.052 5.542-.493 7.843-1.211l4.183-1.307-4.706.005c-2.588.003-6.117.548-7.843 1.212zm29.281.06c-1.261.853 7.679 1.039 22.483.469 13.516-.521 24.771-1.209 25.01-1.528.968-1.292-45.556-.256-47.493 1.059zm74.458-.534c2.599.761 3.441 3.794 4.517 16.27l.748 8.688.137-11.137c.151-12.224-.819-15.052-5.039-14.712-2.391.192-2.428.286-.363.89zm8.328-.052c-.384.578-.683 7.51-.666 15.4.025 10.903.299 13.655 1.143 11.462.612-1.587.951-7.985.753-14.216l-.359-11.33 5.752-.928 5.751-.927-5.838-.258c-3.211-.142-6.153.217-6.536.797zm116.506 1.447c.05 1.84.298 2.214.632.955.302-1.14.264-2.503-.083-3.028-.347-.524-.594.408-.549 2.072zm-313.015.259c7.62.27 20.09.27 27.712 0 7.62-.269 1.385-.49-13.856-.49s-21.477.221-13.856.49zm66.126.213c3.276.877 3.721 1.617 4.385 7.294 1.169 9.995 1.006 47.855-.211 48.992-.589.55-10.823 1.395-22.745 1.878-11.92.485-22.379 1.529-23.242 2.322-1.6 1.472 42.735.246 46.273-1.28 1.641-.706 1.829-3.274 1.819-24.77-.006-13.19-.303-26.647-.66-29.906-.631-5.773-.758-5.919-4.956-5.715l-4.307.207 3.644.978zm10.683.502c-.691 1.043-1.192 3.709-1.113 5.924l.142 4.028.481-3.95c.265-2.171.964-4.836 1.554-5.923 1.37-2.52.59-2.578-1.064-.079zm261.025-.816c.754.456 1.657.4 2.004-.125s-.27-.898-1.372-.83c-1.218.076-1.466.45-.632.954zM358.563 48.3c-.045 5.378.307 10.142.783 10.588.477.445.677-3.245.445-8.2-.601-12.78-1.132-13.814-1.228-2.388zM233.209 64.134c-.183 11.016-.521 13.222-2.238 14.611-1.113.899-8.76 1.714-16.993 1.812-8.234.096-19.441.73-24.905 1.406-7.328.908-3.021 1.172 16.419 1.009 17.455-.148 26.737-.804 27.493-1.946.709-1.073 1.008-7.04.79-15.796l-.352-14.073-.214 12.977zm-150.8-3.63c0 1.376.746 2.5 1.656 2.5 1.847 0 1.526-3.4-.413-4.377-.684-.344-1.243.5-1.243 1.877zm32.661 7.24c0 3.04.215 4.283.477 2.763.264-1.52.264-4.009 0-5.528-.262-1.52-.477-.277-.477 2.764zm243.5-3.95c.109 2.992 1.851 8.03 1.912 5.529.032-1.303-.399-3.436-.956-4.74-.557-1.302-.988-1.658-.956-.789zm-121.151 5.529c0 3.04.215 4.284.478 2.764s.263-4.01 0-5.529c-.263-1.52-.478-.276-.478 2.765zM52.437 78.405L50.29 82.75l-22.55.8c-12.404.439-22.942 1.409-23.418 2.156-.48.755 9.795.876 23.187.273l24.052-1.082 2.347-4.233 2.348-4.232.005 4.344c.004 3.033.542 4.344 1.783 4.344 1.383 0 1.499-.422.523-1.896-.69-1.042-1.255-3.53-1.255-5.528 0-4.911-2.26-4.581-4.875.71zm185.785-1.693c0 4.952 2.635 5.248 46.919 5.248 24.424 0 44.126-.425 43.783-.945-.344-.518-20.115-1.052-43.934-1.185-34.993-.194-43.641-.657-45.038-2.407-.952-1.193-1.73-1.513-1.73-.71zm114.455.387c-.546.802-2.406 1.761-4.131 2.132-2.496.538-2.229.724 1.307.912 3.323.177 4.444-.36 4.444-2.133 0-2.756-.263-2.903-1.62-.91zm-236.804 2.913c0 2.649 5.949 3.538 21.829 3.257L152.996 83l-15.686-1.06c-8.627-.582-16.979-1.604-18.562-2.27-1.731-.73-2.875-.593-2.875.342zm48.19.948c.24.319 2.318 1.056 4.619 1.638 2.997.758 3.738.602 2.614-.556-1.411-1.452-8.282-2.479-7.233-1.082zm205.136.57c2.157.341 5.687.341 7.843 0 2.157-.34.392-.62-3.922-.62-4.313 0-6.077.28-3.921.62zM232.798 92.516c.754.456 1.656.4 2.004-.125.347-.524-.27-.897-1.372-.83-1.219.077-1.466.451-.632.955zm70.063 0c.754.456 1.657.4 2.004-.125.347-.524-.27-.897-1.372-.83-1.218.077-1.466.451-.632.955zM49.041 99.73l.094 6.713.982-5.133.98-5.134 29.513-.024c19.44-.016 28.976-.546 27.943-1.556-.915-.894-13.659-1.541-30.588-1.556l-29.019-.023.095 6.713zm136.149-5.544c3.328.314 8.504.31 11.503-.007 2.998-.317.275-.575-6.051-.572-6.327.004-8.78.264-5.452.579zm112.29-.116c-.965 1.458-.882 32.118.087 32.118.432 0 .784-7.463.784-16.585 0-9.123-.04-16.586-.087-16.586-.048 0-.401.474-.784 1.053zM8.966 95.742c1.88.35 4.703.344 6.275-.016 1.571-.362.033-.65-3.418-.64-3.45.008-4.736.303-2.857.656zm20.404.017c2.75.327 6.985.322 9.412-.008 2.427-.332.178-.599-4.998-.594-5.177.005-7.163.276-4.413.602zm116.306.436c11.503.516 21.032 1.08 21.176 1.25.143.172.268 9.728.277 21.24.009 12.419.475 21.894 1.145 23.299.938 1.972 1.024 1.883.506-.524-.342-1.591-.621-12.787-.621-24.879V94.596l-21.699.329-21.699.33 20.915.94zm26.085 5.165c-.282 1.114-.057 5.911.501 10.662.955 8.126.998 8.216.718 1.53-.165-3.91.083-8.707.552-10.663.894-3.742-.83-5.231-1.771-1.529zM48.459 118.924c.268 6.863.487 17.371.487 23.348 0 7.347.424 11.048 1.308 11.422.719.305 3.32 1.471 5.782 2.589 3.232 1.469 4.793 1.556 5.617.311.823-1.243-.218-2.03-3.744-2.829-7.33-1.66-7.898-3.197-8.04-21.765-.068-8.845-.523-18.212-1.01-20.818-.594-3.17-.726-.606-.4 7.742zm370.756 6.606c.05 1.84.298 2.214.631.955.303-1.14.265-2.503-.082-3.028-.347-.524-.594.408-.549 2.073zm-121.91 3.818c-.817 1.999.567 1.999 2.615 0 1.352-1.319 1.324-1.534-.2-1.556-.972-.013-2.059.687-2.415 1.556zM175.1 131.717c.332 1.303.788 2.369 1.014 2.369.225 0 .411-1.066.411-2.369 0-1.303-.456-2.369-1.014-2.369-.556 0-.741 1.066-.411 2.369zM42.672 146.602c0 .802-1.218 3.645-2.707 6.318-2.568 4.609-1.79 6.617 1.384 3.573 1.356-1.3 3.106-11.349 1.977-11.349-.36 0-.654.655-.654 1.458zm122.83 3.386c-.38.926-.439 2.063-.132 2.528.75 1.131 2.789-.863 2.789-2.727 0-2.019-1.805-1.884-2.657.199zm184.09-.016c-2.301.719-6.262 1.349-8.802 1.398-2.54.051-4.337.517-3.993 1.037.962 1.454 20.638-1.131 20.638-2.713 0-1.616-2.008-1.544-7.843.278zm9.934.13c0 .747 1.176 1.36 2.614 1.36s2.615-.273 2.615-.605c0-.333-1.177-.946-2.615-1.362-1.438-.415-2.614-.142-2.614.607zm-332.453 3.507c1.25 1.627 6.188 2.459 6.188 1.042 0-.884-1.49-1.609-3.312-1.609-1.82 0-3.115.256-2.876.567zm41.22 1.094c-2.301.577 4.757 1.095 15.685 1.149 10.928.055 19.398-.141 18.823-.435-2.205-1.124-30.53-1.71-34.509-.714zm40.782-.058c5.335 1.305 17.958 2.025 17.168.978-.239-.318-5.377-.956-11.416-1.417-7.404-.567-9.278-.425-5.752.439zm126.533-.062c5.176.586 10.408 1.875 11.627 2.866 1.219.99 2.52 1.339 2.893.775 1.652-2.494-6.406-5.168-14.902-4.944l-9.03.237 9.412 1.066zm19.607-.453c1.007.398 2.653.398 3.66 0 1.007-.397.183-.722-1.83-.722s-2.837.325-1.83.722zm10.98-.043c.72.439 1.896.439 2.615 0 .719-.437.13-.796-1.308-.796-1.437 0-2.025.359-1.307.796zm-127.601 1.675c1.856.349 5.15.354 7.32.012 2.169-.342.651-.627-3.375-.635-4.026-.006-5.802.274-3.945.623zM5.838 157.359c2.46.335 6.224.33 8.365-.01 2.142-.339.13-.613-4.471-.606-4.601.004-6.354.282-3.894.616zm150.556-.113c.72.44 1.896.44 2.615 0 .719-.437.13-.796-1.307-.796-1.438 0-2.026.359-1.308.796zm90.991 6.39c1.301.377 3.183.363 4.183-.032.999-.394-.065-.704-2.366-.687-2.3.018-3.118.341-1.817.719zm-48.05 1.542c.754.456 1.656.399 2.004-.125.347-.525-.27-.897-1.372-.829-1.219.075-1.467.45-.632.954zm34.902 24.589c.199 25.825.586 22.759 1.096-8.691.15-9.341-.079-16.982-.509-16.98-.431.001-.696 11.554-.587 25.671zM55.744 167.234l47.057.814.523 9.477c.479 8.68.589 9.029 1.307 4.147.432-2.932.784-7.731.784-10.662v-5.332l-48.364.372-48.365.369 47.058.815zm55.946-.012c-1.229 1.17-1.645 5.876-1.92 21.696-.193 11.109-.125 19.844.153 19.41.277-.435.712-8.89.968-18.791.591-22.942.511-22.827 14.916-21.576 5.752.499 14.928.292 20.392-.463 9.063-1.249 8.054-1.387-11.503-1.57-11.936-.112-22.133.461-23.006 1.294zm55.228-.465c.753.457 1.656.4 2.003-.124.347-.525-.27-.898-1.372-.83-1.218.076-1.466.45-.631.954zm-62.36 51.263l-.188 7.325-4.727 1.071c-2.6.589-17.306.996-32.679.906-15.374-.091-33.599.522-40.5 1.36l-12.55 1.525 15.687-.782c8.627-.43 28.938-.91 45.136-1.066 16.198-.158 29.755-.743 30.126-1.302.373-.558.498-4.467.28-8.688l-.397-7.672-.188 7.323zm130.952.31c.342 1.59.621 3.191.621 3.554s1.294.614 2.875.561l2.876-.102-2.585-1.557c-1.421-.858-2.995-2.412-3.497-3.455-.592-1.229-.693-.876-.29.999zm-7.129 3.81c-.428.647-3.448 1.609-6.711 2.137l-5.931.962 6.474.232c3.627.13 6.778-.509 7.163-1.453.844-2.062.081-3.504-.995-1.878zm15.593 1.998c-1.264.812 5.236 1.387 16.408 1.455 10.418.061 18.764-.534 19.103-1.365.766-1.87-32.607-1.954-35.511-.09zm38.169-.973c0 .341.729 1.044 1.622 1.562.931.539 1.351.273.985-.621-.614-1.502-2.607-2.221-2.607-.941zm-158.147 3.684c1.879.35 4.702.344 6.274-.016 1.572-.362.034-.65-3.417-.64-3.451.008-4.736.303-2.857.656zm21.941-.1c.72.439 1.896.439 2.614 0 .72-.438.131-.796-1.307-.796s-2.025.358-1.307.796zm24.517.133c6.151.278 16.504.279 23.006.001 6.502-.278 1.469-.505-11.184-.507-12.653-.001-17.973.226-11.822.506zM51.299 241.035l-3.398 5.68v23.326c0 12.83.285 24.451.634 25.825.502 1.978 2.086 2.436 7.582 2.194l6.947-.303-6.426-.558c-7.852-.679-7.658.037-7.677-28.336l-.015-20.815 3.899-4.854c3.819-4.756 4.142-4.859 15.947-5.094 11.024-.221 11.47-.34 5.252-1.396-3.739-.634-9.62-1.198-13.072-1.251-5.91-.094-6.47.23-9.673 5.582zm38.773-4.812c.732 1.108 15.538.77 16.293-.371.245-.369-3.477-.671-8.27-.671-4.792 0-8.403.469-8.023 1.042zm84.361.537c-.863.842-1.098 1.531-.523 1.531.575 0 1.752-.689 2.615-1.531.862-.841 1.098-1.53.522-1.53-.575 0-1.751.689-2.614 1.53zm27.189.094c0 .919.47 1.233 1.046.696.575-.537 1.045-1.289 1.045-1.672 0-.384-.47-.697-1.045-.697-.576 0-1.046.753-1.046 1.673zm-158.753 5.732c.631 3.428.872 12.484.558 21.028-.372 10.153-.234 13.768.427 11.177 1.413-5.537.701-36.825-.855-37.606-.94-.47-.971.838-.13 5.401zM171.5 267.075c-.113 16.238.148 29.856.579 30.26.431.404.662-8.261.513-19.257-.503-36.89-.886-40.749-1.092-11.003zm-159.155 3.516c0 1.376.746 2.5 1.655 2.5.911 0 1.47-.843 1.243-1.875-.646-2.93-2.898-3.415-2.898-.625zm29.885 14.742c-.434.653-1.43 3.494-2.212 6.319l-1.423 5.133-11.295.233c-10.256.211-10.718.341-5.02 1.407 3.45.648 8.771 1.254 11.822 1.347l5.55.173 2.12-7.24c2.006-6.854 2.202-9.988.458-7.372zm120.602 7.68c-.77 1.4-2.356 3.133-3.526 3.848-1.934 1.185-1.88 1.313.579 1.405 1.911.069 3.059-1.064 3.9-3.85 1.374-4.554 1.044-5.039-.953-1.403zm-33.105 4.861c1.008.398 2.653.398 3.661 0 1.007-.397.183-.722-1.83-.722-2.014 0-2.838.325-1.831.722zm75.815-.043c.72.439 1.896.439 2.615 0 .719-.438.13-.796-1.307-.796-1.438 0-2.026.358-1.308.796zm49.704.117c2.749.327 6.984.322 9.411-.008 2.427-.332.178-.599-4.999-.594-5.176.005-7.162.277-4.412.602zm-43.363 6.235c.754.456 1.656.399 2.003-.125.347-.525-.27-.897-1.372-.829-1.218.075-1.466.45-.631.954zM5.549 306.176c7.176 2.395 51.122 3.96 53.416 1.902 1.554-1.392-1.295-1.714-12.633-1.422-8.052.207-21.463-.131-29.803-.75-9.387-.697-13.57-.594-10.98.27zm60.913-.447c.72.439 1.896.439 2.615 0 .719-.437.13-.796-1.308-.796-1.437 0-2.025.359-1.307.796zm19.085 1.881c0 .741 2.47 1.041 5.49.665 8.06-1.003 8.471-1.745 1.045-1.887-3.594-.068-6.535.482-6.535 1.222zm161.891-.268c.754.456 1.657.4 2.004-.125.347-.524-.27-.897-1.372-.829-1.219.076-1.466.45-.632.954zm-10.791 5.634c-.342 2.825-.463 12.598-.267 21.72l.355 16.586.221-18.665c.121-10.264.708-20.039 1.303-21.719.697-1.969.714-3.055.047-3.055-.569 0-1.316 2.309-1.659 5.133zm-122.456 16.981c0 11.729.164 16.526.366 10.662.201-5.863.201-15.461 0-21.324-.202-5.864-.366-1.067-.366 10.662zm-4.389-13.427c.021 2.607.255 3.482.521 1.945.266-1.537.248-3.67-.039-4.739-.286-1.069-.503.188-.482 2.794zm123.594 16.586c0 10.86.167 15.303.371 9.873.205-5.429.205-14.315 0-19.745-.204-5.429-.371-.988-.371 9.872zm-124.843 28.169c0 1.883-.118 3.564-.262 3.738-.144.172-10.143.733-22.221 1.248l-21.96.933 22.201.332 22.202.331.668-4.023c.368-2.211.377-4.462.02-5.001-.357-.538-.648.561-.648 2.442zm123.865-1.188c-.384.94-2.177 3.07-3.983 4.733-1.807 1.665-2.704 3.028-1.994 3.031 1.339.006 8.677-9.343 7.399-9.425-.398-.026-1.038.722-1.422 1.661zm-183.994 4.717l-8.366.894 10.196.291c5.607.158 10.195.016 10.195-.316 0-1.406-4.182-1.709-12.025-.869zm66.403 1.196c0 2.486 4.217 3.404 14.64 3.188l9.934-.207-11.194-1.215c-6.157-.668-11.687-1.673-12.287-2.234-.602-.56-1.093-.35-1.093.468zm-97.514 1.324c.72.439 1.896.439 2.615 0 .72-.438.13-.797-1.308-.797-1.437 0-2.025.359-1.307.797zm164.245.033c.754.456 1.656.399 2.003-.125.347-.524-.27-.897-1.372-.829-1.218.076-1.466.45-.631.954zm-34.052 1.589c1.007.398 2.653.398 3.66 0 1.007-.397.183-.722-1.83-.722s-2.837.325-1.83.722zm-140.127 7.94c1.582.362 4.17.362 5.751 0 1.583-.361.288-.657-2.875-.657-3.164 0-4.457.296-2.876.657zm23.006-.042c1.006.398 2.654.398 3.66 0 1.006-.397.183-.722-1.83-.722s-2.836.325-1.83.722zm9.947.028c1.3.378 3.183.364 4.183-.031s-.065-.705-2.366-.687c-2.3.017-3.118.341-1.817.718zm7.087 2.142c.377.924 1.04 12.474 1.47 25.669l.783 23.989.146-22.114c.148-22.489-.336-29.223-2.101-29.223-.542 0-.676.755-.298 1.679zm7.44-.494c-.266.652 1.706.973 4.383.712 7.637-.741 8.563-1.513 2.053-1.714-3.273-.101-6.17.349-6.436 1.002zm-1.51 32.276c-.243 27.414-.856 25.046 7.1 27.42 2.013.6 3.397.671 3.076.157-.322-.515-2.44-1.518-4.706-2.228l-4.121-1.29-.565-24.416-.563-24.416-.221 24.773zm-5.137 22.212c-.966 3.202-2.161 4.295-5.226 4.777l-3.974.624 3.722.265c4.441.318 7.63-2.758 7.108-6.854-.322-2.521-.564-2.344-1.63 1.188zM4.503 435.79c-3.567.965-3.105 1.144 3.137 1.217 4.026.047 9.673-.468 12.55-1.144 4.847-1.14 4.618-1.229-3.138-1.216-4.601.006-10.248.521-12.549 1.143zm29.608 1.079c.754.457 1.656.4 2.003-.125.348-.524-.27-.897-1.372-.829-1.218.076-1.466.45-.631.954zm108.755 0c.754.457 1.656.4 2.004-.125.347-.524-.27-.897-1.372-.829-1.219.076-1.467.45-.632.954zm-66.926 1.58c.754.456 1.656.4 2.003-.125.347-.524-.27-.897-1.372-.829-1.218.076-1.466.45-.631.954zm46.011 0c.754.456 1.657.4 2.004-.125.347-.524-.27-.897-1.372-.829-1.218.076-1.466.45-.632.954zm27.666.016c1.018.401 2.429.374 3.137-.059.708-.433-.124-.76-1.85-.728-1.725.032-2.304.385-1.287.787zM11.08 441.7c3.617.309 9.264.308 12.548-.005 3.285-.313.326-.566-6.576-.562-6.902.003-9.59.259-5.972.567zm42.9 1.488c.754.456 1.656.399 2.003-.125.347-.525-.27-.897-1.372-.829-1.218.075-1.466.45-.631.954zm15.632.038c1.3.377 3.183.363 4.183-.032s-.065-.704-2.365-.687c-2.301.017-3.119.341-1.818.719zm41.716 3.759c.664 1.227 1.443 4.009 1.731 6.181.364 2.747.473 2.303.361-1.458-.097-3.243-.79-5.717-1.73-6.181-1.237-.61-1.314-.302-.362 1.458zM2.935 500.431c-1.125 1.186 2.727 1.662 13.594 1.677 8.34.015 32.253.801 53.14 1.749 20.888.949 39.123 1.291 40.522.761 1.48-.562 2.538-2.108 2.529-3.699-.014-2.221-.192-2.316-.953-.501-.794 1.894-7.492 2.073-44.121 1.171-23.752-.585-47.677-1.455-53.165-1.937-6.212-.543-10.57-.249-11.546.779zm132.042 4.377c1.017.401 2.429.374 3.137-.058.708-.433-.124-.76-1.85-.729-1.725.032-2.305.386-1.287.787zm15.209-.016c.754.457 1.656.4 2.004-.125.347-.524-.27-.897-1.372-.829-1.219.076-1.467.45-.632.954zM.843 511.633c-1.103 1.093-.483 1.253 2.092.539 4.51-1.249 5.36-2.148 2.004-2.117-1.39.015-3.233.724-4.096 1.578zm37.397-.485c1.301.378 3.183.364 4.183-.031s-.065-.705-2.365-.687c-2.3.017-3.119.341-1.818.718zm19.155 1.857c-1.967.537-3.79 2.042-4.052 3.345-.368 1.836-.181 1.952.829.518.717-1.017 1.984-1.456 2.815-.974.831.481 2.539.09 3.794-.871 1.256-.962 4.165-2.003 6.466-2.314 3.57-.483 3.418-.575-1.046-.624-2.876-.031-6.838.382-8.806.92zm-.278 54.971c.754.457 1.656.4 2.003-.125.347-.524-.27-.897-1.372-.829-1.218.076-1.466.45-.631.954zM8.96 569.594c1.301.377 3.183.363 4.183-.032s-.065-.704-2.365-.687c-2.301.017-3.119.341-1.818.719zm12.052 6.37c3.328.315 8.504.312 11.503-.006 2.998-.317.275-.575-6.052-.572-6.326.003-8.78.264-5.45.578zm22.793-.606c.24.309 2.083 1.02 4.096 1.578 2.574.714 3.194.554 2.091-.539-1.418-1.404-7.224-2.379-6.187-1.039zm14.814.526c1.006.398 2.654.398 3.66 0 1.006-.397.183-.722-1.83-.722s-2.836.325-1.83.722zM3.98 584.366c0 1.788.47 2.813 1.046 2.276 1.357-1.266 1.357-5.528 0-5.528-.575 0-1.046 1.464-1.046 3.252z" fill="#A0A0A0"/></svg>